SplineFontDB: 3.2
FontName: Protoculture
FullName: Protoculture
FamilyName: Protoculture
Weight: Book
Copyright: Protoculture (c) (Neale Davidson). 2012-2014. All Rights Reserved
Version: 1.10 October 2, 2014
ItalicAngle: 0
UnderlinePosition: -292
UnderlineWidth: 150
Ascent: 1638
Descent: 410
InvalidEm: 0
sfntRevision: 0x0001199a
LayerCount: 2
Layer: 0 1 "Back" 1
Layer: 1 1 "Fore" 0
XUID: [1021 576 -1441133653 25135]
StyleMap: 0x0040
FSType: 8
OS2Version: 4
OS2_WeightWidthSlopeOnly: 1
OS2_UseTypoMetrics: 0
CreationTime: 1412242622
ModificationTime: 1592799058
PfmFamily: 17
TTFWeight: 400
TTFWidth: 5
LineGap: 206
VLineGap: 0
Panose: 2 0 5 0 0 0 0 0 0 0
OS2TypoAscent: 1040
OS2TypoAOffset: 0
OS2TypoDescent: 0
OS2TypoDOffset: 0
OS2TypoLinegap: 205
OS2WinAscent: 1750
OS2WinAOffset: 0
OS2WinDescent: 400
OS2WinDOffset: 0
HheadAscent: 1750
HheadAOffset: 0
HheadDescent: -400
HheadDOffset: 0
OS2SubXSize: 1434
OS2SubYSize: 1331
OS2SubXOff: 0
OS2SubYOff: 283
OS2SupXSize: 1434
OS2SupYSize: 1331
OS2SupXOff: 0
OS2SupYOff: 977
OS2StrikeYSize: 102
OS2StrikeYPos: 530
OS2CapHeight: 1300
OS2XHeight: 1040
OS2Vendor: 'PXSG'
OS2CodePages: 00000001.00000000
OS2UnicodeRanges: 800000a7.5000004a.00000000.00000000
Lookup: 1 0 0 "'frac' Fracciones in Latin lookup 0" { "'frac' Fracciones in Latin lookup 0 subtable"  } ['frac' ('latn' <'dflt' > ) ]
Lookup: 4 0 0 "'frac' Fracciones in Latin lookup 1" { "'frac' Fracciones in Latin lookup 1 subtable"  } ['frac' ('latn' <'dflt' > ) ]
Lookup: 258 0 0 "'kern' Interletraje horizontal in Latin lookup 0" { "'kern' Interletraje horizontal in Latin lookup 0 subtable"  } ['kern' ('latn' <'dflt' > ) ]
DEI: 91125
ShortTable: maxp 16
  1
  0
  236
  92
  5
  0
  0
  0
  0
  0
  0
  0
  0
  0
  0
  0
EndShort

StartChar: .notdef
Encoding: 65536 -1 0
Width: 1650
Flags: W
LayerCount: 2
Fore
SplineSet
0 200 m 2,1,-1
 0 1300 l 2,2,3
 0 1500 0 1500 200 1500 c 2,4,-1
 1300 1500 l 2,5,6
 1500 1500 1500 1500 1500 1300 c 2,7,-1
 1500 200 l 2,8,9
 1500 0 1500 0 1300 0 c 2,10,-1
 200 0 l 2,11,0
 0 0 0 0 0 200 c 2,1,-1
1475 201 m 2,13,-1
 1475 1300 l 2,14,15
 1475 1475 1475 1475 1300 1475 c 2,16,-1
 200 1475 l 2,17,18
 26 1475 26 1475 25 1300 c 2,19,-1
 25 200 l 2,20,21
 26 25 26 25 200 25 c 2,22,-1
 1301 25 l 2,23,12
 1475 25 1475 25 1475 201 c 2,13,-1
EndSplineSet
EndChar

StartChar: exclam
Encoding: 33 33 4
Width: 450
Flags: W
LayerCount: 2
Fore
SplineSet
300 0 m 1,0,-1
 0 0 l 1,1,-1
 0 300 l 1,2,-1
 300 300 l 1,3,-1
 300 0 l 1,0,-1
0 1300 m 1,4,-1
 300 1300 l 1,5,-1
 300 400 l 1,6,-1
 0 400 l 1,7,-1
 0 1300 l 1,4,-1
EndSplineSet
EndChar

StartChar: quotedbl
Encoding: 34 34 5
Width: 850
Flags: W
LayerCount: 2
Fore
SplineSet
0 1300 m 1,0,-1
 300 1300 l 1,1,-1
 300 1000 l 1,2,-1
 150 750 l 1,3,-1
 0 750 l 1,4,-1
 0 1300 l 1,0,-1
400 1300 m 1,5,-1
 700 1300 l 1,6,-1
 700 1000 l 1,7,-1
 550 750 l 1,8,-1
 400 750 l 1,9,-1
 400 1300 l 1,5,-1
EndSplineSet
EndChar

StartChar: numbersign
Encoding: 35 35 6
Width: 1250
Flags: W
LayerCount: 2
Fore
SplineSet
200 600 m 1,0,-1
 200 700 l 1,1,-1
 0 700 l 1,2,-1
 0 1000 l 1,3,-1
 200 1000 l 1,4,-1
 200 1200 l 1,5,-1
 500 1200 l 1,6,-1
 500 1000 l 1,7,-1
 600 1000 l 1,8,-1
 600 1200 l 1,9,-1
 900 1200 l 1,10,-1
 900 1000 l 1,11,-1
 1100 1000 l 1,12,-1
 1100 700 l 1,13,-1
 900 700 l 1,14,-1
 900 600 l 1,15,-1
 1100 600 l 1,16,-1
 1100 300 l 1,17,-1
 900 300 l 1,18,-1
 900 100 l 1,19,-1
 600 100 l 1,20,-1
 600 300 l 1,21,-1
 500 300 l 1,22,-1
 500 100 l 1,23,-1
 200 100 l 1,24,-1
 200 300 l 1,25,-1
 0 300 l 1,26,-1
 0 600 l 1,27,-1
 200 600 l 1,0,-1
500 700 m 1,28,-1
 500 600 l 1,29,-1
 600 600 l 1,30,-1
 600 700 l 1,31,-1
 500 700 l 1,28,-1
EndSplineSet
EndChar

StartChar: dollar
Encoding: 36 36 7
Width: 1300
Flags: W
LayerCount: 2
Fore
SplineSet
425 100 m 1,0,-1
 0 100 l 1,1,-1
 0 400 l 1,2,-1
 425 400 l 1,3,-1
 425 500 l 1,4,-1
 350 500 l 2,5,6
 205 500 205 500 102.5 602.5 c 128,-1,7
 0 705 0 705 0 850 c 256,8,9
 0 995 0 995 102.5 1097.5 c 128,-1,10
 205 1200 205 1200 350 1200 c 2,11,-1
 425 1200 l 1,12,-1
 425 1300 l 1,13,-1
 725 1300 l 1,14,-1
 725 1200 l 1,15,-1
 1150 1200 l 1,16,-1
 1000 900 l 1,17,-1
 725 900 l 1,18,-1
 725 800 l 1,19,-1
 800 800 l 2,20,21
 945 800 945 800 1047.5 697.5 c 128,-1,22
 1150 595 1150 595 1150 450 c 256,23,24
 1150 305 1150 305 1047.5 202.5 c 128,-1,25
 945 100 945 100 800 100 c 2,26,-1
 725 100 l 1,27,-1
 725 0 l 1,28,-1
 425 0 l 1,29,-1
 425 100 l 1,0,-1
425 900 m 1,30,-1
 350 900 l 2,31,32
 329 900 329 900 314.5 885.5 c 128,-1,33
 300 871 300 871 300 850 c 256,34,35
 300 829 300 829 314.5 814.5 c 128,-1,36
 329 800 329 800 350 800 c 2,37,-1
 425 800 l 1,38,-1
 425 900 l 1,30,-1
725 400 m 1,39,-1
 800 400 l 2,40,41
 821 400 821 400 835.5 414.5 c 128,-1,42
 850 429 850 429 850 450 c 256,43,44
 850 471 850 471 835.5 485.5 c 128,-1,45
 821 500 821 500 800 500 c 2,46,-1
 725 500 l 1,47,-1
 725 400 l 1,39,-1
EndSplineSet
EndChar

StartChar: percent
Encoding: 37 37 8
Width: 1600
Flags: W
LayerCount: 2
Fore
SplineSet
300 900 m 256,1,2
 300 859 300 859 329.5 829.5 c 128,-1,3
 359 800 359 800 400 800 c 256,4,5
 441 800 441 800 470.5 829.5 c 128,-1,6
 500 859 500 859 500 900 c 256,7,8
 500 941 500 941 470.5 970.5 c 128,-1,9
 441 1000 441 1000 400 1000 c 256,10,11
 359 1000 359 1000 329.5 970.5 c 128,-1,0
 300 941 300 941 300 900 c 256,1,2
950 400 m 256,13,14
 950 359 950 359 979.5 329.5 c 128,-1,15
 1009 300 1009 300 1050 300 c 256,16,17
 1091 300 1091 300 1120.5 329.5 c 128,-1,18
 1150 359 1150 359 1150 400 c 256,19,20
 1150 441 1150 441 1120.5 470.5 c 128,-1,21
 1091 500 1091 500 1050 500 c 256,22,23
 1009 500 1009 500 979.5 470.5 c 128,-1,12
 950 441 950 441 950 400 c 256,13,14
448 503 m 1,24,25
 424 500 424 500 400 500 c 0,26,27
 234 500 234 500 117 617 c 128,-1,28
 0 734 0 734 0 900 c 256,29,30
 0 1066 0 1066 117 1183 c 128,-1,31
 234 1300 234 1300 400 1300 c 256,32,33
 566 1300 566 1300 683 1183 c 0,34,35
 765 1101 765 1101 789 996 c 1,36,-1
 1000 1300 l 1,37,-1
 1350 1300 l 1,38,-1
 1002 797 l 1,39,40
 1026 800 1026 800 1050 800 c 0,41,42
 1216 800 1216 800 1333 683 c 128,-1,43
 1450 566 1450 566 1450 400 c 256,44,45
 1450 234 1450 234 1333 117 c 128,-1,46
 1216 0 1216 0 1050 0 c 256,47,48
 884 0 884 0 767 117 c 0,49,50
 685 199 685 199 661 304 c 1,51,-1
 450 0 l 1,52,-1
 100 0 l 1,53,-1
 448 503 l 1,24,25
EndSplineSet
EndChar

StartChar: ampersand
Encoding: 38 38 9
Width: 1300
Flags: W
LayerCount: 2
Fore
SplineSet
800 1200 m 1,0,-1
 1150 1200 l 1,1,-1
 1000 900 l 1,2,-1
 800 900 l 1,3,-1
 800 800 l 1,4,-1
 1000 800 l 1,5,-1
 1000 500 l 1,6,-1
 800 500 l 1,7,-1
 800 400 l 1,8,-1
 1150 400 l 1,9,-1
 1150 100 l 1,10,-1
 800 100 l 1,11,-1
 800 0 l 1,12,-1
 500 0 l 1,13,-1
 500 100 l 1,14,-1
 350 100 l 2,15,16
 205 100 205 100 102.5 202.5 c 128,-1,17
 0 305 0 305 0 450 c 0,18,19
 0 563 0 563 62 650 c 1,20,21
 0 737 0 737 0 850 c 0,22,23
 0 995 0 995 102.5 1097.5 c 128,-1,24
 205 1200 205 1200 350 1200 c 2,25,-1
 500 1200 l 1,26,-1
 500 1300 l 1,27,-1
 800 1300 l 1,28,-1
 800 1200 l 1,0,-1
500 500 m 1,29,-1
 350 500 l 2,30,31
 329 500 329 500 314.5 485.5 c 128,-1,32
 300 471 300 471 300 450 c 256,33,34
 300 429 300 429 314.5 414.5 c 128,-1,35
 329 400 329 400 350 400 c 2,36,-1
 500 400 l 1,37,-1
 500 500 l 1,29,-1
500 900 m 1,38,-1
 350 900 l 2,39,40
 329 900 329 900 314.5 885.5 c 128,-1,41
 300 871 300 871 300 850 c 256,42,43
 300 829 300 829 314.5 814.5 c 128,-1,44
 329 800 329 800 350 800 c 2,45,-1
 500 800 l 1,46,-1
 500 900 l 1,38,-1
EndSplineSet
EndChar

StartChar: quotesingle
Encoding: 39 39 10
Width: 450
Flags: W
LayerCount: 2
Fore
SplineSet
0 1300 m 1,0,-1
 300 1300 l 1,1,-1
 300 1000 l 1,2,-1
 150 750 l 1,3,-1
 0 750 l 1,4,-1
 0 1300 l 1,0,-1
EndSplineSet
EndChar

StartChar: parenleft
Encoding: 40 40 11
Width: 900
Flags: W
LayerCount: 2
Fore
SplineSet
0 850 m 2,0,1
 0 1119 0 1119 176 1310 c 0,2,3
 351 1500 351 1500 599 1500 c 2,4,-1
 750 1500 l 1,5,-1
 650 1200 l 1,6,-1
 600 1200 l 2,7,8
 476 1200 476 1200 388 1097.5 c 128,-1,9
 300 995 300 995 300 850 c 2,10,-1
 300 450 l 2,11,12
 300 305 300 305 388 202.5 c 128,-1,13
 476 100 476 100 600 100 c 2,14,-1
 750 100 l 1,15,-1
 750 -200 l 1,16,-1
 600 -200 l 2,17,18
 351 -200 351 -200 175.5 -9.5 c 128,-1,19
 0 181 0 181 0 450 c 2,20,-1
 0 850 l 2,0,1
EndSplineSet
EndChar

StartChar: parenright
Encoding: 41 41 12
Width: 900
Flags: W
LayerCount: 2
Fore
SplineSet
750 450 m 2,0,1
 750 181 750 181 574.5 -9.5 c 128,-1,2
 399 -200 399 -200 150 -200 c 2,3,-1
 0 -200 l 1,4,-1
 0 100 l 1,5,-1
 150 100 l 2,6,7
 274 100 274 100 362 202.5 c 128,-1,8
 450 305 450 305 450 450 c 2,9,-1
 450 850 l 2,10,11
 450 995 450 995 362 1097.5 c 128,-1,12
 274 1200 274 1200 150 1200 c 2,13,-1
 100 1200 l 1,14,-1
 0 1500 l 1,15,-1
 151 1500 l 2,16,17
 399 1500 399 1500 574 1310 c 0,18,19
 750 1119 750 1119 750 850 c 2,20,-1
 750 450 l 2,0,1
EndSplineSet
EndChar

StartChar: asterisk
Encoding: 42 42 13
Width: 1150
Flags: W
LayerCount: 2
Fore
SplineSet
650 1156 m 1,0,-1
 882 1232 l 1,1,-1
 974 946 l 1,2,-1
 743 871 l 1,3,-1
 886 674 l 1,4,-1
 643 498 l 1,5,-1
 500 695 l 1,6,-1
 357 498 l 1,7,-1
 114 674 l 1,8,-1
 257 871 l 1,9,-1
 26 946 l 1,10,-1
 118 1232 l 1,11,-1
 350 1156 l 1,12,-1
 350 1400 l 1,13,-1
 650 1400 l 1,14,-1
 650 1156 l 1,0,-1
EndSplineSet
EndChar

StartChar: plus
Encoding: 43 43 14
Width: 1000
Flags: W
LayerCount: 2
Fore
SplineSet
275 500 m 1,0,-1
 0 500 l 1,1,-1
 0 800 l 1,2,-1
 275 800 l 1,3,-1
 275 1075 l 1,4,-1
 575 1075 l 1,5,-1
 575 800 l 1,6,-1
 851 800 l 1,7,-1
 851 500 l 1,8,-1
 575 500 l 1,9,-1
 575 225 l 1,10,-1
 275 225 l 1,11,-1
 275 500 l 1,0,-1
EndSplineSet
EndChar

StartChar: comma
Encoding: 44 44 15
Width: 450
Flags: W
LayerCount: 2
Fore
SplineSet
0 300 m 1,0,-1
 300 300 l 1,1,-1
 300 0 l 1,2,-1
 150 -250 l 1,3,-1
 0 -250 l 1,4,-1
 0 300 l 1,0,-1
EndSplineSet
EndChar

StartChar: hyphen
Encoding: 45 45 16
AltUni2: 0000ad.ffffffff.0
Width: 1000
Flags: W
LayerCount: 2
Fore
SplineSet
0 800 m 1,0,-1
 851 800 l 1,1,-1
 851 500 l 1,2,-1
 0 500 l 1,3,-1
 0 800 l 1,0,-1
EndSplineSet
EndChar

StartChar: period
Encoding: 46 46 17
Width: 450
Flags: W
LayerCount: 2
Fore
SplineSet
300 0 m 1,0,-1
 0 0 l 1,1,-1
 0 300 l 1,2,-1
 300 300 l 1,3,-1
 300 0 l 1,0,-1
EndSplineSet
EndChar

StartChar: slash
Encoding: 47 47 18
Width: 1350
Flags: W
LayerCount: 2
Fore
SplineSet
350 0 m 1,0,-1
 0 0 l 1,1,-1
 900 1300 l 1,2,-1
 1250 1300 l 1,3,-1
 350 0 l 1,0,-1
EndSplineSet
Substitution2: "'frac' Fracciones in Latin lookup 0 subtable" fraction
EndChar

StartChar: zero
Encoding: 48 48 19
Width: 1350
Flags: W
LayerCount: 2
Fore
SplineSet
1024.5 1109.5 m 128,-1,1
 1200 919 1200 919 1200 650 c 256,2,3
 1200 381 1200 381 1024.5 190.5 c 128,-1,4
 849 0 849 0 600 0 c 256,5,6
 351 0 351 0 175.5 190.5 c 128,-1,7
 0 381 0 381 0 650 c 256,8,9
 0 919 0 919 175.5 1109.5 c 128,-1,10
 351 1300 351 1300 600 1300 c 256,11,0
 849 1300 849 1300 1024.5 1109.5 c 128,-1,1
388 897.5 m 128,-1,13
 300 795 300 795 300 650 c 256,14,15
 300 505 300 505 388 402.5 c 128,-1,16
 476 300 476 300 600 300 c 256,17,18
 724 300 724 300 812 402.5 c 128,-1,19
 900 505 900 505 900 650 c 256,20,21
 900 795 900 795 812 897.5 c 128,-1,22
 724 1000 724 1000 600 1000 c 256,23,12
 476 1000 476 1000 388 897.5 c 128,-1,13
EndSplineSet
EndChar

StartChar: one
Encoding: 49 49 20
Width: 600
Flags: W
LayerCount: 2
Fore
SplineSet
450 1300 m 1,0,-1
 450 0 l 1,1,-1
 150 0 l 1,2,-1
 150 1000 l 1,3,-1
 0 1000 l 1,4,-1
 150 1300 l 1,5,-1
 450 1300 l 1,0,-1
EndSplineSet
EndChar

StartChar: two
Encoding: 50 50 21
Width: 1300
Flags: W
LayerCount: 2
Fore
SplineSet
1150 300 m 1,0,-1
 1150 0 l 1,1,-1
 0 0 l 1,2,-1
 0 400 l 2,3,4
 0 566 0 566 117 683 c 128,-1,5
 234 800 234 800 400 800 c 2,6,-1
 750 800 l 2,7,8
 791 800 791 800 820.5 829.5 c 128,-1,9
 850 859 850 859 850 900 c 256,10,11
 850 941 850 941 820.5 970.5 c 128,-1,12
 791 1000 791 1000 750 1000 c 2,13,-1
 150 1000 l 1,14,-1
 0 1300 l 1,15,-1
 750 1300 l 2,16,17
 916 1300 916 1300 1033 1183 c 128,-1,18
 1150 1066 1150 1066 1150 900 c 256,19,20
 1150 734 1150 734 1033 617 c 128,-1,21
 916 500 916 500 750 500 c 2,22,-1
 400 500 l 2,23,24
 359 500 359 500 329.5 470.5 c 128,-1,25
 300 441 300 441 300 400 c 2,26,-1
 300 300 l 1,27,-1
 1150 300 l 1,0,-1
EndSplineSet
EndChar

StartChar: three
Encoding: 51 51 22
Width: 1300
Flags: W
LayerCount: 2
Fore
SplineSet
300 700 m 1,0,-1
 250 800 l 1,1,-1
 750 800 l 2,2,3
 791 800 791 800 820.5 829.5 c 128,-1,4
 850 859 850 859 850 900 c 256,5,6
 850 941 850 941 820.5 970.5 c 128,-1,7
 791 1000 791 1000 750 1000 c 2,8,-1
 0 1000 l 1,9,-1
 0 1300 l 1,10,-1
 750 1300 l 2,11,12
 916 1300 916 1300 1033 1183 c 128,-1,13
 1150 1066 1150 1066 1150 900 c 0,14,15
 1150 757 1150 757 1063 650 c 1,16,17
 1150 543 1150 543 1150 400 c 0,18,19
 1150 234 1150 234 1033 117 c 128,-1,20
 916 0 916 0 750 0 c 2,21,-1
 0 0 l 1,22,-1
 0 300 l 1,23,-1
 750 300 l 2,24,25
 791 300 791 300 820.5 329.5 c 128,-1,26
 850 359 850 359 850 400 c 256,27,28
 850 441 850 441 820.5 470.5 c 128,-1,29
 791 500 791 500 750 500 c 2,30,-1
 400 500 l 1,31,-1
 300 700 l 1,0,-1
EndSplineSet
EndChar

StartChar: four
Encoding: 52 52 23
Width: 1250
Flags: W
LayerCount: 2
Fore
SplineSet
0 550 m 1,0,-1
 350 1300 l 1,1,-1
 700 1300 l 1,2,-1
 350 550 l 1,3,-1
 800 550 l 1,4,-1
 800 1300 l 1,5,-1
 1100 1300 l 1,6,-1
 1100 0 l 1,7,-1
 800 0 l 1,8,-1
 801 450 l 1,9,-1
 701 250 l 1,10,-1
 0 250 l 1,11,-1
 0 550 l 1,0,-1
EndSplineSet
EndChar

StartChar: five
Encoding: 53 53 24
Width: 1300
Flags: W
LayerCount: 2
Fore
SplineSet
750 300 m 2,0,1
 791 300 791 300 820.5 329.5 c 128,-1,2
 850 359 850 359 850 400 c 2,3,-1
 850 451 l 2,4,5
 850 491 850 491 820.5 520.5 c 128,-1,6
 791 550 791 550 750 550 c 2,7,-1
 0 550 l 1,8,-1
 0 1300 l 1,9,-1
 1150 1300 l 1,10,-1
 1000 1000 l 1,11,-1
 300 1000 l 1,12,-1
 300 850 l 1,13,-1
 750 850 l 2,14,15
 916 850 916 850 1033 733 c 128,-1,16
 1150 616 1150 616 1150 450 c 2,17,-1
 1150 400 l 2,18,19
 1150 234 1150 234 1033 117 c 128,-1,20
 916 0 916 0 750 0 c 2,21,-1
 0 0 l 1,22,-1
 0 300 l 1,23,-1
 750 300 l 2,0,1
EndSplineSet
EndChar

StartChar: six
Encoding: 54 54 25
Width: 1300
Flags: W
LayerCount: 2
Fore
SplineSet
750 300 m 2,0,1
 791 300 791 300 820.5 329.5 c 128,-1,2
 850 359 850 359 850 400 c 2,3,-1
 850 446 l 2,4,5
 850 491 850 491 820.5 520.5 c 128,-1,6
 791 550 791 550 750 550 c 2,7,-1
 400 550 l 1,8,-1
 300 750 l 1,9,-1
 300 400 l 2,10,11
 300 359 300 359 329.5 329.5 c 128,-1,12
 359 300 359 300 400 300 c 2,13,-1
 750 300 l 2,0,1
400 0 m 2,14,15
 234 0 234 0 117 117 c 128,-1,16
 0 234 0 234 0 400 c 2,17,-1
 0 900 l 2,18,19
 0 1066 0 1066 117 1183 c 128,-1,20
 234 1300 234 1300 400 1300 c 2,21,-1
 1050 1300 l 1,22,-1
 900 1000 l 1,23,-1
 400 1000 l 2,24,25
 359 1000 359 1000 329.5 970.5 c 128,-1,26
 300 941 300 941 300 900 c 2,27,-1
 300 850 l 1,28,-1
 750 850 l 2,29,30
 916 850 916 850 1033 733 c 128,-1,31
 1150 616 1150 616 1150 450 c 2,32,-1
 1150 400 l 2,33,34
 1150 234 1150 234 1033 117 c 128,-1,35
 916 0 916 0 750 0 c 2,36,-1
 400 0 l 2,14,15
EndSplineSet
EndChar

StartChar: seven
Encoding: 55 55 26
Width: 1150
Flags: W
LayerCount: 2
Fore
SplineSet
650 1000 m 1,0,-1
 0 1000 l 1,1,-1
 0 1300 l 1,2,-1
 1000 1300 l 1,3,-1
 1000 1000 l 1,4,-1
 350 0 l 1,5,-1
 0 0 l 1,6,-1
 650 1000 l 1,0,-1
EndSplineSet
EndChar

StartChar: eight
Encoding: 56 56 27
Width: 1300
Flags: W
LayerCount: 2
Fore
SplineSet
400 800 m 2,0,-1
 750 800 l 2,1,2
 791 800 791 800 820.5 829.5 c 128,-1,3
 850 859 850 859 850 900 c 256,4,5
 850 941 850 941 820.5 970.5 c 128,-1,6
 791 1000 791 1000 750 1000 c 2,7,-1
 400 1000 l 2,8,9
 359 1000 359 1000 329.5 970.5 c 128,-1,10
 300 941 300 941 300 900 c 256,11,12
 300 859 300 859 329.5 829.5 c 128,-1,13
 359 800 359 800 400 800 c 2,0,-1
400 0 m 2,14,15
 234 0 234 0 117 117 c 128,-1,16
 0 234 0 234 0 400 c 0,17,18
 0 543 0 543 87 650 c 1,19,20
 0 757 0 757 0 900 c 0,21,22
 0 1066 0 1066 117 1183 c 128,-1,23
 234 1300 234 1300 400 1300 c 2,24,-1
 750 1300 l 2,25,26
 916 1300 916 1300 1033 1183 c 128,-1,27
 1150 1066 1150 1066 1150 900 c 0,28,29
 1150 757 1150 757 1063 650 c 1,30,31
 1150 543 1150 543 1150 400 c 0,32,33
 1150 234 1150 234 1033 117 c 128,-1,34
 916 0 916 0 750 0 c 2,35,-1
 400 0 l 2,14,15
400 500 m 2,36,37
 359 500 359 500 329.5 470.5 c 128,-1,38
 300 441 300 441 300 400 c 256,39,40
 300 359 300 359 329.5 329.5 c 128,-1,41
 359 300 359 300 400 300 c 2,42,-1
 750 300 l 2,43,44
 791 300 791 300 820.5 329.5 c 128,-1,45
 850 359 850 359 850 400 c 256,46,47
 850 441 850 441 820.5 470.5 c 128,-1,48
 791 500 791 500 750 500 c 2,49,-1
 400 500 l 2,36,37
EndSplineSet
EndChar

StartChar: nine
Encoding: 57 57 28
Width: 1300
Flags: W
LayerCount: 2
Fore
SplineSet
400 1000 m 2,0,1
 359 1000 359 1000 329.5 970.5 c 128,-1,2
 300 941 300 941 300 900 c 2,3,-1
 300 855 l 2,4,5
 300 809 300 809 329.5 779.5 c 128,-1,6
 359 750 359 750 400 750 c 2,7,-1
 750 750 l 1,8,-1
 850 550 l 1,9,-1
 850 900 l 2,10,11
 850 941 850 941 820.5 970.5 c 128,-1,12
 791 1000 791 1000 750 1000 c 2,13,-1
 400 1000 l 2,0,1
750 1300 m 2,14,15
 916 1300 916 1300 1033 1183 c 128,-1,16
 1150 1066 1150 1066 1150 900 c 2,17,-1
 1150 400 l 2,18,19
 1150 234 1150 234 1033 117 c 128,-1,20
 916 0 916 0 750 0 c 2,21,-1
 100 0 l 1,22,-1
 250 300 l 1,23,-1
 750 300 l 2,24,25
 791 300 791 300 820.5 329.5 c 128,-1,26
 850 359 850 359 850 400 c 2,27,-1
 850 450 l 1,28,-1
 400 450 l 2,29,30
 234 450 234 450 117 567 c 128,-1,31
 0 684 0 684 0 850 c 2,32,-1
 0 900 l 2,33,34
 0 1066 0 1066 117 1183 c 128,-1,35
 234 1300 234 1300 400 1300 c 2,36,-1
 750 1300 l 2,14,15
EndSplineSet
EndChar

StartChar: colon
Encoding: 58 58 29
Width: 450
Flags: W
LayerCount: 2
Fore
SplineSet
0 800 m 1,0,-1
 300 800 l 1,1,-1
 300 500 l 1,2,-1
 0 500 l 1,3,-1
 0 800 l 1,0,-1
0 300 m 1,4,-1
 300 300 l 1,5,-1
 300 0 l 1,6,-1
 1 0 l 1,7,-1
 0 300 l 1,4,-1
EndSplineSet
EndChar

StartChar: semicolon
Encoding: 59 59 30
AltUni2: 00037e.ffffffff.0
Width: 450
Flags: W
LayerCount: 2
Fore
SplineSet
0 300 m 1,0,-1
 300 300 l 1,1,-1
 300 0 l 1,2,-1
 150 -250 l 1,3,-1
 0 -250 l 1,4,-1
 0 300 l 1,0,-1
0 800 m 1,5,-1
 300 800 l 1,6,-1
 300 500 l 1,7,-1
 0 500 l 1,8,-1
 0 800 l 1,5,-1
EndSplineSet
EndChar

StartChar: less
Encoding: 60 60 31
Width: 850
Flags: W
LayerCount: 2
Fore
SplineSet
350 650 m 1,0,-1
 700 150 l 1,1,-1
 350 150 l 1,2,-1
 0 650 l 1,3,-1
 350 1150 l 1,4,-1
 700 1150 l 1,5,-1
 350 650 l 1,0,-1
EndSplineSet
EndChar

StartChar: equal
Encoding: 61 61 32
Width: 1000
Flags: W
LayerCount: 2
Fore
SplineSet
0 1050 m 1,0,-1
 851 1050 l 1,1,-1
 851 750 l 1,2,-1
 0 750 l 1,3,-1
 0 1050 l 1,0,-1
0 550 m 1,4,-1
 851 550 l 1,5,-1
 851 250 l 1,6,-1
 0 250 l 1,7,-1
 0 550 l 1,4,-1
EndSplineSet
EndChar

StartChar: greater
Encoding: 62 62 33
Width: 850
Flags: W
LayerCount: 2
Fore
SplineSet
0 1150 m 1,0,-1
 350 1150 l 1,1,-1
 700 650 l 1,2,-1
 350 150 l 1,3,-1
 0 150 l 1,4,-1
 350 650 l 1,5,-1
 0 1150 l 1,0,-1
EndSplineSet
EndChar

StartChar: question
Encoding: 63 63 34
Width: 1300
Flags: W
LayerCount: 2
Fore
SplineSet
150 400 m 1,0,1
 150 566 150 566 267 683 c 128,-1,2
 384 800 384 800 550 800 c 2,3,-1
 750 800 l 2,4,5
 791 800 791 800 820.5 829.5 c 128,-1,6
 850 859 850 859 850 900 c 256,7,8
 850 941 850 941 820.5 970.5 c 128,-1,9
 791 1000 791 1000 750 1000 c 2,10,-1
 150 1000 l 1,11,-1
 0 1300 l 1,12,-1
 750 1300 l 2,13,14
 916 1300 916 1300 1033 1183 c 128,-1,15
 1150 1066 1150 1066 1150 900 c 256,16,17
 1150 734 1150 734 1033 617 c 128,-1,18
 916 500 916 500 750 500 c 2,19,-1
 550 500 l 2,20,21
 509 500 509 500 479.5 470.5 c 128,-1,22
 450 441 450 441 450 400 c 1,23,-1
 150 400 l 1,0,1
150 0 m 1,24,-1
 150 300 l 1,25,-1
 450 300 l 1,26,-1
 450 0 l 1,27,-1
 150 0 l 1,24,-1
EndSplineSet
EndChar

StartChar: at
Encoding: 64 64 35
Width: 1550
Flags: W
LayerCount: 2
Fore
SplineSet
675 1225 m 1,0,-1
 675 75 l 1,1,2
 550 275 550 275 275 300 c 1,3,4
 550 601 550 601 675 1225 c 1,0,-1
1125 300 m 1,6,7
 850 275 850 275 725 75 c 1,8,-1
 725 1225 l 1,9,5
 850 601 850 601 1125 300 c 1,6,7
700 0 m 256,10,11
 410 0 410 0 205 190.5 c 128,-1,12
 0 381 0 381 0 650 c 256,13,14
 0 919 0 919 205 1109.5 c 128,-1,15
 410 1300 410 1300 700 1300 c 256,16,17
 990 1300 990 1300 1195 1109.5 c 128,-1,18
 1400 919 1400 919 1400 650 c 256,19,20
 1400 381 1400 381 1195 190.5 c 128,-1,21
 990 0 990 0 700 0 c 256,10,11
1177.5 208 m 128,-1,23
 1375 391 1375 391 1375 650 c 256,24,25
 1375 909 1375 909 1177.5 1092 c 128,-1,26
 980 1275 980 1275 700 1275 c 256,27,28
 420 1275 420 1275 222.5 1092 c 128,-1,29
 25 909 25 909 25 650 c 256,30,31
 25 391 25 391 222.5 208 c 128,-1,32
 420 25 420 25 700 25 c 256,33,22
 980 25 980 25 1177.5 208 c 128,-1,23
EndSplineSet
EndChar

StartChar: A
Encoding: 65 65 36
Width: 1350
Flags: W
LayerCount: 2
Fore
SplineSet
550 246 m 1,0,-1
 350 0 l 1,1,-1
 0 0 l 1,2,-1
 900 1310 l 1,3,-1
 1250 1310 l 1,4,-1
 1250 0 l 1,5,-1
 667 0 l 1,6,-1
 666 2 l 1,7,-1
 666 2 l 1,8,-1
 550 246 l 1,0,-1
922 306 m 1,9,-1
 934 818 l 1,10,-1
 598 310 l 1,11,-1
 922 306 l 1,9,-1
EndSplineSet
EndChar

StartChar: B
Encoding: 66 66 37
Width: 1300
Flags: W
LayerCount: 2
Fore
SplineSet
300 700 m 1,0,-1
 300 300 l 1,1,-1
 750 300 l 2,2,3
 791 300 791 300 820.5 329.5 c 128,-1,4
 850 359 850 359 850 400 c 256,5,6
 850 441 850 441 820.5 470.5 c 128,-1,7
 791 500 791 500 750 500 c 2,8,-1
 400 500 l 1,9,-1
 300 700 l 1,0,-1
300 1000 m 1,10,-1
 300 800 l 1,11,-1
 750 800 l 2,12,13
 791 800 791 800 820.5 829.5 c 128,-1,14
 850 859 850 859 850 900 c 256,15,16
 850 941 850 941 820.5 970.5 c 128,-1,17
 791 1000 791 1000 750 1000 c 2,18,-1
 300 1000 l 1,10,-1
750 1300 m 2,19,20
 916 1300 916 1300 1033 1183 c 128,-1,21
 1150 1066 1150 1066 1150 900 c 0,22,23
 1150 757 1150 757 1063 650 c 1,24,25
 1150 543 1150 543 1150 400 c 0,26,27
 1150 234 1150 234 1033 117 c 128,-1,28
 916 0 916 0 750 0 c 2,29,-1
 0 0 l 1,30,-1
 0 1300 l 1,31,-1
 750 1300 l 2,19,20
EndSplineSet
EndChar

StartChar: C
Encoding: 67 67 38
Width: 1350
Flags: W
LayerCount: 2
Fore
SplineSet
600 300 m 2,0,-1
 1200 300 l 1,1,-1
 1200 0 l 1,2,-1
 600 0 l 2,3,4
 351 0 351 0 175.5 190.5 c 128,-1,5
 0 381 0 381 0 650 c 256,6,7
 0 919 0 919 176 1110 c 0,8,9
 351 1300 351 1300 599 1300 c 2,10,-1
 1200 1300 l 1,11,-1
 1100 1000 l 1,12,-1
 600 1000 l 2,13,14
 476 1000 476 1000 388 897.5 c 128,-1,15
 300 795 300 795 300 650 c 256,16,17
 300 505 300 505 388 402.5 c 128,-1,18
 476 300 476 300 600 300 c 2,0,-1
EndSplineSet
EndChar

StartChar: D
Encoding: 68 68 39
Width: 1250
Flags: W
LayerCount: 2
Fore
SplineSet
500 1300 m 2,0,1
 749 1300 749 1300 924.5 1109.5 c 128,-1,2
 1100 919 1100 919 1100 650 c 256,3,4
 1100 381 1100 381 924.5 190.5 c 128,-1,5
 749 0 749 0 500 0 c 2,6,-1
 0 0 l 1,7,-1
 0 1300 l 1,8,-1
 500 1300 l 2,0,1
300 300 m 1,9,-1
 500 300 l 2,10,11
 624 300 624 300 712 402.5 c 128,-1,12
 800 505 800 505 800 650 c 256,13,14
 800 795 800 795 712 897.5 c 128,-1,15
 624 1000 624 1000 500 1000 c 2,16,-1
 300 1000 l 1,17,-1
 300 300 l 1,9,-1
EndSplineSet
EndChar

StartChar: E
Encoding: 69 69 40
Width: 1150
Flags: W
LayerCount: 2
Fore
SplineSet
0 1300 m 25,0,-1
 999 1300 l 25,1,-1
 849 999 l 25,2,-1
 393 1000 l 25,3,-1
 395 799 l 25,4,-1
 850 800 l 25,5,-1
 850 500 l 25,6,-1
 395 500 l 25,7,-1
 396 300 l 25,8,-1
 998 299 l 25,9,-1
 998 0 l 25,10,-1
 0 0 l 25,11,-1
 0 1300 l 25,0,-1
0 0 m 1025,12,-1
0 1300 m 1,13,-1
 1000 1300 l 1025,14,-1
1000 0 m 1,15,-1
 1 0 l 1025,16,-1
EndSplineSet
EndChar

StartChar: F
Encoding: 70 70 41
Width: 1150
Flags: W
LayerCount: 2
Fore
SplineSet
300 800 m 1,0,-1
 850 800 l 1,1,-1
 850 500 l 1,2,-1
 300 500 l 1,3,-1
 300 0 l 1,4,-1
 0 0 l 1,5,-1
 0 1300 l 1,6,-1
 1000 1300 l 1,7,-1
 850 1000 l 1,8,-1
 300 1000 l 1,9,-1
 300 800 l 1,0,-1
EndSplineSet
EndChar

StartChar: G
Encoding: 71 71 42
Width: 1350
Flags: W
LayerCount: 2
Fore
SplineSet
1200 0 m 1,0,-1
 600 0 l 2,1,2
 351 0 351 0 175.5 190.5 c 128,-1,3
 0 381 0 381 0 650 c 256,4,5
 0 919 0 919 176 1110 c 0,6,7
 351 1300 351 1300 599 1300 c 2,8,-1
 1200 1300 l 1,9,-1
 1100 1000 l 1,10,-1
 600 1000 l 2,11,12
 476 1000 476 1000 388 897.5 c 128,-1,13
 300 795 300 795 300 650 c 256,14,15
 300 505 300 505 388 402.5 c 128,-1,16
 476 300 476 300 600 300 c 2,17,-1
 900 300 l 1,18,-1
 900 500 l 1,19,-1
 600 500 l 1,20,-1
 600 800 l 1,21,-1
 1200 800 l 1,22,-1
 1200 0 l 1,0,-1
EndSplineSet
EndChar

StartChar: H
Encoding: 72 72 43
Width: 1250
Flags: W
LayerCount: 2
Fore
SplineSet
300 500 m 1,0,-1
 300 0 l 1,1,-1
 0 0 l 1,2,-1
 0 1300 l 1,3,-1
 300 1300 l 1,4,-1
 300 800 l 1,5,-1
 800 800 l 1,6,-1
 800 1300 l 1,7,-1
 1100 1300 l 1,8,-1
 1100 0 l 1,9,-1
 800 0 l 1,10,-1
 800 698 l 1,11,-1
 701 500 l 1,12,-1
 300 500 l 1,0,-1
EndSplineSet
EndChar

StartChar: I
Encoding: 73 73 44
Width: 450
Flags: W
LayerCount: 2
Fore
SplineSet
300 0 m 1,0,-1
 0 0 l 1,1,-1
 0 1300 l 1,2,-1
 300 1300 l 1,3,-1
 300 0 l 1,0,-1
EndSplineSet
EndChar

StartChar: J
Encoding: 74 74 45
Width: 900
Flags: W
LayerCount: 2
Fore
SplineSet
150 300 m 2,0,1
 274 300 274 300 362 402.5 c 128,-1,2
 450 505 450 505 450 650 c 2,3,-1
 450 1300 l 1,4,-1
 750 1300 l 1,5,-1
 750 650 l 2,6,7
 750 381 750 381 574.5 190.5 c 128,-1,8
 399 0 399 0 150 0 c 2,9,-1
 0 0 l 1,10,-1
 0 300 l 1,11,-1
 150 300 l 2,0,1
EndSplineSet
EndChar

StartChar: K
Encoding: 75 75 46
Width: 1300
Flags: W
LayerCount: 2
Fore
SplineSet
300 750 m 1,0,-1
 699 1300 l 1,1,-1
 1100 1299 l 1,2,-1
 650 700 l 1,3,-1
 1150 0 l 1,4,-1
 750 0 l 1,5,-1
 300 643 l 1,6,-1
 300 0 l 1,7,-1
 0 0 l 1,8,-1
 0 1300 l 1,9,-1
 300 1300 l 1,10,-1
 300 750 l 1,0,-1
EndSplineSet
EndChar

StartChar: L
Encoding: 76 76 47
Width: 1150
Flags: W
LayerCount: 2
Fore
SplineSet
300 300 m 1,0,-1
 1000 300 l 1,1,-1
 1000 0 l 1,2,-1
 1 0 l 1,3,-1
 0 200 l 1,4,-1
 0 1300 l 1,5,-1
 300 1300 l 1,6,-1
 300 300 l 1,0,-1
EndSplineSet
EndChar

StartChar: M
Encoding: 77 77 48
Width: 1600
Flags: W
LayerCount: 2
Fore
SplineSet
300 722 m 1,0,-1
 300 0 l 1,1,-1
 0 0 l 1,2,-1
 0 1300 l 1,3,-1
 450 1300 l 1,4,-1
 725 506 l 1,5,-1
 1000 1300 l 1,6,-1
 1450 1300 l 1,7,-1
 1450 0 l 1,8,-1
 1150 0 l 1,9,-1
 1150 722 l 1,10,-1
 900 0 l 1,11,-1
 550 0 l 1,12,-1
 300 722 l 1,0,-1
EndSplineSet
EndChar

StartChar: N
Encoding: 78 78 49
Width: 1300
Flags: W
LayerCount: 2
Fore
SplineSet
0 1300 m 1,0,-1
 300 1300 l 1,1,-1
 850 506 l 1,2,-1
 850 1300 l 1,3,-1
 1150 1300 l 1,4,-1
 1150 0 l 1,5,-1
 850 0 l 1,6,-1
 300 794 l 1,7,-1
 300 0 l 1,8,-1
 0 0 l 1,9,-1
 0 1300 l 1,0,-1
EndSplineSet
EndChar

StartChar: O
Encoding: 79 79 50
Width: 1350
Flags: W
LayerCount: 2
Fore
SplineSet
1024.5 1109.5 m 128,-1,1
 1200 919 1200 919 1200 650 c 256,2,3
 1200 381 1200 381 1024.5 190.5 c 128,-1,4
 849 0 849 0 600 0 c 256,5,6
 351 0 351 0 175.5 190.5 c 128,-1,7
 0 381 0 381 0 650 c 256,8,9
 0 919 0 919 175.5 1109.5 c 128,-1,10
 351 1300 351 1300 600 1300 c 256,11,0
 849 1300 849 1300 1024.5 1109.5 c 128,-1,1
388 897.5 m 128,-1,13
 300 795 300 795 300 650 c 256,14,15
 300 505 300 505 388 402.5 c 128,-1,16
 476 300 476 300 600 300 c 256,17,18
 724 300 724 300 812 402.5 c 128,-1,19
 900 505 900 505 900 650 c 256,20,21
 900 795 900 795 812 897.5 c 128,-1,22
 724 1000 724 1000 600 1000 c 256,23,12
 476 1000 476 1000 388 897.5 c 128,-1,13
EndSplineSet
EndChar

StartChar: P
Encoding: 80 80 51
Width: 1300
Flags: W
LayerCount: 2
Fore
SplineSet
300 650 m 1,0,-1
 300 0 l 1,1,-1
 0 0 l 1,2,-1
 0 1300 l 1,3,-1
 750 1300 l 2,4,5
 916 1300 916 1300 1033 1175.5 c 128,-1,6
 1150 1051 1150 1051 1150 875 c 256,7,8
 1150 699 1150 699 1033 574.5 c 128,-1,9
 916 450 916 450 750 450 c 2,10,-1
 400 450 l 1,11,-1
 300 650 l 1,0,-1
750 750 m 2,12,13
 791 750 791 750 820.5 786.5 c 128,-1,14
 850 823 850 823 850 875 c 256,15,16
 850 927 850 927 820.5 963.5 c 128,-1,17
 791 1000 791 1000 750 1000 c 2,18,-1
 300 1000 l 1,19,-1
 300 750 l 1,20,-1
 750 750 l 2,12,13
EndSplineSet
EndChar

StartChar: Q
Encoding: 81 81 52
Width: 1350
Flags: W
LayerCount: 2
Fore
SplineSet
309 737 m 1,0,1
 300 696 300 696 300 650 c 0,2,3
 300 505 300 505 388 402.5 c 128,-1,4
 476 300 476 300 600 300 c 1,5,-1
 309 737 l 1,0,1
781 28 m 1,6,7
 696 0 696 0 600 0 c 0,8,9
 351 0 351 0 175.5 190.5 c 128,-1,10
 0 381 0 381 0 650 c 256,11,12
 0 919 0 919 175.5 1109.5 c 128,-1,13
 351 1300 351 1300 600 1300 c 256,14,15
 849 1300 849 1300 1024.5 1109.5 c 128,-1,16
 1200 919 1200 919 1200 650 c 0,17,18
 1200 403 1200 403 1052 222 c 1,19,-1
 1200 0 l 1,20,-1
 800 0 l 1,21,-1
 781 28 l 1,6,7
870 495 m 1,22,23
 900 565 900 565 900 650 c 0,24,25
 900 795 900 795 812 897.5 c 128,-1,26
 724 1000 724 1000 600 1000 c 256,27,28
 476 1000 476 1000 388 898 c 0,29,30
 332 832 332 832 312 750 c 1,31,-1
 700 750 l 1,32,-1
 870 495 l 1,22,23
EndSplineSet
EndChar

StartChar: R
Encoding: 82 82 53
Width: 1300
Flags: W
LayerCount: 2
Fore
SplineSet
750 750 m 2,0,1
 791 750 791 750 820.5 786.5 c 128,-1,2
 850 823 850 823 850 875 c 256,3,4
 850 927 850 927 820.5 963.5 c 128,-1,5
 791 1000 791 1000 750 1000 c 2,6,-1
 300 1000 l 1,7,-1
 300 750 l 1,8,-1
 750 750 l 2,0,1
300 643 m 1,9,-1
 300 0 l 1,10,-1
 0 0 l 1,11,-1
 0 1300 l 1,12,-1
 750 1300 l 2,13,14
 916 1300 916 1300 1033 1175.5 c 128,-1,15
 1150 1051 1150 1051 1150 875 c 256,16,17
 1150 699 1150 699 1033 575 c 0,18,19
 945 481 945 481 830 458 c 1,20,-1
 1150 0 l 1,21,-1
 750 0 l 1,22,-1
 300 643 l 1,9,-1
EndSplineSet
EndChar

StartChar: S
Encoding: 83 83 54
Width: 1300
Flags: W
LayerCount: 2
Fore
SplineSet
750 300 m 2,0,1
 791 300 791 300 820.5 329.5 c 128,-1,2
 850 359 850 359 850 400 c 256,3,4
 850 441 850 441 820.5 470.5 c 128,-1,5
 791 500 791 500 750 500 c 2,6,-1
 400 500 l 2,7,8
 234 500 234 500 117 617 c 128,-1,9
 0 734 0 734 0 900 c 256,10,11
 0 1066 0 1066 117 1183 c 128,-1,12
 234 1300 234 1300 400 1300 c 2,13,-1
 1150 1300 l 1,14,-1
 1000 1000 l 1,15,-1
 400 1000 l 2,16,17
 359 1000 359 1000 329.5 970.5 c 128,-1,18
 300 941 300 941 300 900 c 256,19,20
 300 859 300 859 329.5 829.5 c 128,-1,21
 359 800 359 800 400 800 c 2,22,-1
 750 800 l 2,23,24
 916 800 916 800 1033 683 c 128,-1,25
 1150 566 1150 566 1150 400 c 256,26,27
 1150 234 1150 234 1033 117 c 128,-1,28
 916 0 916 0 750 0 c 2,29,-1
 0 0 l 1,30,-1
 0 300 l 1,31,-1
 750 300 l 2,0,1
EndSplineSet
EndChar

StartChar: T
Encoding: 84 84 55
Width: 1150
Flags: W
LayerCount: 2
Fore
SplineSet
350 1000 m 1,0,-1
 0 1000 l 1,1,-1
 0 1300 l 1,2,-1
 1000 1300 l 1,3,-1
 850 1000 l 1,4,-1
 650 1000 l 1,5,-1
 650 0 l 1,6,-1
 351 0 l 1,7,-1
 350 1000 l 1,0,-1
EndSplineSet
EndChar

StartChar: U
Encoding: 85 85 56
Width: 1350
Flags: W
LayerCount: 2
Fore
SplineSet
0 650 m 2,0,-1
 0 1300 l 1,1,-1
 300 1300 l 1,2,-1
 300 650 l 2,3,4
 300 505 300 505 388 402.5 c 128,-1,5
 476 300 476 300 600 300 c 256,6,7
 724 300 724 300 812 402.5 c 128,-1,8
 900 505 900 505 900 650 c 2,9,-1
 900 1300 l 1,10,-1
 1200 1300 l 1,11,-1
 1200 650 l 2,12,13
 1200 381 1200 381 1024.5 190.5 c 128,-1,14
 849 0 849 0 600 0 c 256,15,16
 351 0 351 0 175.5 190.5 c 128,-1,17
 0 381 0 381 0 650 c 2,0,-1
EndSplineSet
EndChar

StartChar: V
Encoding: 86 86 57
Width: 1350
Flags: W
LayerCount: 2
Fore
SplineSet
450 0 m 1,0,-1
 0 1300 l 1,1,-1
 350 1300 l 1,2,-1
 625 506 l 1,3,-1
 900 1300 l 1,4,-1
 1250 1300 l 1,5,-1
 800 0 l 1,6,-1
 450 0 l 1,0,-1
EndSplineSet
EndChar

StartChar: W
Encoding: 87 87 58
Width: 2050
Flags: W
LayerCount: 2
Fore
SplineSet
975 731 m 1,0,-1
 750 0 l 1,1,-1
 400 0 l 1,2,-1
 0 1300 l 1,3,-1
 350 1300 l 1,4,-1
 575 506 l 1,5,-1
 800 1300 l 1,6,-1
 1150 1300 l 1,7,-1
 1375 506 l 1,8,-1
 1600 1300 l 1,9,-1
 1950 1300 l 1,10,-1
 1550 0 l 1,11,-1
 1200 0 l 1,12,-1
 975 731 l 1,0,-1
EndSplineSet
EndChar

StartChar: X
Encoding: 88 88 59
Width: 1350
Flags: W
LayerCount: 2
Fore
SplineSet
800 650 m 1,0,-1
 1250 0 l 1,1,-1
 900 0 l 1,2,-1
 625 397 l 1,3,-1
 350 0 l 1,4,-1
 0 0 l 1,5,-1
 450 650 l 1,6,-1
 0 1300 l 1,7,-1
 350 1300 l 1,8,-1
 625 903 l 1,9,-1
 900 1300 l 1,10,-1
 1250 1300 l 1,11,-1
 800 650 l 1,0,-1
EndSplineSet
EndChar

StartChar: Y
Encoding: 89 89 60
Width: 1350
Flags: W
LayerCount: 2
Fore
SplineSet
475 614 m 1,0,-1
 450 650 l 1,1,-1
 0 1300 l 1,2,-1
 350 1300 l 1,3,-1
 625 903 l 1,4,-1
 900 1300 l 1,5,-1
 1250 1300 l 1,6,-1
 800 650 l 1,7,-1
 775 614 l 1,8,-1
 775 0 l 1,9,-1
 475 0 l 1,10,-1
 475 614 l 1,0,-1
EndSplineSet
EndChar

StartChar: Z
Encoding: 90 90 61
Width: 1150
Flags: W
LayerCount: 2
Fore
SplineSet
600 1000 m 1,0,-1
 0 1000 l 1,1,-1
 0 1300 l 1,2,-1
 1000 1300 l 1,3,-1
 1000 1000 l 1,4,-1
 400 300 l 1,5,-1
 1000 300 l 1,6,-1
 1000 0 l 1,7,-1
 1 0 l 1,8,-1
 0 300 l 1,9,-1
 600 1000 l 1,0,-1
EndSplineSet
EndChar

StartChar: bracketleft
Encoding: 91 91 62
Width: 900
Flags: W
LayerCount: 2
Fore
SplineSet
0 1500 m 1,0,-1
 750 1500 l 1,1,-1
 650 1200 l 1,2,-1
 300 1200 l 1,3,-1
 300 100 l 1,4,-1
 750 100 l 1,5,-1
 750 -200 l 1,6,-1
 0 -200 l 1,7,-1
 0 1500 l 1,0,-1
EndSplineSet
EndChar

StartChar: backslash
Encoding: 92 92 63
Width: 1350
Flags: W
LayerCount: 2
Fore
SplineSet
1250 0 m 1,0,-1
 900 0 l 1,1,-1
 0 1300 l 1,2,-1
 350 1300 l 1,3,-1
 1250 0 l 1,0,-1
EndSplineSet
EndChar

StartChar: bracketright
Encoding: 93 93 64
Width: 900
Flags: W
LayerCount: 2
Fore
SplineSet
750 -200 m 1,0,-1
 0 -200 l 1,1,-1
 0 100 l 1,2,-1
 450 100 l 1,3,-1
 450 1200 l 1,4,-1
 100 1200 l 1,5,-1
 0 1500 l 1,6,-1
 750 1500 l 1,7,-1
 750 -200 l 1,0,-1
EndSplineSet
EndChar

StartChar: asciicircum
Encoding: 94 94 65
Width: 1000
Flags: W
LayerCount: 2
Fore
SplineSet
600 1750 m 1,0,-1
 850 1400 l 1,1,-1
 500 1400 l 1,2,-1
 425 1497 l 1,3,-1
 350 1400 l 1,4,-1
 0 1400 l 1,5,-1
 250 1750 l 1,6,-1
 600 1750 l 1,0,-1
EndSplineSet
EndChar

StartChar: underscore
Encoding: 95 95 66
Width: 1150
Flags: W
LayerCount: 2
Fore
SplineSet
0 -100 m 1,0,-1
 1000 -100 l 1,1,-1
 1000 -400 l 1,2,-1
 1 -400 l 1,3,-1
 0 -100 l 1,0,-1
EndSplineSet
EndChar

StartChar: grave
Encoding: 96 96 67
Width: 750
Flags: W
LayerCount: 2
Fore
SplineSet
350 1750 m 1,0,-1
 600 1400 l 1,1,-1
 250 1400 l 1,2,-1
 0 1750 l 1,3,-1
 350 1750 l 1,0,-1
EndSplineSet
EndChar

StartChar: a
Encoding: 97 97 68
Width: 1080
Flags: W
LayerCount: 2
Fore
SplineSet
395 331 m 1,0,-1
 280 0 l 1,1,-1
 0 0 l 1,2,-1
 360 1040 l 1,3,-1
 640 1040 l 1,4,-1
 1000 0 l 1,5,-1
 720 0 l 1,6,-1
 665 160 l 1,7,-1
 480 160 l 1,8,-1
 395 331 l 1,0,-1
581 400 m 1,9,-1
 500 635 l 1,10,-1
 419 400 l 1,11,-1
 581 400 l 1,9,-1
EndSplineSet
EndChar

StartChar: b
Encoding: 98 98 69
Width: 1040
Flags: W
LayerCount: 2
Fore
SplineSet
240 560 m 1,0,-1
 240 240 l 1,1,-1
 600 240 l 2,2,3
 633 240 633 240 656.5 263.5 c 128,-1,4
 680 287 680 287 680 320 c 256,5,6
 680 353 680 353 656.5 376.5 c 128,-1,7
 633 400 633 400 600 400 c 2,8,-1
 320 400 l 1,9,-1
 240 560 l 1,0,-1
240 800 m 1,10,-1
 240 640 l 1,11,-1
 600 640 l 2,12,13
 633 640 633 640 656.5 663.5 c 128,-1,14
 680 687 680 687 680 720 c 256,15,16
 680 753 680 753 656.5 776.5 c 128,-1,17
 633 800 633 800 600 800 c 2,18,-1
 240 800 l 1,10,-1
600 1040 m 2,19,20
 733 1040 733 1040 826.5 946.5 c 128,-1,21
 920 853 920 853 920 720 c 0,22,23
 920 606 920 606 850 520 c 1,24,25
 920 434 920 434 920 320 c 0,26,27
 920 187 920 187 826.5 93.5 c 128,-1,28
 733 0 733 0 600 0 c 2,29,-1
 0 0 l 1,30,-1
 0 1040 l 1,31,-1
 600 1040 l 2,19,20
EndSplineSet
EndChar

StartChar: c
Encoding: 99 99 70
Width: 1080
Flags: W
LayerCount: 2
Fore
SplineSet
480 240 m 2,0,-1
 960 240 l 1,1,-1
 960 0 l 1,2,-1
 480 0 l 2,3,4
 281 0 281 0 140.5 152.5 c 128,-1,5
 0 305 0 305 0 520 c 256,6,7
 0 735 0 735 140 888 c 0,8,9
 281 1040 281 1040 479 1040 c 2,10,-1
 960 1040 l 1,11,-1
 880 800 l 1,12,-1
 480 800 l 2,13,14
 381 800 381 800 310.5 718 c 128,-1,15
 240 636 240 636 240 520 c 256,16,17
 240 404 240 404 310.5 322 c 128,-1,18
 381 240 381 240 480 240 c 2,0,-1
EndSplineSet
EndChar

StartChar: d
Encoding: 100 100 71
Width: 1000
Flags: W
LayerCount: 2
Fore
SplineSet
400 1040 m 2,0,1
 599 1040 599 1040 739.5 887.5 c 128,-1,2
 880 735 880 735 880 520 c 256,3,4
 880 305 880 305 739.5 152.5 c 128,-1,5
 599 0 599 0 400 0 c 2,6,-1
 0 0 l 1,7,-1
 0 1040 l 1,8,-1
 400 1040 l 2,0,1
240 240 m 1,9,-1
 400 240 l 2,10,11
 499 240 499 240 569.5 322 c 128,-1,12
 640 404 640 404 640 520 c 256,13,14
 640 636 640 636 569.5 718 c 128,-1,15
 499 800 499 800 400 800 c 2,16,-1
 240 800 l 1,17,-1
 240 240 l 1,9,-1
EndSplineSet
EndChar

StartChar: e
Encoding: 101 101 72
Width: 920
Flags: W
LayerCount: 2
Fore
SplineSet
800 1040 m 1,0,-1
 680 800 l 1,1,-1
 0 800 l 1,2,-1
 0 1040 l 1,3,-1
 800 1040 l 1,0,-1
0 640 m 1,4,-1
 681 640 l 1,5,-1
 681 400 l 1,6,-1
 0 400 l 1,7,-1
 0 640 l 1,4,-1
0 240 m 1,8,-1
 800 240 l 1,9,-1
 800 0 l 1,10,-1
 1 0 l 1,11,-1
 0 240 l 1,8,-1
EndSplineSet
EndChar

StartChar: f
Encoding: 102 102 73
Width: 920
Flags: W
LayerCount: 2
Fore
SplineSet
240 640 m 1,0,-1
 680 640 l 1,1,-1
 680 400 l 1,2,-1
 240 400 l 1,3,-1
 240 0 l 1,4,-1
 0 0 l 1,5,-1
 0 1040 l 1,6,-1
 800 1040 l 1,7,-1
 680 800 l 1,8,-1
 240 800 l 1,9,-1
 240 640 l 1,0,-1
EndSplineSet
EndChar

StartChar: g
Encoding: 103 103 74
Width: 1080
Flags: W
LayerCount: 2
Fore
SplineSet
960 0 m 1,0,-1
 480 0 l 2,1,2
 281 0 281 0 140.5 152.5 c 128,-1,3
 0 305 0 305 0 520 c 256,4,5
 0 735 0 735 141 888 c 0,6,7
 281 1040 281 1040 479 1040 c 2,8,-1
 960 1040 l 1,9,-1
 880 800 l 1,10,-1
 480 800 l 2,11,12
 381 800 381 800 310.5 718 c 128,-1,13
 240 636 240 636 240 520 c 256,14,15
 240 404 240 404 310.5 322 c 128,-1,16
 381 240 381 240 480 240 c 2,17,-1
 720 240 l 1,18,-1
 720 400 l 1,19,-1
 480 400 l 1,20,-1
 480 640 l 1,21,-1
 960 640 l 1,22,-1
 960 0 l 1,0,-1
EndSplineSet
EndChar

StartChar: h
Encoding: 104 104 75
Width: 1000
Flags: W
LayerCount: 2
Fore
SplineSet
240 400 m 1,0,-1
 240 0 l 1,1,-1
 0 0 l 1,2,-1
 0 1040 l 1,3,-1
 240 1040 l 1,4,-1
 240 640 l 1,5,-1
 640 640 l 1,6,-1
 640 1040 l 1,7,-1
 880 1040 l 1,8,-1
 880 0 l 1,9,-1
 640 0 l 1,10,-1
 640 558 l 1,11,-1
 561 400 l 1,12,-1
 240 400 l 1,0,-1
EndSplineSet
EndChar

StartChar: i
Encoding: 105 105 76
Width: 360
Flags: W
LayerCount: 2
Fore
SplineSet
240 0 m 1,0,-1
 0 0 l 1,1,-1
 0 1040 l 1,2,-1
 240 1040 l 1,3,-1
 240 0 l 1,0,-1
EndSplineSet
EndChar

StartChar: j
Encoding: 106 106 77
Width: 720
Flags: W
LayerCount: 2
Fore
SplineSet
120 240 m 2,0,1
 219 240 219 240 289.5 322 c 128,-1,2
 360 404 360 404 360 520 c 2,3,-1
 360 1040 l 1,4,-1
 600 1040 l 1,5,-1
 600 520 l 2,6,7
 600 305 600 305 459.5 152.5 c 128,-1,8
 319 0 319 0 120 0 c 2,9,-1
 0 0 l 1,10,-1
 0 240 l 1,11,-1
 120 240 l 2,0,1
EndSplineSet
EndChar

StartChar: k
Encoding: 107 107 78
Width: 1040
Flags: W
LayerCount: 2
Fore
SplineSet
240 600 m 1,0,-1
 560 1040 l 1,1,-1
 880 1040 l 1,2,-1
 520 560 l 1,3,-1
 920 0 l 1,4,-1
 600 0 l 1,5,-1
 240 514 l 1,6,-1
 240 0 l 1,7,-1
 0 0 l 1,8,-1
 0 1040 l 1,9,-1
 240 1040 l 1,10,-1
 240 600 l 1,0,-1
EndSplineSet
EndChar

StartChar: l
Encoding: 108 108 79
Width: 920
Flags: W
LayerCount: 2
Fore
SplineSet
240 240 m 1,0,-1
 800 240 l 1,1,-1
 800 0 l 1,2,-1
 1 0 l 1,3,-1
 0 160 l 1,4,-1
 0 1040 l 1,5,-1
 240 1040 l 1,6,-1
 240 240 l 1,0,-1
EndSplineSet
EndChar

StartChar: m
Encoding: 109 109 80
Width: 1280
Flags: W
LayerCount: 2
Fore
SplineSet
240 578 m 1,0,-1
 240 0 l 1,1,-1
 0 0 l 1,2,-1
 0 1040 l 1,3,-1
 360 1040 l 1,4,-1
 580 405 l 1,5,-1
 800 1040 l 1,6,-1
 1160 1040 l 1,7,-1
 1160 0 l 1,8,-1
 920 0 l 1,9,-1
 920 578 l 1,10,-1
 720 0 l 1,11,-1
 440 0 l 1,12,-1
 240 578 l 1,0,-1
EndSplineSet
EndChar

StartChar: n
Encoding: 110 110 81
Width: 1040
Flags: W
LayerCount: 2
Fore
SplineSet
0 1040 m 1,0,-1
 240 1040 l 1,1,-1
 680 404 l 1,2,-1
 680 1040 l 1,3,-1
 920 1040 l 1,4,-1
 920 0 l 1,5,-1
 680 0 l 1,6,-1
 240 636 l 1,7,-1
 240 0 l 1,8,-1
 0 0 l 1,9,-1
 0 1040 l 1,0,-1
EndSplineSet
EndChar

StartChar: o
Encoding: 111 111 82
Width: 1080
Flags: W
LayerCount: 2
Fore
SplineSet
819.5 887.5 m 128,-1,1
 960 735 960 735 960 520 c 256,2,3
 960 305 960 305 819.5 152.5 c 128,-1,4
 679 0 679 0 480 0 c 256,5,6
 281 0 281 0 140.5 152.5 c 128,-1,7
 0 305 0 305 0 520 c 256,8,9
 0 735 0 735 140.5 887.5 c 128,-1,10
 281 1040 281 1040 480 1040 c 256,11,0
 679 1040 679 1040 819.5 887.5 c 128,-1,1
310.5 718 m 128,-1,13
 240 636 240 636 240 520 c 256,14,15
 240 404 240 404 310.5 322 c 128,-1,16
 381 240 381 240 480 240 c 256,17,18
 579 240 579 240 649.5 322 c 128,-1,19
 720 404 720 404 720 520 c 256,20,21
 720 636 720 636 649.5 718 c 128,-1,22
 579 800 579 800 480 800 c 256,23,12
 381 800 381 800 310.5 718 c 128,-1,13
EndSplineSet
EndChar

StartChar: p
Encoding: 112 112 83
Width: 1040
Flags: W
LayerCount: 2
Fore
SplineSet
240 520 m 1,0,-1
 240 0 l 1,1,-1
 0 0 l 1,2,-1
 0 1040 l 1,3,-1
 600 1040 l 2,4,5
 733 1040 733 1040 826.5 940.5 c 128,-1,6
 920 841 920 841 920 700 c 256,7,8
 920 559 920 559 826.5 459.5 c 128,-1,9
 733 360 733 360 600 360 c 2,10,-1
 320 360 l 1,11,-1
 240 520 l 1,0,-1
600 600 m 2,12,13
 633 600 633 600 656.5 629 c 128,-1,14
 680 658 680 658 680 700 c 256,15,16
 680 742 680 742 656.5 771 c 128,-1,17
 633 800 633 800 600 800 c 2,18,-1
 240 800 l 1,19,-1
 240 600 l 1,20,-1
 600 600 l 2,12,13
EndSplineSet
EndChar

StartChar: q
Encoding: 113 113 84
Width: 1080
Flags: W
LayerCount: 2
Fore
SplineSet
247 590 m 1,0,1
 240 556 240 556 240 520 c 0,2,3
 240 404 240 404 310.5 322 c 128,-1,4
 381 240 381 240 480 240 c 1,5,-1
 247 590 l 1,0,1
625 23 m 1,6,7
 557 0 557 0 480 0 c 0,8,9
 281 0 281 0 140.5 152.5 c 128,-1,10
 0 305 0 305 0 520 c 256,11,12
 0 735 0 735 140.5 887.5 c 128,-1,13
 281 1040 281 1040 480 1040 c 256,14,15
 679 1040 679 1040 819.5 887.5 c 128,-1,16
 960 735 960 735 960 520 c 0,17,18
 960 322 960 322 842 178 c 1,19,-1
 960 0 l 1,20,-1
 640 0 l 1,21,-1
 625 23 l 1,6,7
696 396 m 1,22,23
 720 452 720 452 720 520 c 0,24,25
 720 636 720 636 649.5 718 c 128,-1,26
 579 800 579 800 480 800 c 256,27,28
 381 800 381 800 310 718 c 0,29,30
 266 666 266 666 249 600 c 1,31,-1
 560 600 l 1,32,-1
 696 396 l 1,22,23
EndSplineSet
EndChar

StartChar: r
Encoding: 114 114 85
Width: 1040
Flags: W
LayerCount: 2
Fore
SplineSet
600 600 m 2,0,1
 633 600 633 600 656.5 629 c 128,-1,2
 680 658 680 658 680 700 c 256,3,4
 680 742 680 742 656.5 771 c 128,-1,5
 633 800 633 800 600 800 c 2,6,-1
 240 800 l 1,7,-1
 240 600 l 1,8,-1
 600 600 l 2,0,1
240 514 m 1,9,-1
 240 0 l 1,10,-1
 0 0 l 1,11,-1
 0 1040 l 1,12,-1
 600 1040 l 2,13,14
 733 1040 733 1040 826.5 940.5 c 128,-1,15
 920 841 920 841 920 700 c 256,16,17
 920 559 920 559 826 460 c 0,18,19
 756 385 756 385 664 366 c 1,20,-1
 920 0 l 1,21,-1
 600 0 l 1,22,-1
 240 514 l 1,9,-1
EndSplineSet
EndChar

StartChar: s
Encoding: 115 115 86
Width: 1040
Flags: W
LayerCount: 2
Fore
SplineSet
600 240 m 2,0,1
 633 240 633 240 656.5 263.5 c 128,-1,2
 680 287 680 287 680 320 c 256,3,4
 680 353 680 353 656.5 376.5 c 128,-1,5
 633 400 633 400 600 400 c 2,6,-1
 320 400 l 2,7,8
 187 400 187 400 93.5 493.5 c 128,-1,9
 0 587 0 587 0 720 c 256,10,11
 0 853 0 853 93.5 946.5 c 128,-1,12
 187 1040 187 1040 320 1040 c 2,13,-1
 920 1040 l 1,14,-1
 800 800 l 1,15,-1
 320 800 l 2,16,17
 287 800 287 800 263.5 776.5 c 128,-1,18
 240 753 240 753 240 720 c 256,19,20
 240 687 240 687 263.5 663.5 c 128,-1,21
 287 640 287 640 320 640 c 2,22,-1
 600 640 l 2,23,24
 733 640 733 640 826.5 546.5 c 128,-1,25
 920 453 920 453 920 320 c 256,26,27
 920 187 920 187 826.5 93.5 c 128,-1,28
 733 0 733 0 600 0 c 2,29,-1
 0 0 l 1,30,-1
 0 240 l 1,31,-1
 600 240 l 2,0,1
EndSplineSet
EndChar

StartChar: t
Encoding: 116 116 87
Width: 920
Flags: W
LayerCount: 2
Fore
SplineSet
280 800 m 1,0,-1
 0 800 l 1,1,-1
 0 1040 l 1,2,-1
 800 1040 l 1,3,-1
 680 800 l 1,4,-1
 520 800 l 1,5,-1
 520 0 l 1,6,-1
 281 0 l 1,7,-1
 280 800 l 1,0,-1
EndSplineSet
EndChar

StartChar: u
Encoding: 117 117 88
Width: 1080
Flags: W
LayerCount: 2
Fore
SplineSet
0 520 m 2,0,-1
 0 1040 l 1,1,-1
 240 1040 l 1,2,-1
 240 520 l 2,3,4
 240 404 240 404 310.5 322 c 128,-1,5
 381 240 381 240 480 240 c 256,6,7
 579 240 579 240 649.5 322 c 128,-1,8
 720 404 720 404 720 520 c 2,9,-1
 720 1040 l 1,10,-1
 960 1040 l 1,11,-1
 960 520 l 2,12,13
 960 305 960 305 819.5 152.5 c 128,-1,14
 679 0 679 0 480 0 c 256,15,16
 281 0 281 0 140.5 152.5 c 128,-1,17
 0 305 0 305 0 520 c 2,0,-1
EndSplineSet
EndChar

StartChar: v
Encoding: 118 118 89
Width: 1080
Flags: W
LayerCount: 2
Fore
SplineSet
360 0 m 1,0,-1
 0 1040 l 1,1,-1
 280 1040 l 1,2,-1
 500 404 l 1,3,-1
 720 1040 l 1,4,-1
 1000 1040 l 1,5,-1
 640 0 l 1,6,-1
 360 0 l 1,0,-1
EndSplineSet
EndChar

StartChar: w
Encoding: 119 119 90
Width: 1640
Flags: W
LayerCount: 2
Fore
SplineSet
780 585 m 1,0,-1
 600 0 l 1,1,-1
 320 0 l 1,2,-1
 0 1040 l 1,3,-1
 280 1040 l 1,4,-1
 460 405 l 1,5,-1
 640 1040 l 1,6,-1
 920 1040 l 1,7,-1
 1100 405 l 1,8,-1
 1280 1040 l 1,9,-1
 1560 1040 l 1,10,-1
 1240 0 l 1,11,-1
 960 0 l 1,12,-1
 780 585 l 1,0,-1
EndSplineSet
EndChar

StartChar: x
Encoding: 120 120 91
Width: 1080
Flags: W
LayerCount: 2
Fore
SplineSet
640 520 m 1,0,-1
 1000 0 l 1,1,-1
 720 0 l 1,2,-1
 500 318 l 1,3,-1
 280 0 l 1,4,-1
 0 0 l 1,5,-1
 360 520 l 1,6,-1
 0 1040 l 1,7,-1
 280 1040 l 1,8,-1
 500 722 l 1,9,-1
 720 1040 l 1,10,-1
 1000 1040 l 1,11,-1
 640 520 l 1,0,-1
EndSplineSet
EndChar

StartChar: y
Encoding: 121 121 92
Width: 1080
Flags: W
LayerCount: 2
Fore
SplineSet
380 491 m 1,0,-1
 360 520 l 1,1,-1
 0 1040 l 1,2,-1
 280 1040 l 1,3,-1
 500 722 l 1,4,-1
 720 1040 l 1,5,-1
 1000 1040 l 1,6,-1
 640 520 l 1,7,-1
 620 491 l 1,8,-1
 620 0 l 1,9,-1
 380 0 l 1,10,-1
 380 491 l 1,0,-1
EndSplineSet
EndChar

StartChar: z
Encoding: 122 122 93
Width: 920
Flags: W
LayerCount: 2
Fore
SplineSet
480 800 m 1,0,-1
 0 800 l 1,1,-1
 0 1040 l 1,2,-1
 800 1040 l 1,3,-1
 800 800 l 1,4,-1
 320 240 l 1,5,-1
 800 240 l 1,6,-1
 800 0 l 1,7,-1
 1 0 l 1,8,-1
 0 240 l 1,9,-1
 480 800 l 1,0,-1
EndSplineSet
EndChar

StartChar: braceleft
Encoding: 123 123 94
Width: 950
Flags: W
LayerCount: 2
Fore
SplineSet
500 850 m 2,0,1
 500 757 500 757 413 650 c 1,2,3
 500 543 500 543 500 450 c 2,4,-1
 500 200 l 2,5,6
 500 159 500 159 529.5 129.5 c 128,-1,7
 559 100 559 100 600 100 c 2,8,-1
 800 100 l 1,9,-1
 800 -200 l 1,10,-1
 600 -200 l 2,11,12
 434 -200 434 -200 317 -83 c 128,-1,13
 200 34 200 34 200 200 c 2,14,-1
 200 450 l 2,15,16
 200 500 200 500 150 500 c 2,17,-1
 0 500 l 1,18,-1
 150 800 l 1,19,20
 200 800 200 800 200 850 c 2,21,-1
 200 1100 l 2,22,23
 200 1266 200 1266 317 1383 c 128,-1,24
 434 1500 434 1500 600 1500 c 2,25,-1
 800 1500 l 1,26,-1
 700 1200 l 1,27,-1
 600 1200 l 2,28,29
 559 1200 559 1200 529.5 1170.5 c 128,-1,30
 500 1141 500 1141 500 1100 c 2,31,-1
 500 850 l 2,0,1
EndSplineSet
EndChar

StartChar: bar
Encoding: 124 124 95
Width: 450
Flags: W
LayerCount: 2
Fore
SplineSet
0 1500 m 1,0,-1
 300 1500 l 1,1,-1
 300 -200 l 1,2,-1
 0 -200 l 1,3,-1
 0 1500 l 1,0,-1
EndSplineSet
EndChar

StartChar: braceright
Encoding: 125 125 96
Width: 950
Flags: W
LayerCount: 2
Fore
SplineSet
300 1100 m 2,0,1
 300 1141 300 1141 270.5 1170.5 c 128,-1,2
 241 1200 241 1200 200 1200 c 2,3,-1
 100 1200 l 1,4,-1
 0 1500 l 1,5,-1
 200 1500 l 2,6,7
 366 1500 366 1500 483 1383 c 128,-1,8
 600 1266 600 1266 600 1100 c 2,9,-1
 600 850 l 2,10,11
 600 800 600 800 650 800 c 1,12,-1
 800 500 l 1,13,-1
 650 500 l 2,14,15
 600 500 600 500 600 450 c 2,16,-1
 600 200 l 2,17,18
 600 34 600 34 483 -83 c 128,-1,19
 366 -200 366 -200 200 -200 c 2,20,-1
 0 -200 l 1,21,-1
 0 100 l 1,22,-1
 200 100 l 2,23,24
 241 100 241 100 270.5 129.5 c 128,-1,25
 300 159 300 159 300 200 c 2,26,-1
 300 450 l 2,27,28
 300 543 300 543 387 650 c 1,29,30
 300 757 300 757 300 850 c 2,31,-1
 300 1100 l 2,0,1
EndSplineSet
EndChar

StartChar: asciitilde
Encoding: 126 126 97
Width: 1150
Flags: W
LayerCount: 2
Fore
SplineSet
900 1450 m 128,-1,1
 800 1350 800 1350 650 1350 c 256,2,3
 500 1350 500 1350 450 1400 c 256,4,5
 400 1450 400 1450 350 1450 c 256,6,7
 300 1450 300 1450 300 1400 c 2,8,-1
 300 1350 l 1,9,-1
 0 1400 l 1,10,11
 0 1545 0 1545 102.5 1647.5 c 128,-1,12
 205 1750 205 1750 350 1750 c 0,13,14
 500 1750 500 1750 550 1700 c 0,15,16
 599 1650 599 1650 650 1650 c 0,17,18
 700 1650 700 1650 700 1700 c 2,19,-1
 700 1750 l 1,20,-1
 1000 1700 l 1,21,0
 1000 1550 1000 1550 900 1450 c 128,-1,1
EndSplineSet
EndChar

StartChar: exclamdown
Encoding: 161 161 98
Width: 450
Flags: W
LayerCount: 2
Fore
SplineSet
0 1300 m 1,0,-1
 300 1300 l 1,1,-1
 300 1000 l 1,2,-1
 0 1000 l 1,3,-1
 0 1300 l 1,0,-1
300 0 m 1,4,-1
 0 0 l 1,5,-1
 0 900 l 1,6,-1
 300 900 l 1,7,-1
 300 0 l 1,4,-1
EndSplineSet
EndChar

StartChar: cent
Encoding: 162 162 99
Width: 1200
Flags: W
LayerCount: 2
Fore
SplineSet
750 1200 m 1,0,-1
 1050 1200 l 1,1,-1
 950 900 l 1,2,-1
 750 900 l 1,3,-1
 750 400 l 1,4,-1
 1050 400 l 1,5,-1
 1050 100 l 1,6,-1
 750 100 l 1,7,-1
 750 0 l 1,8,-1
 450 0 l 1,9,-1
 450 116 l 1,10,11
 296 151 296 151 176 261 c 0,12,13
 0 422 0 422 0 650 c 256,14,15
 0 878 0 878 176 1039 c 0,16,17
 296 1149 296 1149 450 1184 c 1,18,-1
 450 1300 l 1,19,-1
 750 1300 l 1,20,-1
 750 1200 l 1,0,-1
450 867 m 1,21,22
 417 851 417 851 388 827 c 0,23,24
 300 754 300 754 300 650 c 256,25,26
 300 546 300 546 388 473 c 0,27,28
 417 449 417 449 450 433 c 1,29,-1
 450 867 l 1,21,22
EndSplineSet
EndChar

StartChar: sterling
Encoding: 163 163 100
Width: 1350
Flags: W
LayerCount: 2
Fore
SplineSet
600 1000 m 2,0,1
 559 1000 559 1000 529.5 970.5 c 128,-1,2
 500 941 500 941 500 900 c 2,3,-1
 500 800 l 1,4,-1
 851 800 l 1,5,-1
 851 500 l 1,6,-1
 500 500 l 1,7,-1
 500 300 l 1,8,-1
 1200 300 l 1,9,-1
 1200 0 l 1,10,-1
 0 0 l 1,11,-1
 0 300 l 1,12,-1
 200 300 l 1,13,-1
 200 500 l 1,14,-1
 150 500 l 1,15,-1
 0 800 l 1,16,-1
 200 800 l 1,17,-1
 200 900 l 2,18,19
 200 1066 200 1066 317 1183 c 128,-1,20
 434 1300 434 1300 600 1300 c 2,21,-1
 1200 1300 l 1,22,-1
 1050 1000 l 1,23,-1
 600 1000 l 2,0,1
EndSplineSet
EndChar

StartChar: currency
Encoding: 164 164 101
Width: 1350
Flags: W
LayerCount: 2
Fore
SplineSet
525 650 m 256,1,2
 525 609 525 609 554.5 579.5 c 128,-1,3
 584 550 584 550 625 550 c 256,4,5
 666 550 666 550 695.5 579.5 c 128,-1,6
 725 609 725 609 725 650 c 256,7,8
 725 691 725 691 695.5 720.5 c 128,-1,9
 666 750 666 750 625 750 c 256,10,11
 584 750 584 750 554.5 720.5 c 128,-1,0
 525 691 525 691 525 650 c 256,1,2
720 1040 m 1,12,-1
 900 1300 l 1,13,-1
 1250 1300 l 1,14,-1
 956 876 l 1,15,16
 1025 777 1025 777 1025 650 c 256,17,18
 1025 523 1025 523 956 424 c 1,19,-1
 1250 0 l 1,20,-1
 900 0 l 1,21,-1
 720 260 l 1,22,23
 674 250 674 250 625 250 c 256,24,25
 576 250 576 250 530 260 c 1,26,-1
 350 0 l 1,27,-1
 0 0 l 1,28,-1
 294 424 l 1,29,30
 225 523 225 523 225 650 c 256,31,32
 225 777 225 777 294 876 c 1,33,-1
 0 1300 l 1,34,-1
 350 1300 l 1,35,-1
 530 1040 l 1,36,37
 576 1050 576 1050 625 1050 c 256,38,39
 674 1050 674 1050 720 1040 c 1,12,-1
EndSplineSet
EndChar

StartChar: yen
Encoding: 165 165 102
Width: 1350
Flags: W
LayerCount: 2
Fore
SplineSet
346 800 m 1,0,-1
 0 1300 l 1,1,-1
 350 1300 l 1,2,-1
 625 903 l 1,3,-1
 900 1300 l 1,4,-1
 1250 1300 l 1,5,-1
 904 800 l 1,6,-1
 1051 800 l 1,7,-1
 1051 500 l 1,8,-1
 775 500 l 1,9,-1
 775 400 l 1,10,-1
 1051 400 l 1,11,-1
 1051 100 l 1,12,-1
 775 100 l 1,13,-1
 775 0 l 1,14,-1
 475 0 l 1,15,-1
 475 100 l 1,16,-1
 200 100 l 1,17,-1
 200 400 l 1,18,-1
 475 400 l 1,19,-1
 475 500 l 1,20,-1
 200 500 l 1,21,-1
 200 800 l 1,22,-1
 346 800 l 1,0,-1
EndSplineSet
EndChar

StartChar: brokenbar
Encoding: 166 166 103
Width: 450
Flags: W
LayerCount: 2
Fore
SplineSet
300 550 m 1,0,-1
 300 -200 l 1,1,-1
 0 -200 l 1,2,-1
 0 550 l 1,3,-1
 300 550 l 1,0,-1
0 750 m 1,4,-1
 0 1500 l 1,5,-1
 300 1500 l 1,6,-1
 300 750 l 1,7,-1
 0 750 l 1,4,-1
EndSplineSet
EndChar

StartChar: section
Encoding: 167 167 104
Width: 1300
Flags: W
LayerCount: 2
Fore
SplineSet
475 650 m 256,1,2
 475 609 475 609 504.5 579.5 c 128,-1,3
 534 550 534 550 575 550 c 256,4,5
 616 550 616 550 645.5 579.5 c 128,-1,6
 675 609 675 609 675 650 c 256,7,8
 675 691 675 691 645.5 720.5 c 128,-1,9
 616 750 616 750 575 750 c 256,10,11
 534 750 534 750 504.5 720.5 c 128,-1,0
 475 691 475 691 475 650 c 256,1,2
966 738 m 1,12,13
 1001 715 1001 715 1033 683 c 0,14,15
 1150 566 1150 566 1150 400 c 2,16,-1
 1150 300 l 2,17,18
 1150 134 1150 134 1033 17 c 128,-1,19
 916 -100 916 -100 750 -100 c 2,20,-1
 0 -100 l 1,21,-1
 0 200 l 1,22,-1
 750 200 l 2,23,24
 791 200 791 200 820.5 229.5 c 128,-1,25
 850 259 850 259 850 300 c 2,26,-1
 850 359 l 1,27,28
 735 250 735 250 575 250 c 0,29,30
 409 250 409 250 292 367 c 0,31,32
 207 452 207 452 184 562 c 1,33,34
 149 585 149 585 117 617 c 0,35,36
 0 734 0 734 0 900 c 2,37,-1
 0 1000 l 2,38,39
 0 1166 0 1166 117 1283 c 128,-1,40
 234 1400 234 1400 400 1400 c 2,41,-1
 1150 1400 l 1,42,-1
 1000 1100 l 1,43,-1
 400 1100 l 2,44,45
 359 1100 359 1100 329.5 1070.5 c 128,-1,46
 300 1041 300 1041 300 1000 c 2,47,-1
 300 941 l 1,48,49
 415 1050 415 1050 575 1050 c 0,50,51
 741 1050 741 1050 858 933 c 0,52,53
 943 848 943 848 966 738 c 1,12,13
EndSplineSet
EndChar

StartChar: dieresis
Encoding: 168 168 105
Width: 1000
Flags: W
LayerCount: 2
Fore
SplineSet
0 1750 m 1,0,-1
 300 1750 l 1,1,-1
 300 1450 l 1,2,-1
 0 1450 l 1,3,-1
 0 1750 l 1,0,-1
550 1750 m 1,4,-1
 850 1750 l 1,5,-1
 850 1450 l 1,6,-1
 550 1450 l 1,7,-1
 550 1750 l 1,4,-1
EndSplineSet
EndChar

StartChar: copyright
Encoding: 169 169 106
Width: 1150
Flags: W
LayerCount: 2
Fore
SplineSet
450 800 m 2,0,-1
 750 800 l 1,1,-1
 750 650 l 1,2,-1
 450 650 l 2,3,4
 326 650 326 650 238 745.5 c 128,-1,5
 150 841 150 841 150 975 c 0,6,7
 150 1110 150 1110 238 1205 c 256,8,9
 326 1300 326 1300 450 1300 c 2,10,-1
 750 1300 l 1,11,-1
 700 1150 l 1,12,-1
 450 1150 l 2,13,14
 388 1150 388 1150 344 1099 c 128,-1,15
 300 1048 300 1048 300 975 c 0,16,17
 300 903 300 903 344 851.5 c 128,-1,18
 388 800 388 800 450 800 c 2,0,-1
500 1400 m 256,19,20
 334 1400 334 1400 217 1275.5 c 128,-1,21
 100 1151 100 1151 100 975 c 256,22,23
 100 799 100 799 217 674.5 c 128,-1,24
 334 550 334 550 500 550 c 256,25,26
 666 550 666 550 783 674.5 c 128,-1,27
 900 799 900 799 900 975 c 256,28,29
 900 1151 900 1151 783 1275.5 c 128,-1,30
 666 1400 666 1400 500 1400 c 256,19,20
853.5 1346.5 m 128,-1,32
 1000 1193 1000 1193 1000 975 c 0,33,34
 1000 758 1000 758 853.5 604 c 128,-1,35
 707 450 707 450 500 450 c 256,36,37
 293 450 293 450 146.5 604 c 128,-1,38
 0 758 0 758 0 975 c 0,39,40
 0 1193 0 1193 146.5 1346.5 c 128,-1,41
 293 1500 293 1500 500 1500 c 256,42,31
 707 1500 707 1500 853.5 1346.5 c 128,-1,32
EndSplineSet
EndChar

StartChar: ordfeminine
Encoding: 170 170 107
Width: 1650
Flags: W
LayerCount: 2
Fore
SplineSet
0 200 m 2,1,-1
 0 1300 l 2,2,3
 0 1500 0 1500 200 1500 c 2,4,-1
 1300 1500 l 2,5,6
 1500 1500 1500 1500 1500 1300 c 2,7,-1
 1500 200 l 2,8,9
 1500 0 1500 0 1300 0 c 2,10,-1
 200 0 l 2,11,0
 0 0 0 0 0 200 c 2,1,-1
1475 201 m 2,13,-1
 1475 1300 l 2,14,15
 1475 1475 1475 1475 1300 1475 c 2,16,-1
 200 1475 l 2,17,18
 26 1475 26 1475 25 1300 c 2,19,-1
 25 200 l 2,20,21
 26 25 26 25 200 25 c 2,22,-1
 1301 25 l 2,23,12
 1475 25 1475 25 1475 201 c 2,13,-1
EndSplineSet
EndChar

StartChar: guillemotleft
Encoding: 171 171 108
Width: 1300
Flags: W
LayerCount: 2
Fore
SplineSet
350 650 m 1,0,-1
 700 150 l 1,1,-1
 350 150 l 1,2,-1
 0 650 l 1,3,-1
 350 1150 l 1,4,-1
 700 1150 l 1,5,-1
 350 650 l 1,0,-1
800 650 m 1,6,-1
 1150 150 l 1,7,-1
 800 150 l 1,8,-1
 450 650 l 1,9,-1
 800 1150 l 1,10,-1
 1150 1150 l 1,11,-1
 800 650 l 1,6,-1
EndSplineSet
EndChar

StartChar: logicalnot
Encoding: 172 172 109
Width: 1014
Flags: W
LayerCount: 2
Fore
SplineSet
87 767 m 1,0,-1
 927 767 l 1,1,-1
 927 276 l 1,2,-1
 926 275 l 1,3,-1
 828 275 l 1,4,-1
 828 667 l 1,5,-1
 87 667 l 1,6,-1
 87 767 l 1,0,-1
EndSplineSet
EndChar

StartChar: registered
Encoding: 174 174 110
Width: 1150
Flags: W
LayerCount: 2
Fore
SplineSet
600 1025 m 2,0,1
 621 1025 621 1025 635.5 1043.5 c 128,-1,2
 650 1062 650 1062 650 1088 c 256,3,4
 650 1114 650 1114 635.5 1132 c 128,-1,5
 621 1150 621 1150 600 1150 c 2,6,-1
 375 1150 l 1,7,-1
 375 1025 l 1,8,-1
 600 1025 l 2,0,1
783 675 m 1,9,10
 900 799 900 799 900 975 c 256,11,12
 900 1151 900 1151 783 1275.5 c 128,-1,13
 666 1400 666 1400 500 1400 c 0,14,15
 351 1400 351 1400 242 1300 c 1,16,-1
 600 1300 l 2,17,18
 683 1300 683 1300 741.5 1238 c 128,-1,19
 800 1176 800 1176 800 1088 c 256,20,21
 800 1000 800 1000 742 938 c 0,22,23
 698 891 698 891 640 879 c 1,24,-1
 783 674 l 1,25,-1
 783 675 l 1,9,10
242 650 m 1,26,27
 351 550 351 550 500 550 c 256,28,29
 649 550 649 550 758 650 c 1,30,-1
 600 650 l 1,31,-1
 375 972 l 1,32,-1
 375 650 l 1,33,-1
 242 650 l 1,26,27
225 1284 m 1,34,35
 221 1280 221 1280 217 1276 c 0,36,37
 100 1151 100 1151 100 975 c 256,38,39
 100 799 100 799 217 675 c 0,40,41
 221 670 221 670 225 666 c 1,42,-1
 225 1284 l 1,34,35
1000 975 m 0,43,44
 1000 758 1000 758 853.5 604 c 128,-1,45
 707 450 707 450 500 450 c 256,46,47
 293 450 293 450 146.5 604 c 128,-1,48
 0 758 0 758 0 975 c 0,49,50
 0 1193 0 1193 146.5 1346.5 c 128,-1,51
 293 1500 293 1500 500 1500 c 256,52,53
 707 1500 707 1500 853.5 1346.5 c 128,-1,54
 1000 1193 1000 1193 1000 975 c 0,43,44
EndSplineSet
EndChar

StartChar: macron
Encoding: 175 175 111
Width: 1650
Flags: W
LayerCount: 2
Fore
SplineSet
0 200 m 2,1,-1
 0 1300 l 2,2,3
 0 1500 0 1500 200 1500 c 2,4,-1
 1300 1500 l 2,5,6
 1500 1500 1500 1500 1500 1300 c 2,7,-1
 1500 200 l 2,8,9
 1500 0 1500 0 1300 0 c 2,10,-1
 200 0 l 2,11,0
 0 0 0 0 0 200 c 2,1,-1
1475 201 m 2,13,-1
 1475 1300 l 2,14,15
 1475 1475 1475 1475 1300 1475 c 2,16,-1
 200 1475 l 2,17,18
 26 1475 26 1475 25 1300 c 2,19,-1
 25 200 l 2,20,21
 26 25 26 25 200 25 c 2,22,-1
 1301 25 l 2,23,12
 1475 25 1475 25 1475 201 c 2,13,-1
EndSplineSet
EndChar

StartChar: degree
Encoding: 176 176 112
Width: 674
Flags: W
LayerCount: 2
Fore
SplineSet
339 1372 m 256,0,1
 253 1372 253 1372 191.5 1311 c 128,-1,2
 130 1250 130 1250 130 1163 c 256,3,4
 130 1076 130 1076 191 1016 c 128,-1,5
 252 956 252 956 339 956 c 256,6,7
 426 956 426 956 486 1016 c 128,-1,8
 546 1076 546 1076 546 1163 c 256,9,10
 546 1250 546 1250 485.5 1311 c 128,-1,11
 425 1372 425 1372 339 1372 c 256,0,1
339 1442 m 0,12,13
 454 1442 454 1442 535 1360.5 c 128,-1,14
 616 1279 616 1279 616 1164 c 0,15,16
 616 1050 616 1050 534 968 c 128,-1,17
 452 886 452 886 337 886 c 0,18,19
 220 886 220 886 140 967 c 128,-1,20
 60 1048 60 1048 60 1164 c 256,21,22
 60 1280 60 1280 141.5 1361 c 128,-1,23
 223 1442 223 1442 339 1442 c 0,12,13
EndSplineSet
EndChar

StartChar: plusminus
Encoding: 177 177 113
Width: 1650
Flags: W
LayerCount: 2
Fore
SplineSet
0 200 m 2,1,-1
 0 1300 l 2,2,3
 0 1500 0 1500 200 1500 c 2,4,-1
 1300 1500 l 2,5,6
 1500 1500 1500 1500 1500 1300 c 2,7,-1
 1500 200 l 2,8,9
 1500 0 1500 0 1300 0 c 2,10,-1
 200 0 l 2,11,0
 0 0 0 0 0 200 c 2,1,-1
1475 201 m 2,13,-1
 1475 1300 l 2,14,15
 1475 1475 1475 1475 1300 1475 c 2,16,-1
 200 1475 l 2,17,18
 26 1475 26 1475 25 1300 c 2,19,-1
 25 200 l 2,20,21
 26 25 26 25 200 25 c 2,22,-1
 1301 25 l 2,23,12
 1475 25 1475 25 1475 201 c 2,13,-1
EndSplineSet
EndChar

StartChar: uni00B2
Encoding: 178 178 114
Width: 1650
Flags: W
LayerCount: 2
Fore
SplineSet
0 200 m 2,1,-1
 0 1300 l 2,2,3
 0 1500 0 1500 200 1500 c 2,4,-1
 1300 1500 l 2,5,6
 1500 1500 1500 1500 1500 1300 c 2,7,-1
 1500 200 l 2,8,9
 1500 0 1500 0 1300 0 c 2,10,-1
 200 0 l 2,11,0
 0 0 0 0 0 200 c 2,1,-1
1475 201 m 2,13,-1
 1475 1300 l 2,14,15
 1475 1475 1475 1475 1300 1475 c 2,16,-1
 200 1475 l 2,17,18
 26 1475 26 1475 25 1300 c 2,19,-1
 25 200 l 2,20,21
 26 25 26 25 200 25 c 2,22,-1
 1301 25 l 2,23,12
 1475 25 1475 25 1475 201 c 2,13,-1
EndSplineSet
EndChar

StartChar: uni00B3
Encoding: 179 179 115
Width: 1650
Flags: W
LayerCount: 2
Fore
SplineSet
0 200 m 2,1,-1
 0 1300 l 2,2,3
 0 1500 0 1500 200 1500 c 2,4,-1
 1300 1500 l 2,5,6
 1500 1500 1500 1500 1500 1300 c 2,7,-1
 1500 200 l 2,8,9
 1500 0 1500 0 1300 0 c 2,10,-1
 200 0 l 2,11,0
 0 0 0 0 0 200 c 2,1,-1
1475 201 m 2,13,-1
 1475 1300 l 2,14,15
 1475 1475 1475 1475 1300 1475 c 2,16,-1
 200 1475 l 2,17,18
 26 1475 26 1475 25 1300 c 2,19,-1
 25 200 l 2,20,21
 26 25 26 25 200 25 c 2,22,-1
 1301 25 l 2,23,12
 1475 25 1475 25 1475 201 c 2,13,-1
EndSplineSet
EndChar

StartChar: acute
Encoding: 180 180 116
Width: 750
Flags: W
LayerCount: 2
Fore
SplineSet
600 1750 m 1,0,-1
 350 1400 l 1,1,-1
 0 1400 l 1,2,-1
 250 1750 l 1,3,-1
 600 1750 l 1,0,-1
EndSplineSet
EndChar

StartChar: mu
Encoding: 181 181 117
Width: 1350
Flags: W
LayerCount: 2
Fore
SplineSet
300 650 m 2,0,1
 300 505 300 505 388 402.5 c 128,-1,2
 476 300 476 300 600 300 c 256,3,4
 724 300 724 300 812 402.5 c 128,-1,5
 900 505 900 505 900 650 c 2,6,-1
 900 1300 l 1,7,-1
 1200 1300 l 1,8,-1
 1200 650 l 2,9,10
 1200 381 1200 381 1024.5 190.5 c 128,-1,11
 849 0 849 0 600 0 c 0,12,13
 434 0 434 0 300 85 c 1,14,-1
 300 0 l 1,15,-1
 0 0 l 1,16,-1
 0 1300 l 1,17,-1
 300 1300 l 1,18,-1
 300 650 l 2,0,1
EndSplineSet
EndChar

StartChar: paragraph
Encoding: 182 182 118
Width: 1024
Flags: W
LayerCount: 2
Fore
SplineSet
929 1435 m 1,0,-1
 929 1365 l 1,1,-1
 802 1365 l 1,2,-1
 802 0 l 1,3,-1
 720 0 l 1,4,-1
 720 1365 l 1,5,-1
 554 1365 l 1,6,-1
 554 0 l 1,7,-1
 470 0 l 1,8,-1
 470 738 l 1,9,10
 296 746 296 746 194.5 840.5 c 128,-1,11
 93 935 93 935 93 1086 c 0,12,13
 93 1243 93 1243 200.5 1339 c 128,-1,14
 308 1435 308 1435 486 1435 c 2,15,-1
 929 1435 l 1,0,-1
EndSplineSet
EndChar

StartChar: periodcentered
Encoding: 183 183 119
AltUni2: 002219.ffffffff.0
Width: 450
Flags: W
LayerCount: 2
Fore
SplineSet
0 800 m 1,0,-1
 300 800 l 1,1,-1
 300 500 l 1,2,-1
 0 500 l 1,3,-1
 0 800 l 1,0,-1
EndSplineSet
EndChar

StartChar: cedilla
Encoding: 184 184 120
Width: 700
Flags: W
LayerCount: 2
Fore
SplineSet
0 -100 m 1,0,-1
 150 -100 l 2,1,2
 191 -100 191 -100 220.5 -70.5 c 128,-1,3
 250 -41 250 -41 250 0 c 1,4,-1
 550 0 l 1,5,6
 550 -166 550 -166 433 -283 c 128,-1,7
 316 -400 316 -400 150 -400 c 1,8,-1
 0 -100 l 1,0,-1
EndSplineSet
EndChar

StartChar: uni00B9
Encoding: 185 185 121
Width: 1650
Flags: W
LayerCount: 2
Fore
SplineSet
0 200 m 2,1,-1
 0 1300 l 2,2,3
 0 1500 0 1500 200 1500 c 2,4,-1
 1300 1500 l 2,5,6
 1500 1500 1500 1500 1500 1300 c 2,7,-1
 1500 200 l 2,8,9
 1500 0 1500 0 1300 0 c 2,10,-1
 200 0 l 2,11,0
 0 0 0 0 0 200 c 2,1,-1
1475 201 m 2,13,-1
 1475 1300 l 2,14,15
 1475 1475 1475 1475 1300 1475 c 2,16,-1
 200 1475 l 2,17,18
 26 1475 26 1475 25 1300 c 2,19,-1
 25 200 l 2,20,21
 26 25 26 25 200 25 c 2,22,-1
 1301 25 l 2,23,12
 1475 25 1475 25 1475 201 c 2,13,-1
EndSplineSet
EndChar

StartChar: ordmasculine
Encoding: 186 186 122
Width: 1650
Flags: W
LayerCount: 2
Fore
SplineSet
0 200 m 2,1,-1
 0 1300 l 2,2,3
 0 1500 0 1500 200 1500 c 2,4,-1
 1300 1500 l 2,5,6
 1500 1500 1500 1500 1500 1300 c 2,7,-1
 1500 200 l 2,8,9
 1500 0 1500 0 1300 0 c 2,10,-1
 200 0 l 2,11,0
 0 0 0 0 0 200 c 2,1,-1
1475 201 m 2,13,-1
 1475 1300 l 2,14,15
 1475 1475 1475 1475 1300 1475 c 2,16,-1
 200 1475 l 2,17,18
 26 1475 26 1475 25 1300 c 2,19,-1
 25 200 l 2,20,21
 26 25 26 25 200 25 c 2,22,-1
 1301 25 l 2,23,12
 1475 25 1475 25 1475 201 c 2,13,-1
EndSplineSet
EndChar

StartChar: guillemotright
Encoding: 187 187 123
Width: 1300
Flags: W
LayerCount: 2
Fore
SplineSet
450 1150 m 1,0,-1
 800 1150 l 1,1,-1
 1150 650 l 1,2,-1
 800 150 l 1,3,-1
 450 150 l 1,4,-1
 800 650 l 1,5,-1
 450 1150 l 1,0,-1
0 1150 m 1,6,-1
 350 1150 l 1,7,-1
 700 650 l 1,8,-1
 350 150 l 1,9,-1
 0 150 l 1,10,-1
 350 650 l 1,11,-1
 0 1150 l 1,6,-1
EndSplineSet
EndChar

StartChar: onequarter
Encoding: 188 188 124
Width: 1650
Flags: W
LayerCount: 2
Fore
SplineSet
0 200 m 2,1,-1
 0 1300 l 2,2,3
 0 1500 0 1500 200 1500 c 2,4,-1
 1300 1500 l 2,5,6
 1500 1500 1500 1500 1500 1300 c 2,7,-1
 1500 200 l 2,8,9
 1500 0 1500 0 1300 0 c 2,10,-1
 200 0 l 2,11,0
 0 0 0 0 0 200 c 2,1,-1
1475 201 m 2,13,-1
 1475 1300 l 2,14,15
 1475 1475 1475 1475 1300 1475 c 2,16,-1
 200 1475 l 2,17,18
 26 1475 26 1475 25 1300 c 2,19,-1
 25 200 l 2,20,21
 26 25 26 25 200 25 c 2,22,-1
 1301 25 l 2,23,12
 1475 25 1475 25 1475 201 c 2,13,-1
EndSplineSet
Ligature2: "'frac' Fracciones in Latin lookup 1 subtable" one fraction four
EndChar

StartChar: onehalf
Encoding: 189 189 125
Width: 1650
Flags: W
LayerCount: 2
Fore
SplineSet
0 200 m 2,1,-1
 0 1300 l 2,2,3
 0 1500 0 1500 200 1500 c 2,4,-1
 1300 1500 l 2,5,6
 1500 1500 1500 1500 1500 1300 c 2,7,-1
 1500 200 l 2,8,9
 1500 0 1500 0 1300 0 c 2,10,-1
 200 0 l 2,11,0
 0 0 0 0 0 200 c 2,1,-1
1475 201 m 2,13,-1
 1475 1300 l 2,14,15
 1475 1475 1475 1475 1300 1475 c 2,16,-1
 200 1475 l 2,17,18
 26 1475 26 1475 25 1300 c 2,19,-1
 25 200 l 2,20,21
 26 25 26 25 200 25 c 2,22,-1
 1301 25 l 2,23,12
 1475 25 1475 25 1475 201 c 2,13,-1
EndSplineSet
Ligature2: "'frac' Fracciones in Latin lookup 1 subtable" one fraction two
EndChar

StartChar: threequarters
Encoding: 190 190 126
Width: 1650
Flags: W
LayerCount: 2
Fore
SplineSet
0 200 m 2,1,-1
 0 1300 l 2,2,3
 0 1500 0 1500 200 1500 c 2,4,-1
 1300 1500 l 2,5,6
 1500 1500 1500 1500 1500 1300 c 2,7,-1
 1500 200 l 2,8,9
 1500 0 1500 0 1300 0 c 2,10,-1
 200 0 l 2,11,0
 0 0 0 0 0 200 c 2,1,-1
1475 201 m 2,13,-1
 1475 1300 l 2,14,15
 1475 1475 1475 1475 1300 1475 c 2,16,-1
 200 1475 l 2,17,18
 26 1475 26 1475 25 1300 c 2,19,-1
 25 200 l 2,20,21
 26 25 26 25 200 25 c 2,22,-1
 1301 25 l 2,23,12
 1475 25 1475 25 1475 201 c 2,13,-1
EndSplineSet
Ligature2: "'frac' Fracciones in Latin lookup 1 subtable" three fraction four
EndChar

StartChar: questiondown
Encoding: 191 191 127
Width: 1300
Flags: W
LayerCount: 2
Fore
SplineSet
1000 900 m 1,0,1
 1000 734 1000 734 883 617 c 128,-1,2
 766 500 766 500 600 500 c 2,3,-1
 400 500 l 2,4,5
 359 500 359 500 329.5 470.5 c 128,-1,6
 300 441 300 441 300 400 c 256,7,8
 300 359 300 359 329.5 329.5 c 128,-1,9
 359 300 359 300 400 300 c 2,10,-1
 1000 300 l 1,11,-1
 1150 0 l 1,12,-1
 400 0 l 2,13,14
 234 0 234 0 117 117 c 128,-1,15
 0 234 0 234 0 400 c 256,16,17
 0 566 0 566 117 683 c 128,-1,18
 234 800 234 800 400 800 c 2,19,-1
 600 800 l 2,20,21
 641 800 641 800 670.5 829.5 c 128,-1,22
 700 859 700 859 700 900 c 1,23,-1
 1000 900 l 1,0,1
1000 1300 m 1,24,-1
 1000 1000 l 1,25,-1
 700 1000 l 1,26,-1
 700 1300 l 1,27,-1
 1000 1300 l 1,24,-1
EndSplineSet
EndChar

StartChar: Agrave
Encoding: 192 192 128
Width: 1350
Flags: W
LayerCount: 2
Fore
SplineSet
493 414 m 1,0,-1
 350 0 l 1,1,-1
 0 0 l 1,2,-1
 450 1300 l 1,3,-1
 800 1300 l 1,4,-1
 1250 0 l 1,5,-1
 900 0 l 1,6,-1
 831 200 l 1,7,-1
 600 200 l 1,8,-1
 493 414 l 1,0,-1
727 500 m 1,9,-1
 625 794 l 1,10,-1
 523 500 l 1,11,-1
 727 500 l 1,9,-1
675 1750 m 1,12,-1
 925 1400 l 1,13,-1
 575 1400 l 1,14,-1
 325 1750 l 1,15,-1
 675 1750 l 1,12,-1
EndSplineSet
EndChar

StartChar: Aacute
Encoding: 193 193 129
Width: 1350
Flags: W
LayerCount: 2
Fore
SplineSet
493 414 m 1,0,-1
 350 0 l 1,1,-1
 0 0 l 1,2,-1
 450 1300 l 1,3,-1
 800 1300 l 1,4,-1
 1250 0 l 1,5,-1
 900 0 l 1,6,-1
 831 200 l 1,7,-1
 600 200 l 1,8,-1
 493 414 l 1,0,-1
727 500 m 1,9,-1
 625 794 l 1,10,-1
 523 500 l 1,11,-1
 727 500 l 1,9,-1
925 1750 m 1,12,-1
 675 1400 l 1,13,-1
 325 1400 l 1,14,-1
 575 1750 l 1,15,-1
 925 1750 l 1,12,-1
EndSplineSet
EndChar

StartChar: Acircumflex
Encoding: 194 194 130
Width: 1350
Flags: W
LayerCount: 2
Fore
SplineSet
493 414 m 1,0,-1
 350 0 l 1,1,-1
 0 0 l 1,2,-1
 450 1300 l 1,3,-1
 800 1300 l 1,4,-1
 1250 0 l 1,5,-1
 900 0 l 1,6,-1
 831 200 l 1,7,-1
 600 200 l 1,8,-1
 493 414 l 1,0,-1
727 500 m 1,9,-1
 625 794 l 1,10,-1
 523 500 l 1,11,-1
 727 500 l 1,9,-1
800 1750 m 1,12,-1
 1050 1400 l 1,13,-1
 700 1400 l 1,14,-1
 625 1497 l 1,15,-1
 550 1400 l 1,16,-1
 200 1400 l 1,17,-1
 450 1750 l 1,18,-1
 800 1750 l 1,12,-1
EndSplineSet
EndChar

StartChar: Atilde
Encoding: 195 195 131
Width: 1350
Flags: W
LayerCount: 2
Fore
SplineSet
493 414 m 1,0,-1
 350 0 l 1,1,-1
 0 0 l 1,2,-1
 450 1300 l 1,3,-1
 800 1300 l 1,4,-1
 1250 0 l 1,5,-1
 900 0 l 1,6,-1
 831 200 l 1,7,-1
 600 200 l 1,8,-1
 493 414 l 1,0,-1
727 500 m 1,9,-1
 625 794 l 1,10,-1
 523 500 l 1,11,-1
 727 500 l 1,9,-1
1025 1450 m 128,-1,13
 925 1350 925 1350 775 1350 c 256,14,15
 625 1350 625 1350 575 1400 c 256,16,17
 525 1450 525 1450 475 1450 c 256,18,19
 425 1450 425 1450 425 1400 c 2,20,-1
 425 1350 l 1,21,-1
 125 1400 l 1,22,23
 125 1545 125 1545 227.5 1647.5 c 128,-1,24
 330 1750 330 1750 475 1750 c 0,25,26
 625 1750 625 1750 675 1700 c 0,27,28
 724 1650 724 1650 775 1650 c 0,29,30
 825 1650 825 1650 825 1700 c 2,31,-1
 825 1750 l 1,32,-1
 1125 1700 l 1,33,12
 1125 1550 1125 1550 1025 1450 c 128,-1,13
EndSplineSet
EndChar

StartChar: Adieresis
Encoding: 196 196 132
Width: 1350
Flags: W
LayerCount: 2
Fore
SplineSet
493 414 m 1,0,-1
 350 0 l 1,1,-1
 0 0 l 1,2,-1
 450 1300 l 1,3,-1
 800 1300 l 1,4,-1
 1250 0 l 1,5,-1
 900 0 l 1,6,-1
 831 200 l 1,7,-1
 600 200 l 1,8,-1
 493 414 l 1,0,-1
727 500 m 1,9,-1
 625 794 l 1,10,-1
 523 500 l 1,11,-1
 727 500 l 1,9,-1
200 1750 m 1,12,-1
 500 1750 l 1,13,-1
 500 1450 l 1,14,-1
 200 1450 l 1,15,-1
 200 1750 l 1,12,-1
750 1750 m 1,16,-1
 1050 1750 l 1,17,-1
 1050 1450 l 1,18,-1
 750 1450 l 1,19,-1
 750 1750 l 1,16,-1
EndSplineSet
EndChar

StartChar: Aring
Encoding: 197 197 133
Width: 1350
Flags: W
LayerCount: 2
Fore
SplineSet
493 414 m 1,0,-1
 350 0 l 1,1,-1
 0 0 l 1,2,-1
 450 1300 l 1,3,-1
 800 1300 l 1,4,-1
 1250 0 l 1,5,-1
 900 0 l 1,6,-1
 831 200 l 1,7,-1
 600 200 l 1,8,-1
 493 414 l 1,0,-1
727 500 m 1,9,-1
 625 794 l 1,10,-1
 523 500 l 1,11,-1
 727 500 l 1,9,-1
625 1400 m 0,12,13
 552 1400 552 1400 501 1451 c 128,-1,14
 450 1502 450 1502 450 1575 c 0,15,16
 450 1647 450 1647 501 1698.5 c 128,-1,17
 552 1750 552 1750 625 1750 c 0,18,19
 697 1750 697 1750 748.5 1698.5 c 128,-1,20
 800 1647 800 1647 800 1575 c 0,21,22
 800 1502 800 1502 748.5 1451 c 128,-1,23
 697 1400 697 1400 625 1400 c 0,12,13
EndSplineSet
EndChar

StartChar: AE
Encoding: 198 198 134
Width: 1750
Flags: W
LayerCount: 2
Fore
SplineSet
727 500 m 1,0,-1
 625 794 l 1,1,-1
 523 500 l 1,2,-1
 727 500 l 1,0,-1
973 800 m 1,3,-1
 1451 800 l 1,4,-1
 1451 500 l 1,5,-1
 1077 500 l 1,6,-1
 1146 300 l 1,7,-1
 1600 300 l 1,8,-1
 1600 0 l 1,9,-1
 900 0 l 1,10,-1
 831 200 l 1,11,-1
 600 200 l 1,12,-1
 493 414 l 1,13,-1
 350 0 l 1,14,-1
 0 0 l 1,15,-1
 450 1300 l 1,16,-1
 1600 1300 l 1,17,-1
 1450 1000 l 1,18,-1
 904 1000 l 1,19,-1
 973 800 l 1,3,-1
EndSplineSet
EndChar

StartChar: Ccedilla
Encoding: 199 199 135
Width: 1350
Flags: W
LayerCount: 2
Fore
SplineSet
900 0 m 1,0,1
 900 -166 900 -166 783 -283 c 128,-1,2
 666 -400 666 -400 500 -400 c 1,3,-1
 350 -100 l 1,4,-1
 500 -100 l 2,5,6
 541 -100 541 -100 570.5 -70.5 c 128,-1,7
 600 -41 600 -41 600 0 c 1,8,9
 351 0 351 0 175.5 190.5 c 128,-1,10
 0 381 0 381 0 650 c 256,11,12
 0 919 0 919 176 1110 c 0,13,14
 351 1300 351 1300 599 1300 c 2,15,-1
 1200 1300 l 1,16,-1
 1100 1000 l 1,17,-1
 600 1000 l 2,18,19
 476 1000 476 1000 388 897.5 c 128,-1,20
 300 795 300 795 300 650 c 256,21,22
 300 505 300 505 388 402.5 c 128,-1,23
 476 300 476 300 600 300 c 2,24,-1
 1200 300 l 1,25,-1
 1200 0 l 1,26,-1
 900 0 l 1,0,1
EndSplineSet
EndChar

StartChar: Egrave
Encoding: 200 200 136
Width: 1150
Flags: W
LayerCount: 2
Fore
SplineSet
1000 1300 m 1,0,-1
 850 1000 l 1,1,-1
 0 1000 l 1,2,-1
 0 1300 l 1,3,-1
 1000 1300 l 1,0,-1
0 800 m 1,4,-1
 851 800 l 1,5,-1
 851 500 l 1,6,-1
 0 500 l 1,7,-1
 0 800 l 1,4,-1
0 300 m 1,8,-1
 1000 300 l 1,9,-1
 1000 0 l 1,10,-1
 1 0 l 1,11,-1
 0 300 l 1,8,-1
550 1750 m 1,12,-1
 800 1400 l 1,13,-1
 450 1400 l 1,14,-1
 200 1750 l 1,15,-1
 550 1750 l 1,12,-1
EndSplineSet
EndChar

StartChar: Eacute
Encoding: 201 201 137
Width: 1150
Flags: W
LayerCount: 2
Fore
SplineSet
1000 1300 m 1,0,-1
 850 1000 l 1,1,-1
 0 1000 l 1,2,-1
 0 1300 l 1,3,-1
 1000 1300 l 1,0,-1
0 800 m 1,4,-1
 851 800 l 1,5,-1
 851 500 l 1,6,-1
 0 500 l 1,7,-1
 0 800 l 1,4,-1
0 300 m 1,8,-1
 1000 300 l 1,9,-1
 1000 0 l 1,10,-1
 1 0 l 1,11,-1
 0 300 l 1,8,-1
800 1750 m 1,12,-1
 550 1400 l 1,13,-1
 200 1400 l 1,14,-1
 450 1750 l 1,15,-1
 800 1750 l 1,12,-1
EndSplineSet
EndChar

StartChar: Ecircumflex
Encoding: 202 202 138
Width: 1150
Flags: W
LayerCount: 2
Fore
SplineSet
1000 1300 m 1,0,-1
 850 1000 l 1,1,-1
 0 1000 l 1,2,-1
 0 1300 l 1,3,-1
 1000 1300 l 1,0,-1
0 800 m 1,4,-1
 851 800 l 1,5,-1
 851 500 l 1,6,-1
 0 500 l 1,7,-1
 0 800 l 1,4,-1
0 300 m 1,8,-1
 1000 300 l 1,9,-1
 1000 0 l 1,10,-1
 1 0 l 1,11,-1
 0 300 l 1,8,-1
675 1750 m 1,12,-1
 925 1400 l 1,13,-1
 575 1400 l 1,14,-1
 500 1497 l 1,15,-1
 425 1400 l 1,16,-1
 75 1400 l 1,17,-1
 325 1750 l 1,18,-1
 675 1750 l 1,12,-1
EndSplineSet
EndChar

StartChar: Edieresis
Encoding: 203 203 139
Width: 1150
Flags: W
LayerCount: 2
Fore
SplineSet
1000 1300 m 1,0,-1
 850 1000 l 1,1,-1
 0 1000 l 1,2,-1
 0 1300 l 1,3,-1
 1000 1300 l 1,0,-1
0 800 m 1,4,-1
 851 800 l 1,5,-1
 851 500 l 1,6,-1
 0 500 l 1,7,-1
 0 800 l 1,4,-1
0 300 m 1,8,-1
 1000 300 l 1,9,-1
 1000 0 l 1,10,-1
 1 0 l 1,11,-1
 0 300 l 1,8,-1
75 1750 m 1,12,-1
 375 1750 l 1,13,-1
 375 1450 l 1,14,-1
 75 1450 l 1,15,-1
 75 1750 l 1,12,-1
625 1750 m 1,16,-1
 925 1750 l 1,17,-1
 925 1450 l 1,18,-1
 625 1450 l 1,19,-1
 625 1750 l 1,16,-1
EndSplineSet
EndChar

StartChar: Igrave
Encoding: 204 204 140
Width: 450
Flags: W
LayerCount: 2
Fore
SplineSet
300 0 m 1,0,-1
 0 0 l 1,1,-1
 0 1300 l 1,2,-1
 300 1300 l 1,3,-1
 300 0 l 1,0,-1
200 1750 m 1,4,-1
 450 1400 l 1,5,-1
 100 1400 l 1,6,-1
 -150 1750 l 1,7,-1
 200 1750 l 1,4,-1
EndSplineSet
EndChar

StartChar: Iacute
Encoding: 205 205 141
Width: 450
Flags: W
LayerCount: 2
Fore
SplineSet
300 0 m 1,0,-1
 0 0 l 1,1,-1
 0 1300 l 1,2,-1
 300 1300 l 1,3,-1
 300 0 l 1,0,-1
450 1750 m 1,4,-1
 200 1400 l 1,5,-1
 -150 1400 l 1,6,-1
 100 1750 l 1,7,-1
 450 1750 l 1,4,-1
EndSplineSet
EndChar

StartChar: Icircumflex
Encoding: 206 206 142
Width: 450
Flags: W
LayerCount: 2
Fore
SplineSet
300 0 m 1,0,-1
 0 0 l 1,1,-1
 0 1300 l 1,2,-1
 300 1300 l 1,3,-1
 300 0 l 1,0,-1
325 1750 m 1,4,-1
 575 1400 l 1,5,-1
 225 1400 l 1,6,-1
 150 1497 l 1,7,-1
 75 1400 l 1,8,-1
 -275 1400 l 1,9,-1
 -25 1750 l 1,10,-1
 325 1750 l 1,4,-1
EndSplineSet
EndChar

StartChar: Idieresis
Encoding: 207 207 143
Width: 450
Flags: W
LayerCount: 2
Fore
SplineSet
300 0 m 1,0,-1
 0 0 l 1,1,-1
 0 1300 l 1,2,-1
 300 1300 l 1,3,-1
 300 0 l 1,0,-1
-275 1750 m 1,4,-1
 25 1750 l 1,5,-1
 25 1450 l 1,6,-1
 -275 1450 l 1,7,-1
 -275 1750 l 1,4,-1
275 1750 m 1,8,-1
 575 1750 l 1,9,-1
 575 1450 l 1,10,-1
 275 1450 l 1,11,-1
 275 1750 l 1,8,-1
EndSplineSet
EndChar

StartChar: Eth
Encoding: 208 208 144
Width: 1400
Flags: W
LayerCount: 2
Fore
SplineSet
600 500 m 1,0,-1
 600 300 l 1,1,-1
 650 300 l 2,2,3
 774 300 774 300 862 402.5 c 128,-1,4
 950 505 950 505 950 650 c 256,5,6
 950 795 950 795 862 897.5 c 128,-1,7
 774 1000 774 1000 650 1000 c 2,8,-1
 600 1000 l 1,9,-1
 600 800 l 1,10,-1
 750 800 l 1,11,-1
 750 500 l 1,12,-1
 600 500 l 1,0,-1
300 800 m 1,13,-1
 300 1300 l 1,14,-1
 650 1300 l 2,15,16
 899 1300 899 1300 1074.5 1109.5 c 128,-1,17
 1250 919 1250 919 1250 650 c 256,18,19
 1250 381 1250 381 1074.5 190.5 c 128,-1,20
 899 0 899 0 650 0 c 2,21,-1
 300 0 l 1,22,-1
 300 500 l 1,23,-1
 150 500 l 1,24,-1
 0 800 l 1,25,-1
 300 800 l 1,13,-1
EndSplineSet
EndChar

StartChar: Ntilde
Encoding: 209 209 145
Width: 1300
Flags: W
LayerCount: 2
Fore
SplineSet
0 1300 m 1,0,-1
 300 1300 l 1,1,-1
 850 506 l 1,2,-1
 850 1300 l 1,3,-1
 1150 1300 l 1,4,-1
 1150 0 l 1,5,-1
 850 0 l 1,6,-1
 300 794 l 1,7,-1
 300 0 l 1,8,-1
 0 0 l 1,9,-1
 0 1300 l 1,0,-1
975 1450 m 128,-1,11
 875 1350 875 1350 725 1350 c 256,12,13
 575 1350 575 1350 525 1400 c 256,14,15
 475 1450 475 1450 425 1450 c 256,16,17
 375 1450 375 1450 375 1400 c 2,18,-1
 375 1350 l 1,19,-1
 75 1400 l 1,20,21
 75 1545 75 1545 177.5 1647.5 c 128,-1,22
 280 1750 280 1750 425 1750 c 0,23,24
 575 1750 575 1750 625 1700 c 0,25,26
 674 1650 674 1650 725 1650 c 0,27,28
 775 1650 775 1650 775 1700 c 2,29,-1
 775 1750 l 1,30,-1
 1075 1700 l 1,31,10
 1075 1550 1075 1550 975 1450 c 128,-1,11
EndSplineSet
EndChar

StartChar: Ograve
Encoding: 210 210 146
Width: 1350
Flags: W
LayerCount: 2
Fore
SplineSet
1024.5 1109.5 m 128,-1,1
 1200 919 1200 919 1200 650 c 256,2,3
 1200 381 1200 381 1024.5 190.5 c 128,-1,4
 849 0 849 0 600 0 c 256,5,6
 351 0 351 0 175.5 190.5 c 128,-1,7
 0 381 0 381 0 650 c 256,8,9
 0 919 0 919 175.5 1109.5 c 128,-1,10
 351 1300 351 1300 600 1300 c 256,11,0
 849 1300 849 1300 1024.5 1109.5 c 128,-1,1
388 897.5 m 128,-1,13
 300 795 300 795 300 650 c 256,14,15
 300 505 300 505 388 402.5 c 128,-1,16
 476 300 476 300 600 300 c 256,17,18
 724 300 724 300 812 402.5 c 128,-1,19
 900 505 900 505 900 650 c 256,20,21
 900 795 900 795 812 897.5 c 128,-1,22
 724 1000 724 1000 600 1000 c 256,23,12
 476 1000 476 1000 388 897.5 c 128,-1,13
650 1750 m 1,24,-1
 900 1400 l 1,25,-1
 550 1400 l 1,26,-1
 300 1750 l 1,27,-1
 650 1750 l 1,24,-1
EndSplineSet
EndChar

StartChar: Oacute
Encoding: 211 211 147
Width: 1350
Flags: W
LayerCount: 2
Fore
SplineSet
1024.5 1109.5 m 128,-1,1
 1200 919 1200 919 1200 650 c 256,2,3
 1200 381 1200 381 1024.5 190.5 c 128,-1,4
 849 0 849 0 600 0 c 256,5,6
 351 0 351 0 175.5 190.5 c 128,-1,7
 0 381 0 381 0 650 c 256,8,9
 0 919 0 919 175.5 1109.5 c 128,-1,10
 351 1300 351 1300 600 1300 c 256,11,0
 849 1300 849 1300 1024.5 1109.5 c 128,-1,1
388 897.5 m 128,-1,13
 300 795 300 795 300 650 c 256,14,15
 300 505 300 505 388 402.5 c 128,-1,16
 476 300 476 300 600 300 c 256,17,18
 724 300 724 300 812 402.5 c 128,-1,19
 900 505 900 505 900 650 c 256,20,21
 900 795 900 795 812 897.5 c 128,-1,22
 724 1000 724 1000 600 1000 c 256,23,12
 476 1000 476 1000 388 897.5 c 128,-1,13
900 1750 m 1,24,-1
 650 1400 l 1,25,-1
 300 1400 l 1,26,-1
 550 1750 l 1,27,-1
 900 1750 l 1,24,-1
EndSplineSet
EndChar

StartChar: Ocircumflex
Encoding: 212 212 148
Width: 1350
Flags: W
LayerCount: 2
Fore
SplineSet
1024.5 1109.5 m 128,-1,1
 1200 919 1200 919 1200 650 c 256,2,3
 1200 381 1200 381 1024.5 190.5 c 128,-1,4
 849 0 849 0 600 0 c 256,5,6
 351 0 351 0 175.5 190.5 c 128,-1,7
 0 381 0 381 0 650 c 256,8,9
 0 919 0 919 175.5 1109.5 c 128,-1,10
 351 1300 351 1300 600 1300 c 256,11,0
 849 1300 849 1300 1024.5 1109.5 c 128,-1,1
388 897.5 m 128,-1,13
 300 795 300 795 300 650 c 256,14,15
 300 505 300 505 388 402.5 c 128,-1,16
 476 300 476 300 600 300 c 256,17,18
 724 300 724 300 812 402.5 c 128,-1,19
 900 505 900 505 900 650 c 256,20,21
 900 795 900 795 812 897.5 c 128,-1,22
 724 1000 724 1000 600 1000 c 256,23,12
 476 1000 476 1000 388 897.5 c 128,-1,13
775 1750 m 1,24,-1
 1025 1400 l 1,25,-1
 675 1400 l 1,26,-1
 600 1497 l 1,27,-1
 525 1400 l 1,28,-1
 175 1400 l 1,29,-1
 425 1750 l 1,30,-1
 775 1750 l 1,24,-1
EndSplineSet
EndChar

StartChar: Otilde
Encoding: 213 213 149
Width: 1350
Flags: W
LayerCount: 2
Fore
SplineSet
1024.5 1109.5 m 128,-1,1
 1200 919 1200 919 1200 650 c 256,2,3
 1200 381 1200 381 1024.5 190.5 c 128,-1,4
 849 0 849 0 600 0 c 256,5,6
 351 0 351 0 175.5 190.5 c 128,-1,7
 0 381 0 381 0 650 c 256,8,9
 0 919 0 919 175.5 1109.5 c 128,-1,10
 351 1300 351 1300 600 1300 c 256,11,0
 849 1300 849 1300 1024.5 1109.5 c 128,-1,1
388 897.5 m 128,-1,13
 300 795 300 795 300 650 c 256,14,15
 300 505 300 505 388 402.5 c 128,-1,16
 476 300 476 300 600 300 c 256,17,18
 724 300 724 300 812 402.5 c 128,-1,19
 900 505 900 505 900 650 c 256,20,21
 900 795 900 795 812 897.5 c 128,-1,22
 724 1000 724 1000 600 1000 c 256,23,12
 476 1000 476 1000 388 897.5 c 128,-1,13
1000 1450 m 128,-1,25
 900 1350 900 1350 750 1350 c 256,26,27
 600 1350 600 1350 550 1400 c 256,28,29
 500 1450 500 1450 450 1450 c 256,30,31
 400 1450 400 1450 400 1400 c 2,32,-1
 400 1350 l 1,33,-1
 100 1400 l 1,34,35
 100 1545 100 1545 202.5 1647.5 c 128,-1,36
 305 1750 305 1750 450 1750 c 0,37,38
 600 1750 600 1750 650 1700 c 0,39,40
 699 1650 699 1650 750 1650 c 0,41,42
 800 1650 800 1650 800 1700 c 2,43,-1
 800 1750 l 1,44,-1
 1100 1700 l 1,45,24
 1100 1550 1100 1550 1000 1450 c 128,-1,25
EndSplineSet
EndChar

StartChar: Odieresis
Encoding: 214 214 150
Width: 1350
Flags: W
LayerCount: 2
Fore
SplineSet
1024.5 1109.5 m 128,-1,1
 1200 919 1200 919 1200 650 c 256,2,3
 1200 381 1200 381 1024.5 190.5 c 128,-1,4
 849 0 849 0 600 0 c 256,5,6
 351 0 351 0 175.5 190.5 c 128,-1,7
 0 381 0 381 0 650 c 256,8,9
 0 919 0 919 175.5 1109.5 c 128,-1,10
 351 1300 351 1300 600 1300 c 256,11,0
 849 1300 849 1300 1024.5 1109.5 c 128,-1,1
388 897.5 m 128,-1,13
 300 795 300 795 300 650 c 256,14,15
 300 505 300 505 388 402.5 c 128,-1,16
 476 300 476 300 600 300 c 256,17,18
 724 300 724 300 812 402.5 c 128,-1,19
 900 505 900 505 900 650 c 256,20,21
 900 795 900 795 812 897.5 c 128,-1,22
 724 1000 724 1000 600 1000 c 256,23,12
 476 1000 476 1000 388 897.5 c 128,-1,13
175 1750 m 1,24,-1
 475 1750 l 1,25,-1
 475 1450 l 1,26,-1
 175 1450 l 1,27,-1
 175 1750 l 1,24,-1
725 1750 m 1,28,-1
 1025 1750 l 1,29,-1
 1025 1450 l 1,30,-1
 725 1450 l 1,31,-1
 725 1750 l 1,28,-1
EndSplineSet
EndChar

StartChar: multiply
Encoding: 215 215 151
Width: 1200
Flags: W
LayerCount: 2
Fore
SplineSet
700 650 m 1,0,-1
 1050 150 l 1,1,-1
 700 150 l 1,2,-1
 525 397 l 1,3,-1
 350 150 l 1,4,-1
 0 150 l 1,5,-1
 350 650 l 1,6,-1
 0 1150 l 1,7,-1
 350 1150 l 1,8,-1
 525 903 l 1,9,-1
 700 1150 l 1,10,-1
 1050 1150 l 1,11,-1
 700 650 l 1,0,-1
EndSplineSet
EndChar

StartChar: Oslash
Encoding: 216 216 152
Width: 1350
Flags: W
LayerCount: 2
Fore
SplineSet
335 484 m 1,0,-1
 683 987 l 1,1,2
 644 1000 644 1000 600 1000 c 0,3,4
 476 1000 476 1000 388 897.5 c 128,-1,5
 300 795 300 795 300 650 c 0,6,7
 300 559 300 559 335 484 c 1,0,-1
380 43 m 1,8,-1
 350 0 l 1,9,-1
 0 0 l 1,10,-1
 151 218 l 1,11,12
 0 400 0 400 0 650 c 0,13,14
 0 919 0 919 175.5 1109.5 c 128,-1,15
 351 1300 351 1300 600 1300 c 0,16,17
 741 1300 741 1300 858 1239 c 1,18,-1
 900 1300 l 1,19,-1
 1250 1300 l 1,20,-1
 1075 1048 l 1,21,22
 1200 877 1200 877 1200 650 c 0,23,24
 1200 381 1200 381 1024.5 190.5 c 128,-1,25
 849 0 849 0 600 0 c 0,26,27
 482 0 482 0 380 43 c 1,8,-1
883 770 m 1,28,-1
 560 303 l 1,29,30
 579 300 579 300 600 300 c 0,31,32
 724 300 724 300 812 402.5 c 128,-1,33
 900 505 900 505 900 650 c 0,34,35
 900 714 900 714 883 770 c 1,28,-1
EndSplineSet
EndChar

StartChar: Ugrave
Encoding: 217 217 153
Width: 1350
Flags: W
LayerCount: 2
Fore
SplineSet
0 650 m 2,0,-1
 0 1300 l 1,1,-1
 300 1300 l 1,2,-1
 300 650 l 2,3,4
 300 505 300 505 388 402.5 c 128,-1,5
 476 300 476 300 600 300 c 256,6,7
 724 300 724 300 812 402.5 c 128,-1,8
 900 505 900 505 900 650 c 2,9,-1
 900 1300 l 1,10,-1
 1200 1300 l 1,11,-1
 1200 650 l 2,12,13
 1200 381 1200 381 1024.5 190.5 c 128,-1,14
 849 0 849 0 600 0 c 256,15,16
 351 0 351 0 175.5 190.5 c 128,-1,17
 0 381 0 381 0 650 c 2,0,-1
650 1750 m 1,18,-1
 900 1400 l 1,19,-1
 550 1400 l 1,20,-1
 300 1750 l 1,21,-1
 650 1750 l 1,18,-1
EndSplineSet
EndChar

StartChar: Uacute
Encoding: 218 218 154
Width: 1350
Flags: W
LayerCount: 2
Fore
SplineSet
0 650 m 2,0,-1
 0 1300 l 1,1,-1
 300 1300 l 1,2,-1
 300 650 l 2,3,4
 300 505 300 505 388 402.5 c 128,-1,5
 476 300 476 300 600 300 c 256,6,7
 724 300 724 300 812 402.5 c 128,-1,8
 900 505 900 505 900 650 c 2,9,-1
 900 1300 l 1,10,-1
 1200 1300 l 1,11,-1
 1200 650 l 2,12,13
 1200 381 1200 381 1024.5 190.5 c 128,-1,14
 849 0 849 0 600 0 c 256,15,16
 351 0 351 0 175.5 190.5 c 128,-1,17
 0 381 0 381 0 650 c 2,0,-1
900 1750 m 1,18,-1
 650 1400 l 1,19,-1
 300 1400 l 1,20,-1
 550 1750 l 1,21,-1
 900 1750 l 1,18,-1
EndSplineSet
EndChar

StartChar: Ucircumflex
Encoding: 219 219 155
Width: 1350
Flags: W
LayerCount: 2
Fore
SplineSet
0 650 m 2,0,-1
 0 1300 l 1,1,-1
 300 1300 l 1,2,-1
 300 650 l 2,3,4
 300 505 300 505 388 402.5 c 128,-1,5
 476 300 476 300 600 300 c 256,6,7
 724 300 724 300 812 402.5 c 128,-1,8
 900 505 900 505 900 650 c 2,9,-1
 900 1300 l 1,10,-1
 1200 1300 l 1,11,-1
 1200 650 l 2,12,13
 1200 381 1200 381 1024.5 190.5 c 128,-1,14
 849 0 849 0 600 0 c 256,15,16
 351 0 351 0 175.5 190.5 c 128,-1,17
 0 381 0 381 0 650 c 2,0,-1
775 1750 m 1,18,-1
 1025 1400 l 1,19,-1
 675 1400 l 1,20,-1
 600 1497 l 1,21,-1
 525 1400 l 1,22,-1
 175 1400 l 1,23,-1
 425 1750 l 1,24,-1
 775 1750 l 1,18,-1
EndSplineSet
EndChar

StartChar: Udieresis
Encoding: 220 220 156
Width: 1350
Flags: W
LayerCount: 2
Fore
SplineSet
0 650 m 2,0,-1
 0 1300 l 1,1,-1
 300 1300 l 1,2,-1
 300 650 l 2,3,4
 300 505 300 505 388 402.5 c 128,-1,5
 476 300 476 300 600 300 c 256,6,7
 724 300 724 300 812 402.5 c 128,-1,8
 900 505 900 505 900 650 c 2,9,-1
 900 1300 l 1,10,-1
 1200 1300 l 1,11,-1
 1200 650 l 2,12,13
 1200 381 1200 381 1024.5 190.5 c 128,-1,14
 849 0 849 0 600 0 c 256,15,16
 351 0 351 0 175.5 190.5 c 128,-1,17
 0 381 0 381 0 650 c 2,0,-1
175 1750 m 1,18,-1
 475 1750 l 1,19,-1
 475 1450 l 1,20,-1
 175 1450 l 1,21,-1
 175 1750 l 1,18,-1
725 1750 m 1,22,-1
 1025 1750 l 1,23,-1
 1025 1450 l 1,24,-1
 725 1450 l 1,25,-1
 725 1750 l 1,22,-1
EndSplineSet
EndChar

StartChar: Yacute
Encoding: 221 221 157
Width: 1350
Flags: W
LayerCount: 2
Fore
SplineSet
475 614 m 1,0,-1
 450 650 l 1,1,-1
 0 1300 l 1,2,-1
 350 1300 l 1,3,-1
 625 903 l 1,4,-1
 900 1300 l 1,5,-1
 1250 1300 l 1,6,-1
 800 650 l 1,7,-1
 775 614 l 1,8,-1
 775 0 l 1,9,-1
 475 0 l 1,10,-1
 475 614 l 1,0,-1
925 1750 m 1,11,-1
 675 1400 l 1,12,-1
 325 1400 l 1,13,-1
 575 1750 l 1,14,-1
 925 1750 l 1,11,-1
EndSplineSet
EndChar

StartChar: Thorn
Encoding: 222 222 158
Width: 1300
Flags: W
LayerCount: 2
Fore
SplineSet
750 550 m 2,0,1
 791 550 791 550 820.5 586.5 c 128,-1,2
 850 623 850 623 850 675 c 256,3,4
 850 727 850 727 820.5 763.5 c 128,-1,5
 791 800 791 800 750 800 c 2,6,-1
 300 800 l 1,7,-1
 300 550 l 1,8,-1
 750 550 l 2,0,1
300 1100 m 1,9,-1
 750 1100 l 2,10,11
 916 1100 916 1100 1033 975.5 c 128,-1,12
 1150 851 1150 851 1150 675 c 256,13,14
 1150 499 1150 499 1033 374.5 c 128,-1,15
 916 250 916 250 750 250 c 2,16,-1
 400 250 l 1,17,-1
 300 450 l 1,18,-1
 300 0 l 1,19,-1
 0 0 l 1,20,-1
 0 1300 l 1,21,-1
 300 1300 l 1,22,-1
 300 1100 l 1,9,-1
EndSplineSet
EndChar

StartChar: germandbls
Encoding: 223 223 159
Width: 1300
Flags: W
LayerCount: 2
Fore
SplineSet
750 800 m 2,0,1
 791 800 791 800 820.5 829.5 c 128,-1,2
 850 859 850 859 850 900 c 256,3,4
 850 941 850 941 820.5 970.5 c 128,-1,5
 791 1000 791 1000 750 1000 c 2,6,-1
 400 1000 l 2,7,8
 359 1000 359 1000 329.5 970.5 c 128,-1,9
 300 941 300 941 300 900 c 2,10,-1
 300 800 l 1,11,-1
 750 800 l 2,0,1
0 900 m 2,12,13
 0 1066 0 1066 117 1183 c 128,-1,14
 234 1300 234 1300 400 1300 c 2,15,-1
 750 1300 l 2,16,17
 916 1300 916 1300 1033 1183 c 128,-1,18
 1150 1066 1150 1066 1150 900 c 0,19,20
 1150 757 1150 757 1063 650 c 1,21,22
 1150 543 1150 543 1150 400 c 0,23,24
 1150 234 1150 234 1033 117 c 128,-1,25
 916 0 916 0 750 0 c 2,26,-1
 450 0 l 1,27,-1
 450 300 l 1,28,-1
 750 300 l 2,29,30
 791 300 791 300 820.5 329.5 c 128,-1,31
 850 359 850 359 850 400 c 256,32,33
 850 441 850 441 820.5 470.5 c 128,-1,34
 791 500 791 500 750 500 c 2,35,-1
 400 500 l 1,36,-1
 300 700 l 1,37,-1
 300 0 l 1,38,-1
 0 0 l 1,39,-1
 0 900 l 2,12,13
EndSplineSet
EndChar

StartChar: agrave
Encoding: 224 224 160
Width: 1080
Flags: W
LayerCount: 2
Fore
SplineSet
395 331 m 1,0,-1
 280 0 l 1,1,-1
 0 0 l 1,2,-1
 360 1040 l 1,3,-1
 640 1040 l 1,4,-1
 1000 0 l 1,5,-1
 720 0 l 1,6,-1
 665 160 l 1,7,-1
 480 160 l 1,8,-1
 395 331 l 1,0,-1
581 400 m 1,9,-1
 500 635 l 1,10,-1
 419 400 l 1,11,-1
 581 400 l 1,9,-1
540 1400 m 1,12,-1
 740 1120 l 1,13,-1
 460 1120 l 1,14,-1
 260 1400 l 1,15,-1
 540 1400 l 1,12,-1
EndSplineSet
EndChar

StartChar: aacute
Encoding: 225 225 161
Width: 1080
Flags: W
LayerCount: 2
Fore
SplineSet
395 331 m 1,0,-1
 280 0 l 1,1,-1
 0 0 l 1,2,-1
 360 1040 l 1,3,-1
 640 1040 l 1,4,-1
 1000 0 l 1,5,-1
 720 0 l 1,6,-1
 665 160 l 1,7,-1
 480 160 l 1,8,-1
 395 331 l 1,0,-1
581 400 m 1,9,-1
 500 635 l 1,10,-1
 419 400 l 1,11,-1
 581 400 l 1,9,-1
740 1400 m 1,12,-1
 540 1120 l 1,13,-1
 260 1120 l 1,14,-1
 460 1400 l 1,15,-1
 740 1400 l 1,12,-1
EndSplineSet
EndChar

StartChar: acircumflex
Encoding: 226 226 162
Width: 1080
Flags: W
LayerCount: 2
Fore
SplineSet
395 331 m 1,0,-1
 280 0 l 1,1,-1
 0 0 l 1,2,-1
 360 1040 l 1,3,-1
 640 1040 l 1,4,-1
 1000 0 l 1,5,-1
 720 0 l 1,6,-1
 665 160 l 1,7,-1
 480 160 l 1,8,-1
 395 331 l 1,0,-1
581 400 m 1,9,-1
 500 635 l 1,10,-1
 419 400 l 1,11,-1
 581 400 l 1,9,-1
640 1400 m 1,12,-1
 840 1120 l 1,13,-1
 560 1120 l 1,14,-1
 500 1198 l 1,15,-1
 440 1120 l 1,16,-1
 160 1120 l 1,17,-1
 360 1400 l 1,18,-1
 640 1400 l 1,12,-1
EndSplineSet
EndChar

StartChar: atilde
Encoding: 227 227 163
Width: 1080
Flags: W
LayerCount: 2
Fore
SplineSet
395 331 m 1,0,-1
 280 0 l 1,1,-1
 0 0 l 1,2,-1
 360 1040 l 1,3,-1
 640 1040 l 1,4,-1
 1000 0 l 1,5,-1
 720 0 l 1,6,-1
 665 160 l 1,7,-1
 480 160 l 1,8,-1
 395 331 l 1,0,-1
581 400 m 1,9,-1
 500 635 l 1,10,-1
 419 400 l 1,11,-1
 581 400 l 1,9,-1
820 1160 m 128,-1,13
 740 1080 740 1080 620 1080 c 256,14,15
 500 1080 500 1080 460 1120 c 256,16,17
 420 1160 420 1160 380 1160 c 256,18,19
 340 1160 340 1160 340 1120 c 2,20,-1
 340 1080 l 1,21,-1
 100 1120 l 1,22,23
 100 1236 100 1236 182 1318 c 128,-1,24
 264 1400 264 1400 380 1400 c 0,25,26
 500 1400 500 1400 540 1360 c 0,27,28
 579 1320 579 1320 620 1320 c 0,29,30
 660 1320 660 1320 660 1360 c 2,31,-1
 660 1400 l 1,32,-1
 900 1360 l 1,33,12
 900 1240 900 1240 820 1160 c 128,-1,13
EndSplineSet
EndChar

StartChar: adieresis
Encoding: 228 228 164
Width: 1080
Flags: W
LayerCount: 2
Fore
SplineSet
395 331 m 1,0,-1
 280 0 l 1,1,-1
 0 0 l 1,2,-1
 360 1040 l 1,3,-1
 640 1040 l 1,4,-1
 1000 0 l 1,5,-1
 720 0 l 1,6,-1
 665 160 l 1,7,-1
 480 160 l 1,8,-1
 395 331 l 1,0,-1
581 400 m 1,9,-1
 500 635 l 1,10,-1
 419 400 l 1,11,-1
 581 400 l 1,9,-1
160 1400 m 1,12,-1
 400 1400 l 1,13,-1
 400 1160 l 1,14,-1
 160 1160 l 1,15,-1
 160 1400 l 1,12,-1
600 1400 m 1,16,-1
 840 1400 l 1,17,-1
 840 1160 l 1,18,-1
 600 1160 l 1,19,-1
 600 1400 l 1,16,-1
EndSplineSet
EndChar

StartChar: aring
Encoding: 229 229 165
Width: 1100
Flags: W
LayerCount: 2
Fore
SplineSet
394 331 m 1,0,-1
 280 0 l 1,1,-1
 0 0 l 1,2,-1
 360 1040 l 1,3,-1
 640 1040 l 1,4,-1
 1000 0 l 1,5,-1
 720 0 l 1,6,-1
 665 160 l 1,7,-1
 480 160 l 1,8,-1
 394 331 l 1,0,-1
582 400 m 1,9,-1
 500 635 l 1,10,-1
 418 400 l 1,11,-1
 582 400 l 1,9,-1
500 1120 m 256,12,13
 442 1120 442 1120 401 1161 c 128,-1,14
 360 1202 360 1202 360 1260 c 256,15,16
 360 1318 360 1318 401 1359 c 128,-1,17
 442 1400 442 1400 500 1400 c 256,18,19
 558 1400 558 1400 599 1359 c 128,-1,20
 640 1318 640 1318 640 1260 c 256,21,22
 640 1202 640 1202 599 1161 c 128,-1,23
 558 1120 558 1120 500 1120 c 256,12,13
EndSplineSet
EndChar

StartChar: ae
Encoding: 230 230 166
Width: 1400
Flags: W
LayerCount: 2
Fore
SplineSet
582 400 m 1,0,-1
 500 635 l 1,1,-1
 418 400 l 1,2,-1
 582 400 l 1,0,-1
778 640 m 1,3,-1
 1161 640 l 1,4,-1
 1161 400 l 1,5,-1
 862 400 l 1,6,-1
 917 240 l 1,7,-1
 1280 240 l 1,8,-1
 1280 0 l 1,9,-1
 720 0 l 1,10,-1
 665 160 l 1,11,-1
 480 160 l 1,12,-1
 394 331 l 1,13,-1
 280 0 l 1,14,-1
 0 0 l 1,15,-1
 360 1040 l 1,16,-1
 1280 1040 l 1,17,-1
 1160 800 l 1,18,-1
 723 800 l 1,19,-1
 778 640 l 1,3,-1
EndSplineSet
EndChar

StartChar: ccedilla
Encoding: 231 231 167
Width: 1080
Flags: W
LayerCount: 2
Fore
SplineSet
720 0 m 1,0,1
 720 -133 720 -133 626.5 -226.5 c 128,-1,2
 533 -320 533 -320 400 -320 c 1,3,-1
 280 -80 l 1,4,-1
 400 -80 l 2,5,6
 433 -80 433 -80 456.5 -56.5 c 128,-1,7
 480 -33 480 -33 480 0 c 1,8,9
 281 0 281 0 140.5 152.5 c 128,-1,10
 0 305 0 305 0 520 c 256,11,12
 0 735 0 735 141 888 c 0,13,14
 281 1040 281 1040 479 1040 c 2,15,-1
 960 1040 l 1,16,-1
 880 800 l 1,17,-1
 480 800 l 2,18,19
 381 800 381 800 310.5 718 c 128,-1,20
 240 636 240 636 240 520 c 256,21,22
 240 404 240 404 310.5 322 c 128,-1,23
 381 240 381 240 480 240 c 2,24,-1
 960 240 l 1,25,-1
 960 0 l 1,26,-1
 720 0 l 1,0,1
EndSplineSet
EndChar

StartChar: egrave
Encoding: 232 232 168
Width: 920
Flags: W
LayerCount: 2
Fore
SplineSet
800 1040 m 1,0,-1
 680 800 l 1,1,-1
 0 800 l 1,2,-1
 0 1040 l 1,3,-1
 800 1040 l 1,0,-1
0 640 m 1,4,-1
 681 640 l 1,5,-1
 681 400 l 1,6,-1
 0 400 l 1,7,-1
 0 640 l 1,4,-1
0 240 m 1,8,-1
 800 240 l 1,9,-1
 800 0 l 1,10,-1
 1 0 l 1,11,-1
 0 240 l 1,8,-1
440 1400 m 1,12,-1
 640 1120 l 1,13,-1
 360 1120 l 1,14,-1
 160 1400 l 1,15,-1
 440 1400 l 1,12,-1
EndSplineSet
EndChar

StartChar: eacute
Encoding: 233 233 169
Width: 920
Flags: W
LayerCount: 2
Fore
SplineSet
800 1040 m 1,0,-1
 680 800 l 1,1,-1
 0 800 l 1,2,-1
 0 1040 l 1,3,-1
 800 1040 l 1,0,-1
0 640 m 1,4,-1
 681 640 l 1,5,-1
 681 400 l 1,6,-1
 0 400 l 1,7,-1
 0 640 l 1,4,-1
0 240 m 1,8,-1
 800 240 l 1,9,-1
 800 0 l 1,10,-1
 1 0 l 1,11,-1
 0 240 l 1,8,-1
640 1400 m 1,12,-1
 440 1120 l 1,13,-1
 160 1120 l 1,14,-1
 360 1400 l 1,15,-1
 640 1400 l 1,12,-1
EndSplineSet
EndChar

StartChar: ecircumflex
Encoding: 234 234 170
Width: 920
Flags: W
LayerCount: 2
Fore
SplineSet
800 1040 m 1,0,-1
 680 800 l 1,1,-1
 0 800 l 1,2,-1
 0 1040 l 1,3,-1
 800 1040 l 1,0,-1
0 640 m 1,4,-1
 681 640 l 1,5,-1
 681 400 l 1,6,-1
 0 400 l 1,7,-1
 0 640 l 1,4,-1
0 240 m 1,8,-1
 800 240 l 1,9,-1
 800 0 l 1,10,-1
 1 0 l 1,11,-1
 0 240 l 1,8,-1
540 1400 m 1,12,-1
 740 1120 l 1,13,-1
 460 1120 l 1,14,-1
 400 1198 l 1,15,-1
 340 1120 l 1,16,-1
 60 1120 l 1,17,-1
 260 1400 l 1,18,-1
 540 1400 l 1,12,-1
EndSplineSet
EndChar

StartChar: edieresis
Encoding: 235 235 171
Width: 920
Flags: W
LayerCount: 2
Fore
SplineSet
800 1040 m 1,0,-1
 680 800 l 1,1,-1
 0 800 l 1,2,-1
 0 1040 l 1,3,-1
 800 1040 l 1,0,-1
0 640 m 1,4,-1
 681 640 l 1,5,-1
 681 400 l 1,6,-1
 0 400 l 1,7,-1
 0 640 l 1,4,-1
0 240 m 1,8,-1
 800 240 l 1,9,-1
 800 0 l 1,10,-1
 1 0 l 1,11,-1
 0 240 l 1,8,-1
60 1400 m 1,12,-1
 300 1400 l 1,13,-1
 300 1160 l 1,14,-1
 60 1160 l 1,15,-1
 60 1400 l 1,12,-1
500 1400 m 1,16,-1
 740 1400 l 1,17,-1
 740 1160 l 1,18,-1
 500 1160 l 1,19,-1
 500 1400 l 1,16,-1
EndSplineSet
EndChar

StartChar: igrave
Encoding: 236 236 172
Width: 360
Flags: W
LayerCount: 2
Fore
SplineSet
240 0 m 1,0,-1
 0 0 l 1,1,-1
 0 1040 l 1,2,-1
 240 1040 l 1,3,-1
 240 0 l 1,0,-1
160 1400 m 1,4,-1
 360 1120 l 1,5,-1
 80 1120 l 1,6,-1
 -120 1400 l 1,7,-1
 160 1400 l 1,4,-1
EndSplineSet
EndChar

StartChar: iacute
Encoding: 237 237 173
Width: 360
Flags: W
LayerCount: 2
Fore
SplineSet
240 0 m 1,0,-1
 0 0 l 1,1,-1
 0 1040 l 1,2,-1
 240 1040 l 1,3,-1
 240 0 l 1,0,-1
360 1400 m 1,4,-1
 160 1120 l 1,5,-1
 -120 1120 l 1,6,-1
 80 1400 l 1,7,-1
 360 1400 l 1,4,-1
EndSplineSet
EndChar

StartChar: icircumflex
Encoding: 238 238 174
Width: 360
Flags: W
LayerCount: 2
Fore
SplineSet
240 0 m 1,0,-1
 0 0 l 1,1,-1
 0 1040 l 1,2,-1
 240 1040 l 1,3,-1
 240 0 l 1,0,-1
260 1400 m 1,4,-1
 460 1120 l 1,5,-1
 180 1120 l 1,6,-1
 120 1198 l 1,7,-1
 60 1120 l 1,8,-1
 -220 1120 l 1,9,-1
 -20 1400 l 1,10,-1
 260 1400 l 1,4,-1
EndSplineSet
EndChar

StartChar: idieresis
Encoding: 239 239 175
Width: 360
Flags: W
LayerCount: 2
Fore
SplineSet
240 0 m 1,0,-1
 0 0 l 1,1,-1
 0 1040 l 1,2,-1
 240 1040 l 1,3,-1
 240 0 l 1,0,-1
-220 1400 m 1,4,-1
 20 1400 l 1,5,-1
 20 1160 l 1,6,-1
 -220 1160 l 1,7,-1
 -220 1400 l 1,4,-1
220 1400 m 1,8,-1
 460 1400 l 1,9,-1
 460 1160 l 1,10,-1
 220 1160 l 1,11,-1
 220 1400 l 1,8,-1
EndSplineSet
EndChar

StartChar: eth
Encoding: 240 240 176
Width: 1120
Flags: W
LayerCount: 2
Fore
SplineSet
480 400 m 1,0,-1
 480 240 l 1,1,-1
 520 240 l 2,2,3
 619 240 619 240 689.5 322 c 128,-1,4
 760 404 760 404 760 520 c 256,5,6
 760 636 760 636 689.5 718 c 128,-1,7
 619 800 619 800 520 800 c 2,8,-1
 480 800 l 1,9,-1
 480 640 l 1,10,-1
 600 640 l 1,11,-1
 600 400 l 1,12,-1
 480 400 l 1,0,-1
240 640 m 1,13,-1
 240 1040 l 1,14,-1
 520 1040 l 2,15,16
 719 1040 719 1040 859.5 887.5 c 128,-1,17
 1000 735 1000 735 1000 520 c 256,18,19
 1000 305 1000 305 859.5 152.5 c 128,-1,20
 719 0 719 0 520 0 c 2,21,-1
 240 0 l 1,22,-1
 240 400 l 1,23,-1
 120 400 l 1,24,-1
 0 640 l 1,25,-1
 240 640 l 1,13,-1
EndSplineSet
EndChar

StartChar: ntilde
Encoding: 241 241 177
Width: 1040
Flags: W
LayerCount: 2
Fore
SplineSet
0 1040 m 1,0,-1
 240 1040 l 1,1,-1
 680 404 l 1,2,-1
 680 1040 l 1,3,-1
 920 1040 l 1,4,-1
 920 0 l 1,5,-1
 680 0 l 1,6,-1
 240 636 l 1,7,-1
 240 0 l 1,8,-1
 0 0 l 1,9,-1
 0 1040 l 1,0,-1
780 1160 m 128,-1,11
 700 1080 700 1080 580 1080 c 256,12,13
 460 1080 460 1080 420 1120 c 256,14,15
 380 1160 380 1160 340 1160 c 256,16,17
 300 1160 300 1160 300 1120 c 2,18,-1
 300 1080 l 1,19,-1
 60 1120 l 1,20,21
 60 1236 60 1236 142 1318 c 128,-1,22
 224 1400 224 1400 340 1400 c 0,23,24
 460 1400 460 1400 500 1360 c 0,25,26
 539 1320 539 1320 580 1320 c 0,27,28
 620 1320 620 1320 620 1360 c 2,29,-1
 620 1400 l 1,30,-1
 860 1360 l 1,31,10
 860 1240 860 1240 780 1160 c 128,-1,11
EndSplineSet
EndChar

StartChar: ograve
Encoding: 242 242 178
Width: 1080
Flags: W
LayerCount: 2
Fore
SplineSet
819.5 887.5 m 128,-1,1
 960 735 960 735 960 520 c 256,2,3
 960 305 960 305 819.5 152.5 c 128,-1,4
 679 0 679 0 480 0 c 256,5,6
 281 0 281 0 140.5 152.5 c 128,-1,7
 0 305 0 305 0 520 c 256,8,9
 0 735 0 735 140.5 887.5 c 128,-1,10
 281 1040 281 1040 480 1040 c 256,11,0
 679 1040 679 1040 819.5 887.5 c 128,-1,1
310.5 718 m 128,-1,13
 240 636 240 636 240 520 c 256,14,15
 240 404 240 404 310.5 322 c 128,-1,16
 381 240 381 240 480 240 c 256,17,18
 579 240 579 240 649.5 322 c 128,-1,19
 720 404 720 404 720 520 c 256,20,21
 720 636 720 636 649.5 718 c 128,-1,22
 579 800 579 800 480 800 c 256,23,12
 381 800 381 800 310.5 718 c 128,-1,13
520 1400 m 1,24,-1
 720 1120 l 1,25,-1
 440 1120 l 1,26,-1
 240 1400 l 1,27,-1
 520 1400 l 1,24,-1
EndSplineSet
EndChar

StartChar: oacute
Encoding: 243 243 179
Width: 1080
Flags: W
LayerCount: 2
Fore
SplineSet
819.5 887.5 m 128,-1,1
 960 735 960 735 960 520 c 256,2,3
 960 305 960 305 819.5 152.5 c 128,-1,4
 679 0 679 0 480 0 c 256,5,6
 281 0 281 0 140.5 152.5 c 128,-1,7
 0 305 0 305 0 520 c 256,8,9
 0 735 0 735 140.5 887.5 c 128,-1,10
 281 1040 281 1040 480 1040 c 256,11,0
 679 1040 679 1040 819.5 887.5 c 128,-1,1
310.5 718 m 128,-1,13
 240 636 240 636 240 520 c 256,14,15
 240 404 240 404 310.5 322 c 128,-1,16
 381 240 381 240 480 240 c 256,17,18
 579 240 579 240 649.5 322 c 128,-1,19
 720 404 720 404 720 520 c 256,20,21
 720 636 720 636 649.5 718 c 128,-1,22
 579 800 579 800 480 800 c 256,23,12
 381 800 381 800 310.5 718 c 128,-1,13
720 1400 m 1,24,-1
 520 1120 l 1,25,-1
 240 1120 l 1,26,-1
 440 1400 l 1,27,-1
 720 1400 l 1,24,-1
EndSplineSet
EndChar

StartChar: ocircumflex
Encoding: 244 244 180
Width: 1080
Flags: W
LayerCount: 2
Fore
SplineSet
819.5 887.5 m 128,-1,1
 960 735 960 735 960 520 c 256,2,3
 960 305 960 305 819.5 152.5 c 128,-1,4
 679 0 679 0 480 0 c 256,5,6
 281 0 281 0 140.5 152.5 c 128,-1,7
 0 305 0 305 0 520 c 256,8,9
 0 735 0 735 140.5 887.5 c 128,-1,10
 281 1040 281 1040 480 1040 c 256,11,0
 679 1040 679 1040 819.5 887.5 c 128,-1,1
310.5 718 m 128,-1,13
 240 636 240 636 240 520 c 256,14,15
 240 404 240 404 310.5 322 c 128,-1,16
 381 240 381 240 480 240 c 256,17,18
 579 240 579 240 649.5 322 c 128,-1,19
 720 404 720 404 720 520 c 256,20,21
 720 636 720 636 649.5 718 c 128,-1,22
 579 800 579 800 480 800 c 256,23,12
 381 800 381 800 310.5 718 c 128,-1,13
620 1400 m 1,24,-1
 820 1120 l 1,25,-1
 540 1120 l 1,26,-1
 480 1198 l 1,27,-1
 420 1120 l 1,28,-1
 140 1120 l 1,29,-1
 340 1400 l 1,30,-1
 620 1400 l 1,24,-1
EndSplineSet
EndChar

StartChar: otilde
Encoding: 245 245 181
Width: 1080
Flags: W
LayerCount: 2
Fore
SplineSet
819.5 887.5 m 128,-1,1
 960 735 960 735 960 520 c 256,2,3
 960 305 960 305 819.5 152.5 c 128,-1,4
 679 0 679 0 480 0 c 256,5,6
 281 0 281 0 140.5 152.5 c 128,-1,7
 0 305 0 305 0 520 c 256,8,9
 0 735 0 735 140.5 887.5 c 128,-1,10
 281 1040 281 1040 480 1040 c 256,11,0
 679 1040 679 1040 819.5 887.5 c 128,-1,1
310.5 718 m 128,-1,13
 240 636 240 636 240 520 c 256,14,15
 240 404 240 404 310.5 322 c 128,-1,16
 381 240 381 240 480 240 c 256,17,18
 579 240 579 240 649.5 322 c 128,-1,19
 720 404 720 404 720 520 c 256,20,21
 720 636 720 636 649.5 718 c 128,-1,22
 579 800 579 800 480 800 c 256,23,12
 381 800 381 800 310.5 718 c 128,-1,13
800 1160 m 128,-1,25
 720 1080 720 1080 600 1080 c 256,26,27
 480 1080 480 1080 440 1120 c 256,28,29
 400 1160 400 1160 360 1160 c 256,30,31
 320 1160 320 1160 320 1120 c 2,32,-1
 320 1080 l 1,33,-1
 80 1120 l 1,34,35
 80 1236 80 1236 162 1318 c 128,-1,36
 244 1400 244 1400 360 1400 c 0,37,38
 480 1400 480 1400 520 1360 c 0,39,40
 559 1320 559 1320 600 1320 c 0,41,42
 640 1320 640 1320 640 1360 c 2,43,-1
 640 1400 l 1,44,-1
 880 1360 l 1,45,24
 880 1240 880 1240 800 1160 c 128,-1,25
EndSplineSet
EndChar

StartChar: odieresis
Encoding: 246 246 182
Width: 1080
Flags: W
LayerCount: 2
Fore
SplineSet
819.5 887.5 m 128,-1,1
 960 735 960 735 960 520 c 256,2,3
 960 305 960 305 819.5 152.5 c 128,-1,4
 679 0 679 0 480 0 c 256,5,6
 281 0 281 0 140.5 152.5 c 128,-1,7
 0 305 0 305 0 520 c 256,8,9
 0 735 0 735 140.5 887.5 c 128,-1,10
 281 1040 281 1040 480 1040 c 256,11,0
 679 1040 679 1040 819.5 887.5 c 128,-1,1
310.5 718 m 128,-1,13
 240 636 240 636 240 520 c 256,14,15
 240 404 240 404 310.5 322 c 128,-1,16
 381 240 381 240 480 240 c 256,17,18
 579 240 579 240 649.5 322 c 128,-1,19
 720 404 720 404 720 520 c 256,20,21
 720 636 720 636 649.5 718 c 128,-1,22
 579 800 579 800 480 800 c 256,23,12
 381 800 381 800 310.5 718 c 128,-1,13
140 1400 m 1,24,-1
 380 1400 l 1,25,-1
 380 1160 l 1,26,-1
 140 1160 l 1,27,-1
 140 1400 l 1,24,-1
580 1400 m 1,28,-1
 820 1400 l 1,29,-1
 820 1160 l 1,30,-1
 580 1160 l 1,31,-1
 580 1400 l 1,28,-1
EndSplineSet
EndChar

StartChar: divide
Encoding: 247 247 183
Width: 1000
Flags: W
LayerCount: 2
Fore
SplineSet
0 800 m 1,0,-1
 851 800 l 1,1,-1
 851 500 l 1,2,-1
 0 500 l 1,3,-1
 0 800 l 1,0,-1
275 400 m 1,4,-1
 575 400 l 1,5,-1
 575 100 l 1,6,-1
 275 100 l 1,7,-1
 275 400 l 1,4,-1
275 1200 m 1,8,-1
 575 1200 l 1,9,-1
 575 900 l 1,10,-1
 275 900 l 1,11,-1
 275 1200 l 1,8,-1
EndSplineSet
EndChar

StartChar: oslash
Encoding: 248 248 184
Width: 1080
Flags: W
LayerCount: 2
Fore
SplineSet
268 387 m 1,0,-1
 547 790 l 1,1,2
 515 800 515 800 480 800 c 0,3,4
 381 800 381 800 310.5 718 c 128,-1,5
 240 636 240 636 240 520 c 0,6,7
 240 447 240 447 268 387 c 1,0,-1
304 34 m 1,8,-1
 280 0 l 1,9,-1
 0 0 l 1,10,-1
 121 175 l 1,11,12
 0 320 0 320 0 520 c 0,13,14
 0 735 0 735 140.5 887.5 c 128,-1,15
 281 1040 281 1040 480 1040 c 0,16,17
 593 1040 593 1040 686 991 c 1,18,-1
 720 1040 l 1,19,-1
 1000 1040 l 1,20,-1
 860 838 l 1,21,22
 960 701 960 701 960 520 c 0,23,24
 960 305 960 305 819.5 152.5 c 128,-1,25
 679 0 679 0 480 0 c 0,26,27
 385 0 385 0 304 34 c 1,8,-1
706 616 m 1,28,-1
 448 242 l 1,29,30
 463 240 463 240 480 240 c 0,31,32
 579 240 579 240 649.5 322 c 128,-1,33
 720 404 720 404 720 520 c 0,34,35
 720 571 720 571 706 616 c 1,28,-1
EndSplineSet
EndChar

StartChar: ugrave
Encoding: 249 249 185
Width: 1080
Flags: W
LayerCount: 2
Fore
SplineSet
0 520 m 2,0,-1
 0 1040 l 1,1,-1
 240 1040 l 1,2,-1
 240 520 l 2,3,4
 240 404 240 404 310.5 322 c 128,-1,5
 381 240 381 240 480 240 c 256,6,7
 579 240 579 240 649.5 322 c 128,-1,8
 720 404 720 404 720 520 c 2,9,-1
 720 1040 l 1,10,-1
 960 1040 l 1,11,-1
 960 520 l 2,12,13
 960 305 960 305 819.5 152.5 c 128,-1,14
 679 0 679 0 480 0 c 256,15,16
 281 0 281 0 140.5 152.5 c 128,-1,17
 0 305 0 305 0 520 c 2,0,-1
520 1400 m 1,18,-1
 720 1120 l 1,19,-1
 440 1120 l 1,20,-1
 240 1400 l 1,21,-1
 520 1400 l 1,18,-1
EndSplineSet
EndChar

StartChar: uacute
Encoding: 250 250 186
Width: 1080
Flags: W
LayerCount: 2
Fore
SplineSet
0 520 m 2,0,-1
 0 1040 l 1,1,-1
 240 1040 l 1,2,-1
 240 520 l 2,3,4
 240 404 240 404 310.5 322 c 128,-1,5
 381 240 381 240 480 240 c 256,6,7
 579 240 579 240 649.5 322 c 128,-1,8
 720 404 720 404 720 520 c 2,9,-1
 720 1040 l 1,10,-1
 960 1040 l 1,11,-1
 960 520 l 2,12,13
 960 305 960 305 819.5 152.5 c 128,-1,14
 679 0 679 0 480 0 c 256,15,16
 281 0 281 0 140.5 152.5 c 128,-1,17
 0 305 0 305 0 520 c 2,0,-1
720 1400 m 1,18,-1
 520 1120 l 1,19,-1
 240 1120 l 1,20,-1
 440 1400 l 1,21,-1
 720 1400 l 1,18,-1
EndSplineSet
EndChar

StartChar: ucircumflex
Encoding: 251 251 187
Width: 1080
Flags: W
LayerCount: 2
Fore
SplineSet
0 520 m 2,0,-1
 0 1040 l 1,1,-1
 240 1040 l 1,2,-1
 240 520 l 2,3,4
 240 404 240 404 310.5 322 c 128,-1,5
 381 240 381 240 480 240 c 256,6,7
 579 240 579 240 649.5 322 c 128,-1,8
 720 404 720 404 720 520 c 2,9,-1
 720 1040 l 1,10,-1
 960 1040 l 1,11,-1
 960 520 l 2,12,13
 960 305 960 305 819.5 152.5 c 128,-1,14
 679 0 679 0 480 0 c 256,15,16
 281 0 281 0 140.5 152.5 c 128,-1,17
 0 305 0 305 0 520 c 2,0,-1
620 1400 m 1,18,-1
 820 1120 l 1,19,-1
 540 1120 l 1,20,-1
 480 1198 l 1,21,-1
 420 1120 l 1,22,-1
 140 1120 l 1,23,-1
 340 1400 l 1,24,-1
 620 1400 l 1,18,-1
EndSplineSet
EndChar

StartChar: udieresis
Encoding: 252 252 188
Width: 1080
Flags: W
LayerCount: 2
Fore
SplineSet
0 520 m 2,0,-1
 0 1040 l 1,1,-1
 240 1040 l 1,2,-1
 240 520 l 2,3,4
 240 404 240 404 310.5 322 c 128,-1,5
 381 240 381 240 480 240 c 256,6,7
 579 240 579 240 649.5 322 c 128,-1,8
 720 404 720 404 720 520 c 2,9,-1
 720 1040 l 1,10,-1
 960 1040 l 1,11,-1
 960 520 l 2,12,13
 960 305 960 305 819.5 152.5 c 128,-1,14
 679 0 679 0 480 0 c 256,15,16
 281 0 281 0 140.5 152.5 c 128,-1,17
 0 305 0 305 0 520 c 2,0,-1
140 1400 m 1,18,-1
 380 1400 l 1,19,-1
 380 1160 l 1,20,-1
 140 1160 l 1,21,-1
 140 1400 l 1,18,-1
580 1400 m 1,22,-1
 820 1400 l 1,23,-1
 820 1160 l 1,24,-1
 580 1160 l 1,25,-1
 580 1400 l 1,22,-1
EndSplineSet
EndChar

StartChar: yacute
Encoding: 253 253 189
Width: 1080
Flags: W
LayerCount: 2
Fore
SplineSet
380 491 m 1,0,-1
 360 520 l 1,1,-1
 0 1040 l 1,2,-1
 280 1040 l 1,3,-1
 500 722 l 1,4,-1
 720 1040 l 1,5,-1
 1000 1040 l 1,6,-1
 640 520 l 1,7,-1
 620 491 l 1,8,-1
 620 0 l 1,9,-1
 380 0 l 1,10,-1
 380 491 l 1,0,-1
740 1400 m 1,11,-1
 540 1120 l 1,12,-1
 260 1120 l 1,13,-1
 460 1400 l 1,14,-1
 740 1400 l 1,11,-1
EndSplineSet
EndChar

StartChar: thorn
Encoding: 254 254 190
Width: 1040
Flags: W
LayerCount: 2
Fore
SplineSet
600 440 m 2,0,1
 633 440 633 440 656.5 469 c 128,-1,2
 680 498 680 498 680 540 c 256,3,4
 680 582 680 582 656.5 611 c 128,-1,5
 633 640 633 640 600 640 c 2,6,-1
 240 640 l 1,7,-1
 240 440 l 1,8,-1
 600 440 l 2,0,1
240 880 m 1,9,-1
 600 880 l 2,10,11
 733 880 733 880 826.5 780.5 c 128,-1,12
 920 681 920 681 920 540 c 256,13,14
 920 399 920 399 826.5 299.5 c 128,-1,15
 733 200 733 200 600 200 c 2,16,-1
 320 200 l 1,17,-1
 240 360 l 1,18,-1
 240 0 l 1,19,-1
 0 0 l 1,20,-1
 0 1040 l 1,21,-1
 240 1040 l 1,22,-1
 240 880 l 1,9,-1
EndSplineSet
EndChar

StartChar: ydieresis
Encoding: 255 255 191
Width: 1080
Flags: W
LayerCount: 2
Fore
SplineSet
380 491 m 1,0,-1
 360 520 l 1,1,-1
 0 1040 l 1,2,-1
 280 1040 l 1,3,-1
 500 722 l 1,4,-1
 720 1040 l 1,5,-1
 1000 1040 l 1,6,-1
 640 520 l 1,7,-1
 620 491 l 1,8,-1
 620 0 l 1,9,-1
 380 0 l 1,10,-1
 380 491 l 1,0,-1
160 1400 m 1,11,-1
 400 1400 l 1,12,-1
 400 1160 l 1,13,-1
 160 1160 l 1,14,-1
 160 1400 l 1,11,-1
600 1400 m 1,15,-1
 840 1400 l 1,16,-1
 840 1160 l 1,17,-1
 600 1160 l 1,18,-1
 600 1400 l 1,15,-1
EndSplineSet
EndChar

StartChar: dotlessi
Encoding: 305 305 192
Width: 360
Flags: W
LayerCount: 2
Fore
SplineSet
240 0 m 1,0,-1
 0 0 l 1,1,-1
 0 1040 l 1,2,-1
 240 1040 l 1,3,-1
 240 0 l 1,0,-1
EndSplineSet
EndChar

StartChar: circumflex
Encoding: 710 710 193
Width: 1000
Flags: W
LayerCount: 2
Fore
SplineSet
600 1750 m 1,0,-1
 850 1400 l 1,1,-1
 500 1400 l 1,2,-1
 425 1497 l 1,3,-1
 350 1400 l 1,4,-1
 0 1400 l 1,5,-1
 250 1750 l 1,6,-1
 600 1750 l 1,0,-1
EndSplineSet
EndChar

StartChar: caron
Encoding: 711 711 194
Width: 1000
Flags: W
LayerCount: 2
Fore
SplineSet
250 1400 m 1,0,-1
 0 1750 l 1,1,-1
 350 1750 l 1,2,-1
 425 1653 l 1,3,-1
 500 1750 l 1,4,-1
 850 1750 l 1,5,-1
 600 1400 l 1,6,-1
 250 1400 l 1,0,-1
EndSplineSet
EndChar

StartChar: uni02C9
Encoding: 713 713 195
Width: 1024
Flags: W
LayerCount: 2
Fore
SplineSet
254 1195 m 1,0,-1
 254 1320 l 1,1,-1
 770 1320 l 1,2,-1
 770 1195 l 1,3,-1
 254 1195 l 1,0,-1
EndSplineSet
EndChar

StartChar: breve
Encoding: 728 728 196
Width: 1024
Flags: W
LayerCount: 2
Fore
SplineSet
219 1349 m 1,0,-1
 270 1349 l 1,1,2
 287 1276 287 1276 345 1242 c 128,-1,3
 403 1208 403 1208 512 1208 c 256,4,5
 621 1208 621 1208 678 1241.5 c 128,-1,6
 735 1275 735 1275 752 1349 c 1,7,-1
 803 1349 l 1,8,9
 783 1216 783 1216 709 1147.5 c 128,-1,10
 635 1079 635 1079 512 1079 c 0,11,12
 390 1079 390 1079 315 1148 c 128,-1,13
 240 1217 240 1217 219 1349 c 1,0,-1
EndSplineSet
EndChar

StartChar: dotaccent
Encoding: 729 729 197
Width: 450
Flags: W
LayerCount: 2
Fore
SplineSet
0 1750 m 1,0,-1
 300 1750 l 1,1,-1
 300 1450 l 1,2,-1
 0 1450 l 1,3,-1
 0 1750 l 1,0,-1
EndSplineSet
EndChar

StartChar: ring
Encoding: 730 730 198
Width: 500
Flags: W
LayerCount: 2
Fore
SplineSet
175 1400 m 0,0,1
 102 1400 102 1400 51 1451 c 128,-1,2
 0 1502 0 1502 0 1575 c 0,3,4
 0 1647 0 1647 51 1698.5 c 128,-1,5
 102 1750 102 1750 175 1750 c 0,6,7
 247 1750 247 1750 298.5 1698.5 c 128,-1,8
 350 1647 350 1647 350 1575 c 0,9,10
 350 1502 350 1502 298.5 1451 c 128,-1,11
 247 1400 247 1400 175 1400 c 0,0,1
EndSplineSet
EndChar

StartChar: ogonek
Encoding: 731 731 199
Width: 700
Flags: W
LayerCount: 2
Fore
SplineSet
400 -400 m 1,0,1
 234 -400 234 -400 117 -283 c 128,-1,2
 0 -166 0 -166 0 0 c 1,3,-1
 300 0 l 1,4,5
 300 -41 300 -41 329.5 -70.5 c 128,-1,6
 359 -100 359 -100 400 -100 c 2,7,-1
 550 -100 l 1,8,-1
 400 -400 l 1,0,1
EndSplineSet
EndChar

StartChar: tilde
Encoding: 732 732 200
Width: 1150
Flags: W
LayerCount: 2
Fore
SplineSet
900 1450 m 128,-1,1
 800 1350 800 1350 650 1350 c 256,2,3
 500 1350 500 1350 450 1400 c 256,4,5
 400 1450 400 1450 350 1450 c 256,6,7
 300 1450 300 1450 300 1400 c 2,8,-1
 300 1350 l 1,9,-1
 0 1400 l 1,10,11
 0 1545 0 1545 102.5 1647.5 c 128,-1,12
 205 1750 205 1750 350 1750 c 0,13,14
 500 1750 500 1750 550 1700 c 0,15,16
 599 1650 599 1650 650 1650 c 0,17,18
 700 1650 700 1650 700 1700 c 2,19,-1
 700 1750 l 1,20,-1
 1000 1700 l 1,21,0
 1000 1550 1000 1550 900 1450 c 128,-1,1
EndSplineSet
EndChar

StartChar: hungarumlaut
Encoding: 733 733 201
Width: 1024
Flags: W
LayerCount: 2
Fore
SplineSet
217 1079 m 1,0,-1
 361 1352 l 2,1,2
 385 1396 385 1396 406.5 1415 c 128,-1,3
 428 1434 428 1434 453 1434 c 0,4,5
 481 1434 481 1434 501 1414 c 128,-1,6
 521 1394 521 1394 521 1367 c 0,7,8
 521 1351 521 1351 510.5 1332 c 128,-1,9
 500 1313 500 1313 480 1291 c 2,10,-1
 275 1079 l 1,11,-1
 217 1079 l 1,0,-1
502 1079 m 1,12,-1
 646 1352 l 2,13,14
 670 1396 670 1396 691.5 1415 c 128,-1,15
 713 1434 713 1434 738 1434 c 0,16,17
 766 1434 766 1434 786 1414 c 128,-1,18
 806 1394 806 1394 806 1367 c 0,19,20
 806 1351 806 1351 795.5 1332 c 128,-1,21
 785 1313 785 1313 765 1291 c 2,22,-1
 560 1079 l 1,23,-1
 502 1079 l 1,12,-1
EndSplineSet
EndChar

StartChar: endash
Encoding: 8211 8211 202
Width: 1150
Flags: W
LayerCount: 2
Fore
SplineSet
0 800 m 1,0,-1
 1000 800 l 1,1,-1
 1000 500 l 1,2,-1
 0 500 l 1,3,-1
 0 800 l 1,0,-1
EndSplineSet
EndChar

StartChar: emdash
Encoding: 8212 8212 203
Width: 1300
Flags: W
LayerCount: 2
Fore
SplineSet
0 800 m 1,0,-1
 1150 800 l 1,1,-1
 1150 500 l 1,2,-1
 0 500 l 1,3,-1
 0 800 l 1,0,-1
EndSplineSet
EndChar

StartChar: quoteleft
Encoding: 8216 8216 204
Width: 450
Flags: W
LayerCount: 2
Fore
SplineSet
300 750 m 1,0,-1
 0 750 l 1,1,-1
 0 1050 l 1,2,-1
 150 1300 l 1,3,-1
 300 1300 l 1,4,-1
 300 750 l 1,0,-1
EndSplineSet
EndChar

StartChar: quoteright
Encoding: 8217 8217 205
Width: 450
Flags: W
LayerCount: 2
Fore
SplineSet
0 1300 m 1,0,-1
 300 1300 l 1,1,-1
 300 1000 l 1,2,-1
 150 750 l 1,3,-1
 0 750 l 1,4,-1
 0 1300 l 1,0,-1
EndSplineSet
EndChar

StartChar: quotesinglbase
Encoding: 8218 8218 206
Width: 450
Flags: W
LayerCount: 2
Fore
SplineSet
0 300 m 1,0,-1
 300 300 l 1,1,-1
 300 0 l 1,2,-1
 150 -250 l 1,3,-1
 0 -250 l 1,4,-1
 0 300 l 1,0,-1
EndSplineSet
EndChar

StartChar: quotedblleft
Encoding: 8220 8220 207
Width: 850
Flags: W
LayerCount: 2
Fore
SplineSet
700 750 m 1,0,-1
 400 750 l 1,1,-1
 400 1050 l 1,2,-1
 550 1300 l 1,3,-1
 700 1300 l 1,4,-1
 700 750 l 1,0,-1
300 750 m 1,5,-1
 0 750 l 1,6,-1
 0 1050 l 1,7,-1
 150 1300 l 1,8,-1
 300 1300 l 1,9,-1
 300 750 l 1,5,-1
EndSplineSet
EndChar

StartChar: quotedblright
Encoding: 8221 8221 208
Width: 850
Flags: W
LayerCount: 2
Fore
SplineSet
0 1300 m 1,0,-1
 300 1300 l 1,1,-1
 300 1000 l 1,2,-1
 150 750 l 1,3,-1
 0 750 l 1,4,-1
 0 1300 l 1,0,-1
400 1300 m 1,5,-1
 700 1300 l 1,6,-1
 700 1000 l 1,7,-1
 550 750 l 1,8,-1
 400 750 l 1,9,-1
 400 1300 l 1,5,-1
EndSplineSet
EndChar

StartChar: quotedblbase
Encoding: 8222 8222 209
Width: 850
Flags: W
LayerCount: 2
Fore
SplineSet
0 300 m 1,0,-1
 300 300 l 1,1,-1
 300 0 l 1,2,-1
 150 -250 l 1,3,-1
 0 -250 l 1,4,-1
 0 300 l 1,0,-1
400 300 m 1,5,-1
 700 300 l 1,6,-1
 700 0 l 1,7,-1
 550 -250 l 1,8,-1
 400 -250 l 1,9,-1
 400 300 l 1,5,-1
EndSplineSet
EndChar

StartChar: dagger
Encoding: 8224 8224 210
Width: 1014
Flags: W
LayerCount: 2
Fore
SplineSet
486 1022 m 1,0,1
 478 1119 478 1119 432 1200 c 0,2,3
 375 1301 375 1301 375 1329 c 0,4,5
 375 1378 375 1378 411 1407.5 c 128,-1,6
 447 1437 447 1437 507 1437 c 0,7,8
 564 1437 564 1437 601.5 1409.5 c 128,-1,9
 639 1382 639 1382 639 1338 c 0,10,11
 639 1306 639 1306 584 1201 c 0,12,13
 538 1116 538 1116 529 1022 c 1,14,15
 625 1030 625 1030 706 1076 c 0,16,17
 807 1133 807 1133 835 1133 c 0,18,19
 884 1133 884 1133 914 1097 c 128,-1,20
 944 1061 944 1061 944 1001 c 0,21,22
 944 944 944 944 916.5 906.5 c 128,-1,23
 889 869 889 869 844 869 c 0,24,25
 812 869 812 869 708 924 c 0,26,27
 623 970 623 970 529 981 c 1,28,29
 537 805 537 805 639 704 c 1,30,31
 533 244 533 244 527 -270 c 1,32,-1
 489 -270 l 1,33,34
 483 244 483 244 375 704 c 1,35,36
 477 805 477 805 486 981 c 1,37,38
 390 971 390 971 308 926 c 0,39,40
 207 869 207 869 179 869 c 0,41,42
 130 869 130 869 100.5 905 c 128,-1,43
 71 941 71 941 71 1001 c 0,44,45
 71 1058 71 1058 98.5 1095.5 c 128,-1,46
 126 1133 126 1133 170 1133 c 0,47,48
 202 1133 202 1133 307 1077 c 0,49,50
 392 1031 392 1031 486 1022 c 1,0,1
EndSplineSet
EndChar

StartChar: daggerdbl
Encoding: 8225 8225 211
Width: 1014
Flags: W
LayerCount: 2
Fore
SplineSet
528 186 m 1,0,1
 622 197 622 197 707 243 c 0,2,3
 811 298 811 298 843 298 c 0,4,5
 888 298 888 298 915.5 260.5 c 128,-1,6
 943 223 943 223 943 166 c 0,7,8
 943 106 943 106 913 70 c 128,-1,9
 883 34 883 34 834 34 c 0,10,11
 806 34 806 34 705 91 c 0,12,13
 624 137 624 137 528 145 c 1,14,15
 537 51 537 51 583 -34 c 0,16,17
 638 -139 638 -139 638 -171 c 0,18,19
 638 -215 638 -215 600.5 -242.5 c 128,-1,20
 563 -270 563 -270 506 -270 c 0,21,22
 446 -270 446 -270 410 -240.5 c 128,-1,23
 374 -211 374 -211 374 -162 c 0,24,25
 374 -134 374 -134 431 -33 c 0,26,27
 477 48 477 48 485 145 c 1,28,29
 391 136 391 136 306 90 c 0,30,31
 201 34 201 34 169 34 c 0,32,33
 125 34 125 34 97.5 71.5 c 128,-1,34
 70 109 70 109 70 166 c 0,35,36
 70 226 70 226 99.5 262 c 128,-1,37
 129 298 129 298 178 298 c 0,38,39
 206 298 206 298 307 241 c 0,40,41
 389 196 389 196 485 186 c 1,42,43
 476 412 476 412 374 584 c 1,44,45
 476 755 476 755 485 981 c 1,46,47
 389 971 389 971 307 926 c 0,48,49
 206 869 206 869 178 869 c 0,50,51
 129 869 129 869 99.5 905 c 128,-1,52
 70 941 70 941 70 1001 c 0,53,54
 70 1058 70 1058 97.5 1095.5 c 128,-1,55
 125 1133 125 1133 169 1133 c 0,56,57
 201 1133 201 1133 306 1077 c 0,58,59
 391 1031 391 1031 485 1022 c 1,60,61
 477 1119 477 1119 431 1200 c 0,62,63
 374 1301 374 1301 374 1329 c 0,64,65
 374 1378 374 1378 410 1407.5 c 128,-1,66
 446 1437 446 1437 506 1437 c 0,67,68
 563 1437 563 1437 600.5 1409.5 c 128,-1,69
 638 1382 638 1382 638 1338 c 0,70,71
 638 1306 638 1306 583 1201 c 0,72,73
 537 1116 537 1116 528 1022 c 1,74,75
 624 1030 624 1030 705 1076 c 0,76,77
 806 1133 806 1133 834 1133 c 0,78,79
 883 1133 883 1133 913 1097 c 128,-1,80
 943 1061 943 1061 943 1001 c 0,81,82
 943 944 943 944 915.5 906.5 c 128,-1,83
 888 869 888 869 843 869 c 0,84,85
 811 869 811 869 707 924 c 0,86,87
 622 970 622 970 528 981 c 1,88,89
 536 755 536 755 638 584 c 1,90,91
 536 412 536 412 528 186 c 1,0,1
EndSplineSet
EndChar

StartChar: bullet
Encoding: 8226 8226 212
Width: 1024
Flags: W
LayerCount: 2
Fore
SplineSet
216 718 m 256,0,1
 216 841 216 841 303 927 c 128,-1,2
 390 1013 390 1013 513 1013 c 0,3,4
 635 1013 635 1013 721.5 926.5 c 128,-1,5
 808 840 808 840 808 718 c 256,6,7
 808 596 808 596 720.5 508.5 c 128,-1,8
 633 421 633 421 511 421 c 0,9,10
 388 421 388 421 302 508 c 128,-1,11
 216 595 216 595 216 718 c 256,0,1
EndSplineSet
EndChar

StartChar: ellipsis
Encoding: 8230 8230 213
Width: 1250
Flags: W
LayerCount: 2
Fore
SplineSet
300 0 m 1,0,-1
 0 0 l 1,1,-1
 0 300 l 1,2,-1
 300 300 l 1,3,-1
 300 0 l 1,0,-1
700 0 m 1,4,-1
 400 0 l 1,5,-1
 400 300 l 1,6,-1
 700 300 l 1,7,-1
 700 0 l 1,4,-1
1100 0 m 1,8,-1
 800 0 l 1,9,-1
 800 300 l 1,10,-1
 1100 300 l 1,11,-1
 1100 0 l 1,8,-1
EndSplineSet
EndChar

StartChar: guilsinglleft
Encoding: 8249 8249 214
Width: 850
Flags: W
LayerCount: 2
Fore
SplineSet
350 650 m 1,0,-1
 700 150 l 1,1,-1
 350 150 l 1,2,-1
 0 650 l 1,3,-1
 350 1150 l 1,4,-1
 700 1150 l 1,5,-1
 350 650 l 1,0,-1
EndSplineSet
EndChar

StartChar: guilsinglright
Encoding: 8250 8250 215
Width: 850
Flags: W
LayerCount: 2
Fore
SplineSet
0 1150 m 1,0,-1
 350 1150 l 1,1,-1
 700 650 l 1,2,-1
 350 150 l 1,3,-1
 0 150 l 1,4,-1
 350 650 l 1,5,-1
 0 1150 l 1,0,-1
EndSplineSet
EndChar

StartChar: fraction
Encoding: 8260 8260 216
AltUni2: 002215.ffffffff.0
Width: 1350
Flags: W
LayerCount: 2
Fore
SplineSet
350 0 m 1,0,-1
 0 0 l 1,1,-1
 900 1300 l 1,2,-1
 1250 1300 l 1,3,-1
 350 0 l 1,0,-1
EndSplineSet
EndChar

StartChar: franc
Encoding: 8355 8355 217
Width: 1450
Flags: W
LayerCount: 2
Fore
SplineSet
300 400 m 1,0,-1
 300 1300 l 1,1,-1
 1300 1300 l 1,2,-1
 1150 1000 l 1,3,-1
 600 1000 l 1,4,-1
 600 800 l 1,5,-1
 1150 800 l 1,6,-1
 1150 500 l 1,7,-1
 600 500 l 1,8,-1
 600 400 l 1,9,-1
 900 400 l 1,10,-1
 900 100 l 1,11,-1
 600 100 l 1,12,-1
 600 0 l 1,13,-1
 300 0 l 1,14,-1
 300 100 l 1,15,-1
 150 100 l 1,16,-1
 0 400 l 1,17,-1
 300 400 l 1,0,-1
EndSplineSet
EndChar

StartChar: lira
Encoding: 8356 8356 218
Width: 1350
Flags: W
LayerCount: 2
Fore
SplineSet
600 1000 m 2,0,1
 559 1000 559 1000 529.5 970.5 c 128,-1,2
 500 941 500 941 500 900 c 2,3,-1
 500 800 l 1,4,-1
 851 800 l 1,5,-1
 851 500 l 1,6,-1
 500 500 l 1,7,-1
 500 300 l 1,8,-1
 1200 300 l 1,9,-1
 1200 0 l 1,10,-1
 0 0 l 1,11,-1
 0 300 l 1,12,-1
 200 300 l 1,13,-1
 200 500 l 1,14,-1
 150 500 l 1,15,-1
 0 800 l 1,16,-1
 200 800 l 1,17,-1
 200 900 l 2,18,19
 200 1066 200 1066 317 1183 c 128,-1,20
 434 1300 434 1300 600 1300 c 2,21,-1
 1200 1300 l 1,22,-1
 1050 1000 l 1,23,-1
 600 1000 l 2,0,1
EndSplineSet
EndChar

StartChar: peseta
Encoding: 8359 8359 219
Width: 1300
Flags: W
LayerCount: 2
Fore
SplineSet
900 750 m 2,0,1
 941 750 941 750 970.5 786.5 c 128,-1,2
 1000 823 1000 823 1000 875 c 256,3,4
 1000 927 1000 927 970.5 963.5 c 128,-1,5
 941 1000 941 1000 900 1000 c 2,6,-1
 600 1000 l 1,7,-1
 600 750 l 1,8,-1
 900 750 l 2,0,1
300 400 m 1,9,-1
 300 1300 l 1,10,-1
 900 1300 l 2,11,12
 1066 1300 1066 1300 1183 1175.5 c 128,-1,13
 1300 1051 1300 1051 1300 875 c 256,14,15
 1300 699 1300 699 1183 574.5 c 128,-1,16
 1066 450 1066 450 900 450 c 2,17,-1
 700 450 l 1,18,-1
 600 650 l 1,19,-1
 600 400 l 1,20,-1
 900 400 l 1,21,-1
 900 100 l 1,22,-1
 600 100 l 1,23,-1
 600 0 l 1,24,-1
 300 0 l 1,25,-1
 300 100 l 1,26,-1
 150 100 l 1,27,-1
 0 400 l 1,28,-1
 300 400 l 1,9,-1
EndSplineSet
EndChar

StartChar: Euro
Encoding: 8364 8364 220
Width: 1350
Flags: W
LayerCount: 2
Fore
SplineSet
478 500 m 1,0,1
 500 447 500 447 538 403 c 0,2,3
 626 300 626 300 750 300 c 2,4,-1
 1200 300 l 1,5,-1
 1200 0 l 1,6,-1
 750 0 l 2,7,8
 501 0 501 0 326 191 c 0,9,10
 201 326 201 326 165 500 c 1,11,-1
 100 500 l 1,12,-1
 0 800 l 1,13,-1
 165 800 l 1,14,15
 201 975 201 975 326 1110 c 0,16,17
 501 1300 501 1300 749 1300 c 2,18,-1
 1200 1300 l 1,19,-1
 1050 1000 l 1,20,-1
 750 1000 l 2,21,22
 626 1000 626 1000 538 898 c 0,23,24
 500 853 500 853 478 800 c 1,25,-1
 1050 800 l 1,26,-1
 1050 500 l 1,27,-1
 478 500 l 1,0,1
EndSplineSet
EndChar

StartChar: uni2116
Encoding: 8470 8470 221
Width: 1400
Flags: W
LayerCount: 2
Fore
SplineSet
0 1300 m 1,0,-1
 150 1300 l 1,1,-1
 425 903 l 1,2,-1
 425 1300 l 1,3,-1
 575 1300 l 1,4,-1
 575 650 l 1,5,-1
 425 650 l 1,6,-1
 150 1047 l 1,7,-1
 150 650 l 1,8,-1
 0 650 l 1,9,-1
 0 1300 l 1,0,-1
1162.5 1205 m 128,-1,11
 1250 1110 1250 1110 1250 975 c 0,12,13
 1250 841 1250 841 1162.5 745.5 c 128,-1,14
 1075 650 1075 650 950 650 c 0,15,16
 826 650 826 650 738 745.5 c 128,-1,17
 650 841 650 841 650 975 c 0,18,19
 650 1110 650 1110 738 1205 c 128,-1,20
 826 1300 826 1300 950 1300 c 0,21,10
 1075 1300 1075 1300 1162.5 1205 c 128,-1,11
844 1099 m 128,-1,23
 800 1048 800 1048 800 975 c 0,24,25
 800 903 800 903 844 851.5 c 128,-1,26
 888 800 888 800 950 800 c 256,27,28
 1012 800 1012 800 1056 851.5 c 128,-1,29
 1100 903 1100 903 1100 975 c 0,30,31
 1100 1048 1100 1048 1056 1099 c 128,-1,32
 1012 1150 1012 1150 950 1150 c 256,33,22
 888 1150 888 1150 844 1099 c 128,-1,23
EndSplineSet
EndChar

StartChar: trademark
Encoding: 8482 8482 222
Width: 1450
Flags: W
LayerCount: 2
Fore
SplineSet
175 1150 m 1,0,-1
 0 1150 l 1,1,-1
 0 1300 l 1,2,-1
 500 1300 l 1,3,-1
 425 1150 l 1,4,-1
 325 1150 l 1,5,-1
 325 650 l 1,6,-1
 176 650 l 1,7,-1
 175 1150 l 1,0,-1
725 1011 m 1,8,-1
 725 650 l 1,9,-1
 575 650 l 1,10,-1
 575 1300 l 1,11,-1
 800 1300 l 1,12,-1
 938 903 l 1,13,-1
 1075 1300 l 1,14,-1
 1300 1300 l 1,15,-1
 1300 650 l 1,16,-1
 1150 650 l 1,17,-1
 1150 1011 l 1,18,-1
 1025 650 l 1,19,-1
 850 650 l 1,20,-1
 725 1011 l 1,8,-1
EndSplineSet
EndChar

StartChar: partialdiff
Encoding: 8706 8706 223
Width: 1650
Flags: W
LayerCount: 2
Fore
SplineSet
0 200 m 2,1,-1
 0 1300 l 2,2,3
 0 1500 0 1500 200 1500 c 2,4,-1
 1300 1500 l 2,5,6
 1500 1500 1500 1500 1500 1300 c 2,7,-1
 1500 200 l 2,8,9
 1500 0 1500 0 1300 0 c 2,10,-1
 200 0 l 2,11,0
 0 0 0 0 0 200 c 2,1,-1
1475 201 m 2,13,-1
 1475 1300 l 2,14,15
 1475 1475 1475 1475 1300 1475 c 2,16,-1
 200 1475 l 2,17,18
 26 1475 26 1475 25 1300 c 2,19,-1
 25 200 l 2,20,21
 26 25 26 25 200 25 c 2,22,-1
 1301 25 l 2,23,12
 1475 25 1475 25 1475 201 c 2,13,-1
EndSplineSet
EndChar

StartChar: Delta
Encoding: 8710 8710 224
Width: 1650
Flags: W
LayerCount: 2
Fore
SplineSet
0 200 m 2,1,-1
 0 1300 l 2,2,3
 0 1500 0 1500 200 1500 c 2,4,-1
 1300 1500 l 2,5,6
 1500 1500 1500 1500 1500 1300 c 2,7,-1
 1500 200 l 2,8,9
 1500 0 1500 0 1300 0 c 2,10,-1
 200 0 l 2,11,0
 0 0 0 0 0 200 c 2,1,-1
1475 201 m 2,13,-1
 1475 1300 l 2,14,15
 1475 1475 1475 1475 1300 1475 c 2,16,-1
 200 1475 l 2,17,18
 26 1475 26 1475 25 1300 c 2,19,-1
 25 200 l 2,20,21
 26 25 26 25 200 25 c 2,22,-1
 1301 25 l 2,23,12
 1475 25 1475 25 1475 201 c 2,13,-1
EndSplineSet
EndChar

StartChar: product
Encoding: 8719 8719 225
Width: 1650
Flags: W
LayerCount: 2
Fore
SplineSet
0 200 m 2,1,-1
 0 1300 l 2,2,3
 0 1500 0 1500 200 1500 c 2,4,-1
 1300 1500 l 2,5,6
 1500 1500 1500 1500 1500 1300 c 2,7,-1
 1500 200 l 2,8,9
 1500 0 1500 0 1300 0 c 2,10,-1
 200 0 l 2,11,0
 0 0 0 0 0 200 c 2,1,-1
1475 201 m 2,13,-1
 1475 1300 l 2,14,15
 1475 1475 1475 1475 1300 1475 c 2,16,-1
 200 1475 l 2,17,18
 26 1475 26 1475 25 1300 c 2,19,-1
 25 200 l 2,20,21
 26 25 26 25 200 25 c 2,22,-1
 1301 25 l 2,23,12
 1475 25 1475 25 1475 201 c 2,13,-1
EndSplineSet
EndChar

StartChar: summation
Encoding: 8721 8721 226
Width: 1650
Flags: W
LayerCount: 2
Fore
SplineSet
0 200 m 2,1,-1
 0 1300 l 2,2,3
 0 1500 0 1500 200 1500 c 2,4,-1
 1300 1500 l 2,5,6
 1500 1500 1500 1500 1500 1300 c 2,7,-1
 1500 200 l 2,8,9
 1500 0 1500 0 1300 0 c 2,10,-1
 200 0 l 2,11,0
 0 0 0 0 0 200 c 2,1,-1
1475 201 m 2,13,-1
 1475 1300 l 2,14,15
 1475 1475 1475 1475 1300 1475 c 2,16,-1
 200 1475 l 2,17,18
 26 1475 26 1475 25 1300 c 2,19,-1
 25 200 l 2,20,21
 26 25 26 25 200 25 c 2,22,-1
 1301 25 l 2,23,12
 1475 25 1475 25 1475 201 c 2,13,-1
EndSplineSet
EndChar

StartChar: minus
Encoding: 8722 8722 227
Width: 1000
Flags: W
LayerCount: 2
Fore
SplineSet
0 800 m 1,0,-1
 851 800 l 1,1,-1
 851 500 l 1,2,-1
 0 500 l 1,3,-1
 0 800 l 1,0,-1
EndSplineSet
EndChar

StartChar: approxequal
Encoding: 8776 8776 228
Width: 1650
Flags: W
LayerCount: 2
Fore
SplineSet
0 200 m 2,1,-1
 0 1300 l 2,2,3
 0 1500 0 1500 200 1500 c 2,4,-1
 1300 1500 l 2,5,6
 1500 1500 1500 1500 1500 1300 c 2,7,-1
 1500 200 l 2,8,9
 1500 0 1500 0 1300 0 c 2,10,-1
 200 0 l 2,11,0
 0 0 0 0 0 200 c 2,1,-1
1475 201 m 2,13,-1
 1475 1300 l 2,14,15
 1475 1475 1475 1475 1300 1475 c 2,16,-1
 200 1475 l 2,17,18
 26 1475 26 1475 25 1300 c 2,19,-1
 25 200 l 2,20,21
 26 25 26 25 200 25 c 2,22,-1
 1301 25 l 2,23,12
 1475 25 1475 25 1475 201 c 2,13,-1
EndSplineSet
EndChar

StartChar: lessequal
Encoding: 8804 8804 229
Width: 1650
Flags: W
LayerCount: 2
Fore
SplineSet
0 200 m 2,1,-1
 0 1300 l 2,2,3
 0 1500 0 1500 200 1500 c 2,4,-1
 1300 1500 l 2,5,6
 1500 1500 1500 1500 1500 1300 c 2,7,-1
 1500 200 l 2,8,9
 1500 0 1500 0 1300 0 c 2,10,-1
 200 0 l 2,11,0
 0 0 0 0 0 200 c 2,1,-1
1475 201 m 2,13,-1
 1475 1300 l 2,14,15
 1475 1475 1475 1475 1300 1475 c 2,16,-1
 200 1475 l 2,17,18
 26 1475 26 1475 25 1300 c 2,19,-1
 25 200 l 2,20,21
 26 25 26 25 200 25 c 2,22,-1
 1301 25 l 2,23,12
 1475 25 1475 25 1475 201 c 2,13,-1
EndSplineSet
EndChar

StartChar: greaterequal
Encoding: 8805 8805 230
Width: 1650
Flags: W
LayerCount: 2
Fore
SplineSet
0 200 m 2,1,-1
 0 1300 l 2,2,3
 0 1500 0 1500 200 1500 c 2,4,-1
 1300 1500 l 2,5,6
 1500 1500 1500 1500 1500 1300 c 2,7,-1
 1500 200 l 2,8,9
 1500 0 1500 0 1300 0 c 2,10,-1
 200 0 l 2,11,0
 0 0 0 0 0 200 c 2,1,-1
1475 201 m 2,13,-1
 1475 1300 l 2,14,15
 1475 1475 1475 1475 1300 1475 c 2,16,-1
 200 1475 l 2,17,18
 26 1475 26 1475 25 1300 c 2,19,-1
 25 200 l 2,20,21
 26 25 26 25 200 25 c 2,22,-1
 1301 25 l 2,23,12
 1475 25 1475 25 1475 201 c 2,13,-1
EndSplineSet
EndChar

StartChar: OE
Encoding: 338 338 233
Width: 2050
Flags: W
LayerCount: 2
Fore
SplineSet
388 897.5 m 128,-1,1
 300 795 300 795 300 650 c 256,2,3
 300 505 300 505 388 402.5 c 128,-1,4
 476 300 476 300 600 300 c 256,5,6
 724 300 724 300 812 402.5 c 128,-1,7
 900 505 900 505 900 650 c 256,8,9
 900 795 900 795 812 897.5 c 128,-1,10
 724 1000 724 1000 600 1000 c 256,11,0
 476 1000 476 1000 388 897.5 c 128,-1,1
1900 1300 m 1,12,-1
 1750 1000 l 1,13,-1
 1107 1000 l 1,14,15
 1163 907 1163 907 1185 800 c 1,16,-1
 1751 800 l 1,17,-1
 1751 500 l 1,18,-1
 1185 500 l 1,19,20
 1163 393 1163 393 1107 300 c 1,21,-1
 1900 300 l 1,22,-1
 1900 0 l 1,23,-1
 600 0 l 2,24,25
 351 0 351 0 175.5 190.5 c 128,-1,26
 0 381 0 381 0 650 c 256,27,28
 0 919 0 919 175.5 1109.5 c 128,-1,29
 351 1300 351 1300 600 1300 c 2,30,-1
 1900 1300 l 1,12,-1
EndSplineSet
EndChar

StartChar: oe
Encoding: 339 339 234
Width: 1670
Flags: W
LayerCount: 2
Fore
SplineSet
310.5 718 m 128,-1,1
 240 636 240 636 240 520 c 256,2,3
 240 404 240 404 310.5 322 c 128,-1,4
 381 240 381 240 480 240 c 256,5,6
 579 240 579 240 649.5 322 c 128,-1,7
 720 404 720 404 720 520 c 256,8,9
 720 636 720 636 649.5 718 c 128,-1,10
 579 800 579 800 480 800 c 256,11,0
 381 800 381 800 310.5 718 c 128,-1,1
1520 1040 m 1,12,-1
 1400 800 l 1,13,-1
 886 800 l 1,14,15
 930 726 930 726 948 640 c 1,16,-1
 1401 640 l 1,17,-1
 1401 400 l 1,18,-1
 948 400 l 1,19,20
 930 314 930 314 886 240 c 1,21,-1
 1520 240 l 1,22,-1
 1520 0 l 1,23,-1
 480 0 l 2,24,25
 281 0 281 0 140.5 152.5 c 128,-1,26
 0 305 0 305 0 520 c 256,27,28
 0 735 0 735 140.5 887.5 c 128,-1,29
 281 1040 281 1040 480 1040 c 2,30,-1
 1520 1040 l 1,12,-1
EndSplineSet
EndChar

StartChar: perthousand
Encoding: 8240 8240 235
Width: 2100
Flags: W
LayerCount: 2
Fore
SplineSet
300 900 m 256,1,2
 300 859 300 859 329.5 829.5 c 128,-1,3
 359 800 359 800 400 800 c 256,4,5
 441 800 441 800 470.5 829.5 c 128,-1,6
 500 859 500 859 500 900 c 256,7,8
 500 941 500 941 470.5 970.5 c 128,-1,9
 441 1000 441 1000 400 1000 c 256,10,11
 359 1000 359 1000 329.5 970.5 c 128,-1,0
 300 941 300 941 300 900 c 256,1,2
950 400 m 256,13,14
 950 359 950 359 979.5 329.5 c 128,-1,15
 1009 300 1009 300 1050 300 c 256,16,17
 1091 300 1091 300 1120.5 329.5 c 128,-1,18
 1150 359 1150 359 1150 400 c 256,19,20
 1150 441 1150 441 1120.5 470.5 c 128,-1,21
 1091 500 1091 500 1050 500 c 256,22,23
 1009 500 1009 500 979.5 470.5 c 128,-1,12
 950 441 950 441 950 400 c 256,13,14
1550 500 m 256,24,25
 1509 500 1509 500 1479.5 470.5 c 128,-1,26
 1450 441 1450 441 1450 400 c 256,27,28
 1450 359 1450 359 1479.5 329.5 c 128,-1,29
 1509 300 1509 300 1550 300 c 256,30,31
 1591 300 1591 300 1620.5 329.5 c 128,-1,32
 1650 359 1650 359 1650 400 c 256,33,34
 1650 441 1650 441 1620.5 470.5 c 128,-1,35
 1591 500 1591 500 1550 500 c 256,24,25
1300 87 m 1,36,37
 1193 0 1193 0 1050 0 c 0,38,39
 884 0 884 0 767 117 c 0,40,41
 685 199 685 199 661 304 c 1,42,-1
 450 0 l 1,43,-1
 100 0 l 1,44,-1
 448 503 l 1,45,46
 424 500 424 500 400 500 c 0,47,48
 234 500 234 500 117 617 c 128,-1,49
 0 734 0 734 0 900 c 256,50,51
 0 1066 0 1066 117 1183 c 128,-1,52
 234 1300 234 1300 400 1300 c 256,53,54
 566 1300 566 1300 683 1183 c 0,55,56
 765 1101 765 1101 789 996 c 1,57,-1
 1000 1300 l 1,58,-1
 1350 1300 l 1,59,-1
 1002 797 l 1,60,61
 1026 800 1026 800 1050 800 c 0,62,63
 1193 800 1193 800 1300 713 c 1,64,65
 1407 800 1407 800 1550 800 c 0,66,67
 1716 800 1716 800 1833 683 c 128,-1,68
 1950 566 1950 566 1950 400 c 256,69,70
 1950 234 1950 234 1833 117 c 128,-1,71
 1716 0 1716 0 1550 0 c 0,72,73
 1407 0 1407 0 1300 87 c 1,36,37
EndSplineSet
EndChar
